<?xml version="1.0" encoding="utf-8"?>
<!-- Generator: Adobe Illustrator 26.0.2, SVG Export Plug-In . SVG Version: 6.00 Build 0)  -->
<svg version="1.1" id="Capa_1" xmlns="http://www.w3.org/2000/svg" xmlns:xlink="http://www.w3.org/1999/xlink" x="0px" y="0px"
	 viewBox="0 0 50 50" style="enable-background:new 0 0 50 50;" xml:space="preserve">
<style type="text/css">
	.st0{display:none;fill:#FFFEFE;}
	.st1{fill:#F18527;}
</style>
<g>
	<path class="st0" d="M25,48.9c-7.9,0-15.9,0-23.8,0C0.1,49,0,48.7,0,47.7C0,32.9,0,18,0,3.2C0,2.1,0.3,2,1.2,2
		c15.9,0,31.7,0,47.6,0C49.9,2,50,2.3,50,3.2c0,14.8,0,29.7,0,44.5c0,1.1-0.3,1.2-1.2,1.2C40.8,48.9,32.9,48.9,25,48.9z M24.3,2.7
		c-3.4,0-5.3,1.7-6.2,4.9c-0.1,0.5,0,1.2-0.7,1.6c-3.8,1.6-6.6,4.4-9.3,7.5c-0.4,0.4-0.8,0.5-1.3,0.5c-3.7,0-4.8,1.5-5.9,4.2
		c-1,2.3,0,5.3,2,6.9c0.6,0.5,0.8,0.9,0.8,1.7c0.1,3.2,1,6.2,3,8.9c0.6,0.8,1,1.7,0.8,2.9C7,44.3,8.8,47.3,11,48.2
		c2.5,1,4.9,0.4,6.8-2c0.4-0.5,0.7-0.4,1.2-0.3c3.8,0.5,7.4,0,10.9-1.3c0.8-0.3,1.4-0.2,2.2,0.3c1.1,0.8,2.4,1.2,3.8,1
		c3.6-0.5,5.8-3.7,5-7.3c-0.2-0.8-0.2-1.5,0.4-2.2c2.3-2.7,3.5-5.9,4.2-9.4c0.2-0.9,0.5-1.4,1.3-1.9c2.1-1.3,2.9-3.2,2.7-5.5
		c-0.2-2.4-1.4-4.5-3.7-4.9c-2.5-0.4-4.2-1.5-5.6-3.4c-0.1-0.1-0.3-0.2-0.4-0.3c-2.7-2.1-5.8-3.3-9.3-3.7C29.7,7,29.2,6.8,28.9,6
		C28,3.7,26.1,2.9,24.3,2.7z"/>
	<path class="st1" d="M24.3,2.7c1.8,0.2,3.7,1,4.6,3.3c0.3,0.8,0.8,1,1.7,1.1c3.4,0.3,6.5,1.6,9.3,3.7c0.1,0.1,0.3,0.2,0.4,0.3
		c1.4,1.9,3.1,3,5.6,3.4c2.3,0.4,3.5,2.5,3.7,4.9s-0.7,4.3-2.7,5.5c-0.8,0.5-1.1,1-1.3,1.9c-0.7,3.4-1.9,6.7-4.2,9.4
		c-0.7,0.8-0.6,1.4-0.4,2.2c0.8,3.7-1.4,6.8-5,7.3c-1.4,0.2-2.7-0.2-3.8-1c-0.7-0.5-1.3-0.6-2.2-0.3c-3.5,1.3-7.2,1.7-10.9,1.3
		c-0.4-0.1-0.8-0.1-1.2,0.3c-1.8,2.4-4.3,3-6.8,2c-2.3-0.9-4-3.9-3.5-6.4c0.2-1.2-0.1-2-0.8-2.9c-2-2.6-2.9-5.6-3-8.9
		c0-0.7-0.2-1.2-0.8-1.7c-2.1-1.6-3-4.6-2-6.9C2.1,18.5,3.3,17,6.9,17c0.5,0,0.9-0.1,1.3-0.5c2.6-3.1,5.4-5.9,9.3-7.5
		c0.8-0.3,0.6-1,0.7-1.6C18.9,4.4,20.9,2.7,24.3,2.7z M7,30.4c0.2,2.3,0.8,4.3,2.1,6.1c0.3,0.5,0.6,0.8,1.3,0.5
		c4.5-1.7,7.3-0.2,8.5,4.6c0.2,0.8,0.5,1,1.3,1c2.7,0.1,5.4-0.1,8-0.9c0.9-0.3,1.2-0.6,1.2-1.6c0-4.5,3.7-7.2,8-5.8
		c0.7,0.2,1.2,0.3,1.6-0.4c1.4-2.2,2.7-4.5,3.2-7.1c0.1-0.6,0-1.1-0.7-1.5c-3.9-2.1-4.8-5.6-2.4-9.2c0.4-0.6,0.5-0.9-0.1-1.4
		c-2.2-2-4.5-3.8-7.5-4.4c-1.4-0.3-2.2-0.1-2.7,1.3c-1.3,3.7-7,4.3-9.5,0.9c-0.2-0.3-0.3-0.8-0.8-0.4c-2.5,1.8-5.2,3.2-7.2,5.6
		c-0.6,0.8-0.7,1.2-0.1,2.2c2.3,3.5,0.8,7.8-3.1,9.1C7.2,29.4,6.8,29.6,7,30.4z"/>
	<path class="st0" d="M7,30.4c-0.2-0.8,0.2-1,1-1.3c3.9-1.3,5.4-5.6,3.1-9.1c-0.6-0.9-0.5-1.4,0.1-2.2c2-2.4,4.7-3.8,7.2-5.6
		c0.5-0.4,0.6,0.1,0.8,0.4c2.5,3.4,8.2,2.8,9.5-0.9c0.5-1.4,1.3-1.6,2.7-1.3c3.1,0.6,5.4,2.3,7.5,4.4c0.5,0.5,0.4,0.8,0.1,1.4
		c-2.4,3.7-1.5,7.1,2.4,9.2c0.7,0.4,0.8,0.8,0.7,1.5c-0.5,2.6-1.9,4.9-3.2,7.1c-0.4,0.6-0.9,0.6-1.6,0.4c-4.3-1.4-8,1.2-8,5.8
		c0,1-0.3,1.3-1.2,1.6c-2.6,0.8-5.3,1.1-8,0.9c-0.7,0-1.1-0.2-1.3-1c-1.2-4.8-4-6.3-8.5-4.6c-0.8,0.3-1,0-1.3-0.5
		C7.8,34.7,7.2,32.7,7,30.4z"/>
</g>
</svg>
