<?xml version="1.0" encoding="utf-8"?>
<!-- Generator: Adobe Illustrator 26.0.2, SVG Export Plug-In . SVG Version: 6.00 Build 0)  -->
<svg version="1.1" id="back" xmlns="http://www.w3.org/2000/svg" xmlns:xlink="http://www.w3.org/1999/xlink" x="0px" y="0px"
	 viewBox="0 0 39.4 39.9" style="enable-background:new 0 0 39.4 39.9;" xml:space="preserve">
<style type="text/css">
	.st0{fill:#A25AC4;stroke:#A25AC4;stroke-width:0.5;stroke-miterlimit:10;}
</style>
<path class="st0" d="M5.1,23.3h2c1,0,1.8-1,1.8-2.3V12c0-0.2,0-0.3,0-0.5V11c0-4.9,5-8.9,11.1-8.9S31,6.2,31,11v0.6
	c0,0.1,0,0.3,0,0.4v8.9c0,1.3,0.8,2.3,1.8,2.3h2c1,0,1.8-1,1.8-2.3V12c0-1.3-0.8-2.4-1.8-2.4h-2c-0.8-5.3-6.3-9.4-12.9-9.4
	S7.9,4.4,7.1,9.6h-2c-1,0-1.8,1-1.8,2.4v8.9C3.3,22.2,4.1,23.3,5.1,23.3z M32.9,12.4L32.9,12.4v-0.8h1.6c0.1,0.1,0.1,0.3,0.1,0.5
	v8.9c0,0.2,0,0.3-0.1,0.5h-1.6c0-0.1,0-0.3,0-0.5V12.4z M5.2,12c0-0.2,0-0.3,0.1-0.5h1.6v0.8l0,0v8.6c0,0.2,0,0.3-0.1,0.5H5.2
	c-0.1-0.1-0.1-0.3-0.1-0.5L5.2,12z"/>
<path class="st0" d="M35.7,31.8c-0.2-0.3-0.5-0.5-0.8-0.7l0,0c-1.4-0.8-2.9-1.4-4.5-1.7c-2.2-0.5-4.2-0.9-5.7-2.9h-0.1
	c-0.1-0.3-0.1-1.3,1.3-3c3.2-3.9,2.5-10,2.2-11.8c-1-4.6-5.5-7.5-10-6.5c-3.3,0.7-5.8,3.2-6.5,6.5c-0.3,1.8-1,7.9,2.2,11.8
	c1.5,1.8,1.5,2.8,1.3,3.1l0,0c-1.5,2-3.5,2.5-5.7,2.9c-1.6,0.2-3.1,0.8-4.5,1.7c-3.4,2.4-2.6,7.5-2.6,7.8l0.1,0.7h35l0.1-0.7
	C37.6,38.7,38.2,34.4,35.7,31.8z M35.9,38h-32c-0.1-1.3,0.1-4.1,2-5.4c1.2-0.7,2.5-1.2,3.9-1.4c2.3-0.5,4.8-1.1,6.7-3.5
	c0.3-0.3,1.3-2-1.3-5.1c-2.8-3.3-2.1-8.8-1.9-10.4c0.7-3.1,3.5-5.3,6.6-5.2c3.2-0.1,6,2.1,6.7,5.2c0.3,1.6,0.9,7.1-1.8,10.4
	c-2.6,3.2-1.6,4.8-1.3,5.2c1.9,2.5,4.4,3,6.7,3.5c1.4,0.2,2.7,0.7,3.9,1.4c0.2,0.1,0.4,0.3,0.5,0.5C35.9,34.4,36,36.8,35.9,38z"/>
</svg>
