<svg id="Capa_1" data-name="Capa 1" xmlns="http://www.w3.org/2000/svg" viewBox="0 0 34.36 34.36"><defs><style>.cls-1{fill:#5baf07;}</style></defs><g id="elements"><path class="cls-1" d="M32,14.82A17.18,17.18,0,1,0,49.18,32,17.18,17.18,0,0,0,32,14.82ZM30.93,43v3.78A14.83,14.83,0,0,1,17.22,33.06h3.85V30.94H17.22A14.83,14.83,0,0,1,30.93,17.22v3.85h2.13V17.22A14.85,14.85,0,0,1,46.78,30.94H42.94v2.12h3.84A14.85,14.85,0,0,1,33.06,46.78V43Z" transform="translate(-14.82 -14.82)"/><path class="cls-1" d="M34.44,32.67a2,2,0,0,0,0-.35L39.69,27a1.39,1.39,0,0,0,0-2l0,0h0a1.39,1.39,0,0,0-2,0l0,0L32.5,30.29a2.51,2.51,0,0,0-1.09,0l-7.22-7.21a1.41,1.41,0,0,0-2,2h0l7.35,7.35v.26a2.44,2.44,0,0,0,4.88,0Z" transform="translate(-14.82 -14.82)"/></g></svg>