<?xml version="1.0" encoding="utf-8"?>
<!-- Generator: Adobe Illustrator 26.0.2, SVG Export Plug-In . SVG Version: 6.00 Build 0)  -->
<svg version="1.1" id="Capa_1" xmlns="http://www.w3.org/2000/svg" xmlns:xlink="http://www.w3.org/1999/xlink" x="0px" y="0px"
	 viewBox="0 0 42.8 42.7" style="enable-background:new 0 0 42.8 42.7;" xml:space="preserve">
<style type="text/css">
	.st0{fill:#FD7B17;}
</style>
<path class="st0" d="M39.3,22.8c-0.2-0.3-0.5-0.4-0.8-0.5c-0.3,0-0.6,0-0.9,0.2c-0.3,0.2-0.4,0.5-0.5,0.8c0,0.3,0,0.6,0.2,0.9
	c2.6,3.5,3.6,6.6,2.6,8.1c-2,3-11.8,1.3-22.8-6c-4.6-3-8.7-6.7-12.1-11C2.7,12,1.8,9.2,2.8,7.7s4.5-1.8,8.9-0.6
	c0.7,0.1,1.3-0.4,1.4-1c0.1-0.6-0.2-1.1-0.7-1.3c-5.7-1.6-9.8-1-11.5,1.6s-0.8,6.1,2.3,10.4c3.5,4.6,7.8,8.5,12.7,11.7
	c7.3,4.8,14.8,7.8,20.2,7.8c2.8,0,4.9-0.8,6-2.5C43.6,31.2,42.7,27.3,39.3,22.8z"/>
<path class="st0" d="M5.7,14l-0.2,0.4l2.1,1.1l0.2-0.4c0.3-0.5,0.6-1,1-1.5c0.1,0.6,0.5,1.1,1,1.4c1,0.5,2.3,0.4,3.3-0.1
	c0.3-0.1,0.5-0.2,0.8-0.3l0.1,0.3c0.2,1.2,0.5,3.1,2.4,3.7c0.7,0.2,1.4,0.1,2-0.3l0.4-0.1l0.9,0.3c0.7,0.3,1.4,0.4,2.1,0.5
	c0.2,0,0.5,0,0.7,0c1.2,0.1,2.4-0.5,3.2-1.4c0.4-0.5,0.6-1.2,0.5-1.9c-0.2-0.9-1-1.6-1.9-1.9c-0.2-0.1-0.4-0.2-0.6-0.3
	s-0.3-0.4-0.2-0.6c0.1-0.2,0.3-0.4,0.6-0.4c0.5,0,0.9-0.1,1.3-0.2c0.9-0.5,1.4-1.4,1.4-2.4c0.1-0.2,0.3-0.4,0.4-0.6
	c3.2,1.8,5.6,4.7,6.8,8.2c-1.5-0.3-3,0.3-4,1.5c-0.8,1-3.8,1.4-4.1,1.4c-0.7-0.2-1.5-0.2-2.3,0c-1,0.4-1.7,1.3-2.1,2.3
	c-0.3,0.7-0.3,1.5-0.1,2.2c0.7,1.7,2.4,1.8,3.5,1.9c0.6,0,1.2,0.3,1.6,0.8c-0.3,0.9,0.1,2,0.9,2.5c0.6,0.5,1.4,0.8,2.2,0.8
	c0.8,0,1.5-0.3,2-0.8c0.4-0.5,0.7-1,0.8-1.6l-0.5-0.2h0.5c0,0,0.3,0.1,0.6,0.2c-0.4,0.8-0.9,1.6-1.5,2.3l-0.3,0.4l1.9,1.5l0.3-0.4
	C35.7,29.4,37,25.8,37,22c0-9.1-7.5-16.6-16.7-16.6C14.2,5.4,8.6,8.7,5.7,14L5.7,14z M21,12.5c-0.3,1.2,0.1,2.4,1.1,3.1
	c0.3,0.2,0.6,0.4,1,0.6l0.4,0.2c-0.3,0.3-0.8,0.5-1.3,0.4h-0.3c-0.6-0.1-1.2-0.3-1.7-0.5l-1-0.3c-0.2,0-0.3-0.1-0.5-0.1
	c-0.5,0-1,0.1-1.4,0.4c-0.1,0-0.2,0.1-0.3,0.1c-0.4-0.2-0.5-0.7-0.7-1.8c-0.1-0.5-0.2-1-0.4-1.5l-0.2-0.5l-0.5-0.2
	c-1-0.3-2.1-0.2-3,0.3c-0.4,0.2-0.7,0.3-1.1,0.3l0,0c-0.1-0.7,0.1-1.4,0.3-2l0,0v-0.1c3.7-2.9,8.7-3.8,13.2-2.4
	c-0.1,0.4-0.2,0.8-0.3,1.2c0,0.2-0.1,0.4-0.1,0.6h-0.7C22.3,10.5,21.3,11.3,21,12.5z M28.5,26.6c-0.7-1.3-2.1-2.1-3.6-2.2
	c-0.7,0-1.3-0.1-1.4-0.4c0-0.1,0-0.2,0-0.3c0.3-0.8,0.6-0.9,0.7-1c0.3,0,0.7,0,1,0.1l0.5,0.1c2.3,0.3,4.5-0.6,6-2.3
	c0.8-0.6,1.9-0.8,2.8-0.3c0,0.3-0.1,1.1-0.1,1.7c0,1.4-0.2,2.8-0.6,4.2L33.4,26c-0.4-0.4-1-0.5-1.5-0.4c-0.8,0.2-1.5,0.7-1.8,1.5
	c-0.1,0.2-0.2,0.5-0.2,0.7s-0.1,0.4-0.2,0.6c-0.1,0.1-0.3,0.1-0.4,0c-0.2,0-0.4-0.1-0.6-0.3C28.9,27.6,28.8,27.1,28.5,26.6z"/>
<path class="st0" d="M26.6,34.9c-2.3,1.1-4.9,1.6-7.5,1.4c0.3-0.4,0.6-0.9,0.7-1.4c0.4-1.2,0-2.6-1-3.5c-0.8-0.5-1.7-0.8-2.7-0.6
	c-0.6,0-1.2,0.3-1.6,0.8c-0.1,0.1-0.1,0.2-0.1,0.3c-0.1-0.1-0.2-0.3-0.2-0.4c-0.4-1.3-1.5-2.3-2.9-2.6C11,27.2,9.4,26,7.7,26.3l0,0
	c-0.3,0.1-0.6,0.1-0.9,0.3c-0.5-1.5-0.8-3-0.8-4.5v-1.2l-2.4-0.1v1.3c0,9.2,7.5,16.7,16.7,16.7c2.6,0,5.1-0.6,7.4-1.7l0.4-0.2
	L27,34.7L26.6,34.9z M17.5,34.1L17.5,34.1c-0.2,0.6-0.6,1-1,1.5c0,0.1-0.1,0.1-0.1,0.2c-3.7-1.1-6.8-3.5-8.6-6.9
	c0.3-0.2,0.8-0.2,1,0.2c0.1,0.1,0.1,0.3,0.1,0.4c0,0.4,0.1,0.8,0.3,1.1c0.3,0.4,0.8,0.7,1.3,0.7l0.2,0.1c0.8,0.4,1.2,0.7,1.2,0.9
	c0.4,1.1,1.3,2,2.5,2.3c1,0.2,2-0.4,2.3-1.3c0.2,0,0.5,0,0.7,0.2C17.6,33.6,17.6,33.9,17.5,34.1z"/>
</svg>
