<?xml version="1.0" encoding="utf-8"?>
<!-- Generator: Adobe Illustrator 26.0.2, SVG Export Plug-In . SVG Version: 6.00 Build 0)  -->
<svg version="1.1" id="Capa_1" xmlns="http://www.w3.org/2000/svg" xmlns:xlink="http://www.w3.org/1999/xlink" x="0px" y="0px"
	 viewBox="0 0 45.8 45.6" style="enable-background:new 0 0 45.8 45.6;" xml:space="preserve">
<style type="text/css">
	.st0{fill:#A25AC4;stroke:#A25AC4;stroke-width:0.5;stroke-miterlimit:10;}
</style>
<g id="elements">
	<path class="st0" d="M38.7,36.1h-0.4v-0.3c0-1.6-1.3-2.8-2.8-2.8h-0.2c-1.6,0-2.8,1.3-2.8,2.8v0.3h-0.2V24.2c0-1.3-0.6-2.4-1.7-3.1
		v-0.9c0-0.5-0.1-0.9-0.4-1.4c0.9-0.4,1.6-1.3,1.6-2.3V9.3c0-0.6-0.2-1.2-0.6-1.7l-3.9-5.1c-0.6-0.8-1.6-1.3-2.6-1.3H12.4V1
		c0-0.4-0.3-0.8-0.8-0.8H7.3v1.5h3.5v8.1H7.3v1.5h4.3c0.4,0,0.8-0.3,0.8-0.8V9.9h0.8c1.1,2.3,3.2,3.8,5.8,4.1l3.9,4.5
		c0.5,0.6,1.2,0.9,1.9,1l0,0c-0.1,0.2-0.1,0.5-0.1,0.8v0.9c-1.1,0.7-1.7,1.9-1.7,3.1v4h-0.2v-0.3c0-1.6-1.3-2.8-2.8-2.8h-0.2
		c-1.6,0-2.8,1.3-2.8,2.8v0.3h-0.4c-0.7,0-1.3,0.6-1.3,1.3c0,0,0,0,0,0v6.5h-0.2v-0.3c0-1.6-1.3-2.8-2.8-2.8h-0.2
		C10.3,33,9,34.3,9,35.8v0.3H8.6c-0.7,0-1.3,0.6-1.3,1.3l0,0l0,0v6.8c0,0.7,0.6,1.3,1.3,1.3c0,0,0,0,0,0h30.1c0.7,0,1.3-0.6,1.3-1.3
		l0,0l0,0v-6.8C39.9,36.6,39.4,36.1,38.7,36.1L38.7,36.1z M33.9,35.8c0-0.7,0.6-1.3,1.3-1.3h0.2c0.7,0,1.3,0.6,1.3,1.3v0.3h-2.9
		V35.8z M12.4,2.8h12.2c0.6,0,1.1,0.3,1.4,0.7l3.9,5.1c0.2,0.2,0.3,0.5,0.3,0.8v7.2c0,0.6-0.4,1-1,1s-1-0.4-1-1v-5.9
		c0-0.2-0.1-0.3-0.2-0.5l-2-2.5c-0.1-0.2-0.4-0.3-0.6-0.3h-1.6c-1,0-1.8,0.8-1.8,1.8v2c0,0.2,0.1,0.4,0.2,0.5l3.7,4.2
		c0.4,0.5,0.4,1.3-0.2,1.8c-0.3,0.2-0.6,0.3-0.9,0.3c-0.3,0-0.7-0.2-0.9-0.5l-4.1-4.7c-0.1-0.2-0.4-0.3-0.6-0.3
		c-2.2-0.1-4.1-1.5-4.9-3.5c-0.1-0.3-0.4-0.5-0.7-0.5h-1.3V2.8z M23.5,9.1c0-0.1,0.1-0.2,0.2-0.2h1.2l1.6,2v3.4l-3-3.4L23.5,9.1z
		 M26,20.5v-0.3c0-0.7,0.6-1.3,1.3-1.3h0.2c0.7,0,1.3,0.6,1.3,1.3v0.3H26z M24.3,24.2c0-1.2,1-2.2,2.2-2.2h1.8c1.2,0,2.2,1,2.2,2.2
		v4h-0.1v-0.3c0-1.6-1.3-2.8-2.8-2.8h-0.3c-1.6,0-2.8,1.3-2.8,2.8v0.3h-0.2L24.3,24.2z M28.9,28.2h-2.8v-0.3c0-0.7,0.6-1.3,1.3-1.3
		h0.2c0.7,0,1.3,0.6,1.3,1.3L28.9,28.2z M18.2,27.9c0-0.7,0.6-1.3,1.3-1.3h0.2c0.7,0,1.3,0.6,1.3,1.3v0.3h-2.8L18.2,27.9z
		 M16.5,29.7h14.2V36h-0.2v-0.3c0-1.6-1.3-2.8-2.8-2.8h-0.3c-1.6,0-2.8,1.3-2.8,2.8V36h-1.9v-0.3c0-1.6-1.3-2.8-2.8-2.8h-0.2
		c-1.6,0-2.8,1.3-2.8,2.8V36h-0.2L16.5,29.7z M28.9,36h-2.8v-0.3c0-0.7,0.6-1.3,1.3-1.3h0.2c0.7,0,1.3,0.6,1.3,1.3L28.9,36z
		 M21.1,36h-2.8v-0.3c0-0.7,0.6-1.3,1.3-1.3h0.2c0.7,0,1.3,0.6,1.3,1.3L21.1,36z M10.5,35.8c0-0.7,0.6-1.3,1.3-1.3H12
		c0.7,0,1.3,0.6,1.3,1.3v0.3h-2.9V35.8z M8.8,37.5h14.1v6.3H8.8V37.5z M38.5,43.8H24.4v-6.3h14.1V43.8z"/>
</g>
</svg>
