<?xml version="1.0" encoding="utf-8"?>
<!-- Generator: Adobe Illustrator 26.0.2, SVG Export Plug-In . SVG Version: 6.00 Build 0)  -->
<svg version="1.1" id="Capa_1" xmlns="http://www.w3.org/2000/svg" xmlns:xlink="http://www.w3.org/1999/xlink" x="0px" y="0px"
	 viewBox="0 0 26.2 26.8" style="enable-background:new 0 0 26.2 26.8;" xml:space="preserve">
<style type="text/css">
	.st0{fill:#A25AC4;}
</style>
<g id="Capa_2_00000034774009639376895730000006766030607788128171_">
	<g id="Capa_1-2">
		<g id="Capa_2-2">
			<g id="Capa_1-2-2">
				<g id="Capa_2-2-2">
					<g id="Capa_1-2-2-2">
						<g id="elements">
							<path class="st0" d="M9,19.6h8.7c1.2,0,2.1-0.7,2.2-1.6c0-0.1,0-0.3-0.1-0.4l-0.9-3.6c-0.1-0.3-0.3-0.6-0.6-0.9
								c-0.3-0.2-0.6-0.3-0.9-0.3L17.1,1.3c0-0.4-0.2-0.8-0.6-1C16.3,0.1,15.9,0,15.5,0l0,0L11,0.1c-0.4,0-0.8,0.2-1.2,0.4
								C9.5,0.6,9.3,1,9.3,1.3l0.1,11.5c-0.7,0.1-1.3,0.6-1.5,1.2l-1,3.6c-0.2,0.9,0.5,1.7,1.7,1.9L9,19.6z M15.6,1.2L15.6,1.2
								l0.1,11.4H11L10.9,1.3c0,0,0-0.1,0.1-0.1L15.6,1.2C15.5,1.2,15.5,1.2,15.6,1.2z M8.4,18h9.8c0,0-0.1,0.1-0.1,0.1l0,0
								c-0.1,0.1-0.3,0.2-0.4,0.2H8.9C8.7,18.4,8.5,18.3,8.4,18L8.4,18L8.4,18L8.4,18z M8.7,16.8l0.7-2.6c0.1-0.2,0.4-0.4,0.6-0.3
								h6.8c0.2,0,0.4,0.1,0.5,0.3l0.8,2.6L8.7,16.8z"/>
							<path class="st0" d="M12.1,8.1c0.3,0.2,0.7,0.3,1.2,0.3l0,0C14.1,8.5,14.8,8,15,7.2V5.3c0-0.4-0.2-0.8-0.6-1
								c-0.7-0.5-1.7-0.4-2.4,0.1c-0.3,0.2-0.4,0.5-0.4,0.8v1.9C11.6,7.6,11.8,7.9,12.1,8.1z M13.3,7.5l-0.1-0.3V6.8h0.2v0.3
								c0,0,0,0-0.1,0l0,0L13.3,7.5z M13.1,5.7V5.3h0.2v0.4H13.1z"/>
							<path class="st0" d="M13.9,21c-0.1-0.1-0.3-0.2-0.5-0.2l0,0c-0.4,0-0.8,0.3-0.8,0.6l0,0v4.8c0,0.3,0.4,0.6,0.8,0.6l0,0
								c0.4,0,0.7-0.2,0.8-0.6v-4.9C14.1,21.2,14,21.1,13.9,21z"/>
							<path class="st0" d="M20.5,23.5l-2.9-2.6h-0.2c-0.3-0.2-0.7-0.2-1.1,0c-0.2,0.1-0.3,0.4-0.2,0.6c0,0.1,0.1,0.1,0.1,0.2
								l0.1,0.1l0,0l2.9,2.6c0.3,0.2,0.7,0.3,1,0.1h0.1l0,0c0.4-0.1,0.5-0.4,0.4-0.7l0,0C20.6,23.6,20.6,23.5,20.5,23.5L20.5,23.5z"
								/>
							<path class="st0" d="M10.1,20.9c-0.3-0.2-0.7-0.2-1,0L9,21l-2.8,2.6C6,23.6,5.9,23.8,6,24c0.1,0.4,0.4,0.6,0.8,0.5h0.1
								c0.2,0,0.4-0.1,0.6-0.2l2.9-2.6c0.2-0.2,0.2-0.5,0.1-0.7c0-0.1-0.1-0.1-0.2-0.1L10.1,20.9z"/>
						</g>
					</g>
				</g>
			</g>
		</g>
	</g>
</g>
</svg>
