<?xml version="1.0" encoding="utf-8"?>
<!-- Generator: Adobe Illustrator 26.0.2, SVG Export Plug-In . SVG Version: 6.00 Build 0)  -->
<svg version="1.1" id="Capa_1" xmlns="http://www.w3.org/2000/svg" xmlns:xlink="http://www.w3.org/1999/xlink" x="0px" y="0px"
	 viewBox="0 0 44.2 44.3" style="enable-background:new 0 0 44.2 44.3;" xml:space="preserve">
<style type="text/css">
	.st0{fill:#0065AB;}
</style>
<path class="st0" d="M10.7,29.5c3.7,0,6.7-3,6.7-6.7V9.5c0-3.7-3-6.7-6.7-6.7S4,5.8,4,9.5v13.3C4,26.5,7,29.5,10.7,29.5z M5.4,20.6
	h3c0.4,0,0.7-0.4,0.6-0.8c0-0.3-0.3-0.6-0.6-0.6h-3v-2.6h3c0.4,0,0.7-0.3,0.7-0.7c0-0.4-0.3-0.7-0.7-0.7h-3v-2.5h3
	c0.4,0,0.7-0.4,0.6-0.8c0-0.3-0.3-0.6-0.6-0.6h-3V9.5c0.1-2.9,2.6-5.1,5.5-5c2.7,0.1,4.9,2.3,5,5v1.7h-3.1c-0.4-0.1-0.8,0.2-0.8,0.6
	c0,0,0,0,0,0c0,0.4,0.2,0.8,0.6,0.8h3.2v2.5h-3c-0.4,0-0.7,0.3-0.7,0.7s0.3,0.7,0.7,0.7h3v2.5h-3c-0.4-0.1-0.8,0.2-0.8,0.6
	c0,0,0,0,0,0c0,0.4,0.2,0.8,0.6,0.8h3.2v2.2c0.1,2.9-2.1,5.3-5,5.5c-2.9,0.1-5.3-2.1-5.5-5c0,0,0,0,0,0c0-0.2,0-0.3,0-0.5L5.4,20.6z
	"/>
<path class="st0" d="M10.7,29.8c-3.8,0-7-3.1-7-7V9.5c0-3.9,3.1-7,7-7s7,3.1,7,7v13.3C17.6,26.7,14.5,29.8,10.7,29.8
	C10.7,29.8,10.7,29.8,10.7,29.8z M10.7,3.1C7.1,3.1,4.2,6,4.2,9.5v13.3c0,3.6,2.9,6.4,6.4,6.4s6.4-2.9,6.4-6.4V9.5
	C17.1,6,14.2,3.1,10.7,3.1z M10.7,28.3c-3,0-5.5-2.5-5.5-5.5l0,0l0,0v-2.5h3.2c0.3,0,0.4-0.3,0.4-0.5c0-0.2-0.2-0.4-0.4-0.4H5.2
	v-3.1h3.2c0.3,0,0.5-0.2,0.5-0.5s-0.2-0.5-0.5-0.5H5.2v-3.1h3.2c0.3,0,0.4-0.3,0.4-0.5c0-0.2-0.2-0.4-0.4-0.4H5.2V9.5
	c0.1-3,2.7-5.4,5.7-5.3c2.8,0.1,5.1,2.4,5.3,5.3v1.9h-3.3c-0.3,0-0.5,0.2-0.5,0.4c0,0.2,0.1,0.5,0.4,0.5h3.5v3.1h-3.3
	c-0.3,0-0.5,0.2-0.5,0.5s0.2,0.5,0.5,0.5h3.3v3.1h-3.3c-0.3,0-0.5,0.2-0.5,0.4c0,0.2,0.1,0.5,0.4,0.5c0,0,0.1,0,0.1,0h3.3v2.5
	C16.2,25.9,13.7,28.4,10.7,28.3C10.7,28.4,10.7,28.4,10.7,28.3L10.7,28.3L10.7,28.3z M5.7,20.8v2c-0.1,2.7,2,5.1,4.7,5.2
	c2.7,0.1,5.1-2,5.2-4.7c0-0.2,0-0.3,0-0.5v-1.9h-2.8c-0.6,0.1-1.1-0.3-1.1-0.9c-0.1-0.6,0.3-1.1,0.9-1.1c0,0,0,0,0,0h3v-2h-2.8
	c-0.6,0-1-0.4-1-1c0-0.6,0.4-1,1-1h2.8v-2h-2.8c-0.6,0.1-1.1-0.3-1.1-0.9s0.3-1.1,0.9-1.1c0,0,0,0,0,0h3V9.5
	c-0.1-2.7-2.5-4.9-5.2-4.7C7.9,4.9,5.8,7,5.7,9.5v1.4h2.7C8.9,11,9.3,11.4,9.3,12c-0.1,0.5-0.4,0.8-0.9,0.9H5.7v2h2.7
	c0.6,0,1,0.4,1,1c0,0.6-0.4,1-1,1H5.7v2h2.7c0.5,0.1,0.9,0.5,0.9,1.1c-0.1,0.5-0.4,0.8-0.9,0.9L5.7,20.8z"/>
<path class="st0" d="M11.6,33.1c5.4-0.5,9.5-5,9.5-10.4c0-0.4-0.4-0.7-0.8-0.6c-0.3,0-0.6,0.3-0.6,0.6c-0.2,4.9-4.3,8.8-9.3,8.6
	c-4.7-0.2-8.5-3.9-8.6-8.6C1.7,22.3,1.4,22,1,22c-0.4,0-0.7,0.3-0.7,0.7c0,5.4,4.1,9.9,9.5,10.4h0.2v6.5H5.5c-0.4,0-0.7,0.4-0.6,0.8
	c0,0.3,0.3,0.6,0.6,0.6h10.3c0.4,0.1,0.8-0.2,0.8-0.6c0,0,0,0,0,0c0-0.4-0.2-0.8-0.6-0.8h-4.6v-6.4L11.6,33.1z"/>
<path class="st0" d="M15.8,41.3H5.5c-0.5-0.1-0.9-0.5-0.9-1.1c0.1-0.5,0.4-0.8,0.9-0.9h4.1v-6C4.2,32.8,0,28.2,0,22.7
	c0-0.6,0.4-1,1-1c0.6,0,1,0.4,1,1c0.2,4.8,4.2,8.5,9,8.4c4.6-0.2,8.2-3.8,8.4-8.4c0.1-0.5,0.5-0.9,1.1-0.9c0.5,0.1,0.8,0.4,0.9,0.9
	c0,5.5-4.2,10.1-9.7,10.6v6h4.1c0.6-0.1,1.1,0.3,1.1,0.9c0.1,0.6-0.3,1.1-0.9,1.1c0,0,0,0,0,0H15.8L15.8,41.3z M5.5,39.9
	c-0.3,0-0.4,0.3-0.4,0.5c0,0.2,0.2,0.4,0.4,0.4h10.3c0.3,0,0.5-0.1,0.5-0.4c0-0.3-0.1-0.5-0.4-0.5c0,0,0,0,0,0h-4.8v-7h0.4
	c5.2-0.5,9.2-4.9,9.2-10.1c0-0.3-0.2-0.5-0.5-0.5c-0.3,0-0.5,0.2-0.5,0.5l0,0l0,0c-0.2,5.1-4.4,9.1-9.5,8.9
	c-4.8-0.2-8.7-4.1-8.9-8.9c0-0.3-0.2-0.5-0.5-0.5c-0.3,0-0.5,0.2-0.5,0.5c0,5.2,4,9.6,9.2,10.1h0.4v7L5.5,39.9z"/>
<path class="st0" d="M33.5,29.5c3.7,0,6.7-3,6.7-6.7l0,0l0,0V9.5c0-3.7-3-6.7-6.7-6.7s-6.7,3-6.7,6.7v13.3
	C26.8,26.5,29.8,29.5,33.5,29.5z M28.3,20.6h2.9c0.4,0,0.7-0.4,0.6-0.8c0-0.3-0.3-0.6-0.6-0.6h-2.9v-2.6h2.9c0.4,0,0.7-0.3,0.7-0.7
	c0-0.4-0.3-0.7-0.7-0.7h-2.9v-2.5h2.9c0.4-0.1,0.6-0.5,0.5-0.9c-0.1-0.2-0.3-0.4-0.5-0.5h-2.9V9.5c0.1-2.9,2.6-5.1,5.5-5
	c2.7,0.1,4.9,2.3,5,5v1.7h-3.1c-0.4,0-0.7,0.4-0.6,0.8c0,0.3,0.3,0.6,0.6,0.6h3v2.5h-3c-0.4,0-0.7,0.3-0.7,0.7s0.3,0.7,0.7,0.7h3
	v2.5h-3c-0.4,0-0.7,0.4-0.6,0.8c0,0.3,0.3,0.6,0.6,0.6h3v2.2c0.1,2.9-2.1,5.3-5,5.5c-2.9,0.1-5.3-2.1-5.5-5c0,0,0,0,0,0
	c0-0.2,0-0.3,0-0.5L28.3,20.6z"/>
<path class="st0" d="M33.5,29.8c-3.8,0-7-3.1-7-7V9.5c0-3.9,3.1-7,7-7s7,3.1,7,7v13.3C40.5,26.7,37.3,29.8,33.5,29.8
	C33.5,29.8,33.5,29.8,33.5,29.8z M33.5,3.1C29.9,3.1,27,6,27,9.5v13.3c0,3.6,2.9,6.4,6.4,6.4s6.4-2.9,6.4-6.4V9.5
	C39.9,6,37,3.1,33.5,3.1z M33.5,28.3c-3,0-5.5-2.5-5.5-5.5v-2.5h3.2c0.3,0,0.4-0.3,0.4-0.5c0-0.2-0.2-0.4-0.4-0.4H28v-3.1h3.2
	c0.3,0,0.5-0.2,0.5-0.5s-0.2-0.5-0.5-0.5H28v-3.1h3.2c0.3,0,0.4-0.3,0.4-0.5c0-0.2-0.2-0.4-0.4-0.4H28V9.5c0.1-3,2.7-5.4,5.7-5.3
	c2.8,0.1,5.1,2.4,5.3,5.3v1.9h-3.3c-0.3,0-0.4,0.3-0.4,0.5c0,0.2,0.2,0.4,0.4,0.4H39v3.1h-3.3c-0.3,0-0.5,0.2-0.5,0.5
	s0.2,0.5,0.5,0.5H39v3.1h-3.3c-0.3,0-0.4,0.3-0.4,0.5c0,0.2,0.2,0.4,0.4,0.4H39v2.5C39,25.9,36.5,28.4,33.5,28.3
	C33.5,28.4,33.5,28.4,33.5,28.3L33.5,28.3L33.5,28.3z M28.5,20.8v2c-0.1,2.7,2,5.1,4.7,5.2c2.7,0.1,5.1-2,5.2-4.7c0,0,0,0,0,0
	c0-0.2,0-0.3,0-0.5v-1.9h-2.8c-0.5-0.1-0.9-0.5-0.9-1.1c0.1-0.5,0.4-0.8,0.9-0.9h2.8v-2h-2.8c-0.6,0-1-0.4-1-1c0-0.6,0.4-1,1-1l0,0
	h2.8v-2h-2.8c-0.5-0.1-0.9-0.5-0.9-1.1c0.1-0.5,0.4-0.8,0.9-0.9h2.8V9.5c-0.1-2.7-2.5-4.9-5.2-4.7c-2.6,0.1-4.6,2.2-4.7,4.7v1.4h2.7
	c0.5,0.1,0.9,0.5,0.9,1.1c-0.1,0.5-0.4,0.8-0.9,0.9h-2.7v2h2.7c0.6,0,1,0.4,1,1c0,0.6-0.4,1-1,1h-2.7v2h2.7c0.5,0.1,0.9,0.5,0.9,1.1
	c0,0.5-0.4,0.9-0.9,1L28.5,20.8z"/>
<path class="st0" d="M34.4,33.1c5.4-0.5,9.5-5,9.5-10.4c0-0.4-0.3-0.7-0.7-0.7s-0.7,0.3-0.7,0.7c-0.2,4.9-4.3,8.8-9.3,8.6
	c-4.7-0.2-8.5-3.9-8.6-8.6c0-0.4-0.4-0.7-0.8-0.6c-0.3,0-0.6,0.3-0.6,0.6c0,5.4,4.1,9.9,9.5,10.4h0.2v6.5h-4.4
	c-0.4-0.1-0.8,0.2-0.8,0.6c0,0,0,0,0,0c0,0.4,0.2,0.8,0.6,0.8c0.1,0,0.1,0,0.2,0h10.3c0.4,0,0.7-0.4,0.6-0.8c0-0.3-0.3-0.6-0.6-0.6
	h-4.4v-6.4L34.4,33.1z"/>
<path class="st0" d="M38.6,41.3H28.3c-0.6,0-1-0.4-1.1-0.9c0-0.5,0.3-1,0.9-1.1h4.3v-6c-5.5-0.5-9.6-5.1-9.7-10.6
	c0.1-0.5,0.5-0.9,1.1-0.9c0.5,0.1,0.8,0.4,0.9,0.9c0.2,4.8,4.2,8.5,9,8.4c4.6-0.2,8.2-3.8,8.4-8.4c0-0.6,0.4-1,1-1c0.6,0,1,0.4,1,1
	c0,5.5-4.2,10.1-9.7,10.6v6h4.2c0.5,0.1,0.9,0.5,0.9,1.1C39.5,40.9,39.2,41.2,38.6,41.3L38.6,41.3z M28.3,39.9
	c-0.3,0-0.5,0.1-0.5,0.4c0,0.3,0.1,0.5,0.4,0.5c0,0,0,0,0,0h10.4c0.3,0,0.4-0.3,0.4-0.5c0-0.2-0.2-0.4-0.4-0.4h-4.7v-7h0.5
	c5.2-0.5,9.2-4.9,9.2-10.1c0-0.3-0.2-0.5-0.5-0.5s-0.5,0.2-0.5,0.5c-0.2,5.1-4.4,9.1-9.5,8.9c-4.8-0.2-8.7-4.1-8.9-8.9
	c0-0.3-0.2-0.5-0.5-0.5l0,0l0,0c-0.3,0-0.5,0.2-0.5,0.5c0,5.2,4,9.6,9.2,10.1h0.4v7H28.3z"/>
</svg>
