<?xml version="1.0" encoding="utf-8"?>
<!-- Generator: Adobe Illustrator 26.0.3, SVG Export Plug-In . SVG Version: 6.00 Build 0)  -->
<svg version="1.1" id="Capa_1" xmlns="http://www.w3.org/2000/svg" xmlns:xlink="http://www.w3.org/1999/xlink" x="0px" y="0px"
	 viewBox="0 0 48 48" style="enable-background:new 0 0 48 48;" xml:space="preserve">
<style type="text/css">
	.st0{fill:none;}
	.st1{fill:#FD8417;}
</style>
<path class="st0" d="M0,0h48v48H0V0z"/>
<path class="st1" d="M37.1,23.5c-1.2,0-2.2,1.1-2.2,2.4v4.7h-4.4c-1.2,0-2.2,1.1-2.2,2.4c0,1.3,1,2.4,2.2,2.4h6.5
	c1.2,0,2.2-1.1,2.2-2.4v-7.1C39.3,24.6,38.3,23.5,37.1,23.5z M13.1,16.5h4.4c1.2,0,2.2-1.1,2.2-2.4s-1-2.4-2.2-2.4h-6.5
	c-1.2,0-2.2,1.1-2.2,2.4v7.1c0,1.3,1,2.4,2.2,2.4s2.2-1.1,2.2-2.4V16.5z M43.6,2.3H4.4C2,2.3,0,4.5,0,7V40c0,2.6,2,4.7,4.4,4.7h39.3
	c2.4,0,4.4-2.1,4.4-4.7V7C48,4.5,46,2.3,43.6,2.3z M41.5,40H6.5c-1.2,0-2.2-1.1-2.2-2.4V9.4c0-1.3,1-2.4,2.2-2.4h34.9
	c1.2,0,2.2,1.1,2.2,2.4v28.3C43.6,38.9,42.7,40,41.5,40z"/>
</svg>
