<?xml version="1.0" encoding="utf-8"?>
<!-- Generator: Adobe Illustrator 26.0.2, SVG Export Plug-In . SVG Version: 6.00 Build 0)  -->
<svg version="1.1" id="Capa_1" xmlns="http://www.w3.org/2000/svg" xmlns:xlink="http://www.w3.org/1999/xlink" x="0px" y="0px"
	 viewBox="0 0 46.2 46.3" style="enable-background:new 0 0 46.2 46.3;" xml:space="preserve">
<style type="text/css">
	.st0{fill:#A25AC4;}
	.st1{fill:#FFFFFF;}
</style>
<path class="st0" d="M11.3,11.4c0-4.5,2.5-8.6,6.6-10.6C11.9,2.1,6,5.7,0,11.4c6,5.8,11.9,9.3,17.9,10.6
	C13.8,20,11.3,15.9,11.3,11.4"/>
<path class="st0" d="M34.9,11.4c0,4.5-2.5,8.6-6.6,10.6c6-1.3,11.9-4.9,17.9-10.6c-6-5.7-11.9-9.3-17.9-10.6
	C32.4,2.8,34.9,6.9,34.9,11.4"/>
<path class="st0" d="M23.1,20.3c4.9,0,8.9-4,8.9-8.9s-4-8.9-8.9-8.9s-8.9,4-8.9,8.9S18.2,20.3,23.1,20.3L23.1,20.3L23.1,20.3"/>
<path class="st0" d="M33.7,34.2v-0.4c0-1.2-0.9-2.1-2.1-2.1c-0.3,0-0.6,0.1-0.9,0.2c-0.2-1-1-1.8-2.1-1.8c-0.3,0-0.6,0.1-0.9,0.2
	c-0.2-1.1-1.2-1.9-2.4-1.7c-0.2,0-0.4,0.1-0.5,0.2V24c0.1-1.2-0.8-2.1-1.9-2.2c-1.2-0.1-2.1,0.8-2.2,1.9c0,0.1,0,0.2,0,0.3v8.7
	c-1.4-1.9-2.7-2.1-3.2-2.1c-0.6,0-1.2,0.3-1.5,0.8c-0.3,0.5-0.2,1.2,0.1,1.7c0.8,1.4,1.4,3,1.6,4.7c0.3,1.7,1,3.4,2.1,4.7
	c0.5,0.5,0.8,1.1,1.1,1.8c0.2,0.7,0.8,1.1,1.5,1.1h8c0.8,0,1.5-0.6,1.6-1.3c0.1-0.6,0.3-1.2,0.5-1.7C33.7,40,33.7,35.9,33.7,34.2z
	 M22.8,23.2c0.5,0,0.9,0.4,0.9,0.8v6.6c0,0.3,0.3,0.6,0.6,0.6c0.3,0,0.6-0.3,0.6-0.6c0,0,0,0,0,0c0-0.5,0.4-0.8,0.9-0.8
	c0.5,0,0.8,0.4,0.8,0.8v1.6c0,0.3,0.3,0.6,0.6,0.6l0,0l0,0c0.3,0,0.6-0.3,0.6-0.6c0,0,0,0,0,0l0,0c0-0.5,0.4-0.8,0.9-0.8
	c0.5,0,0.8,0.4,0.8,0.8v1.6c0,0.3,0.4,0.6,0.7,0.5c0.3,0,0.5-0.3,0.5-0.5c0-0.5,0.4-0.8,0.9-0.8c0.5,0,0.8,0.4,0.8,0.8v0.4
	c0,1.7,0,5.5-1.1,7.5c-0.3,0.7-0.6,1.4-0.7,2.1c0,0.2-0.2,0.3-0.3,0.3h-8c-0.2,0-0.3-0.1-0.3-0.2c-0.3-0.9-0.7-1.6-1.4-2.3
	c-1-1.2-1.6-2.6-1.8-4.1c-0.2-1.8-0.8-3.5-1.7-5c-0.1-0.1-0.1-0.3,0-0.4c0.1-0.1,0.3-0.2,0.5-0.2c0.7,0,2,0.9,3.3,3.4
	c0.1,0.3,0.4,0.4,0.7,0.3c0.3-0.1,0.5-0.3,0.5-0.6V24C22,23.6,22.4,23.2,22.8,23.2z"/>
<circle class="st1" cx="22.8" cy="11.4" r="3.6"/>
</svg>
