<?xml version="1.0" encoding="utf-8"?>
<!-- Generator: Adobe Illustrator 26.0.2, SVG Export Plug-In . SVG Version: 6.00 Build 0)  -->
<svg version="1.1" id="Capa_1" xmlns="http://www.w3.org/2000/svg" xmlns:xlink="http://www.w3.org/1999/xlink" x="0px" y="0px"
	 viewBox="0 0 46.5 46" style="enable-background:new 0 0 46.5 46;" xml:space="preserve">
<style type="text/css">
	.st0{fill:#FD8417;}
</style>
<g id="Capa_2_00000114761114633850016740000008187340478210897572_">
	<g id="Capa_1-2">
		<g id="elements">
			<path class="st0" d="M41,23.5l-2.7-5v-3.3C38.3,6.8,31.5,0,23.1,0C14.8,0,8,6.8,8,15.2v2.6c0,3.2,1,6.3,2.8,8.9v11
				c-0.1,0.4,0.1,0.8,0.5,1l0.7,0.4l0.1-0.1L28,45.9c0.2,0.1,0.3,0.1,0.5,0.1c0.7,0,1.2-0.5,1.2-1.2l0,0l0,0v-8.2c0,0,0-0.1,0.1-0.1
				l0,0h2.6c3.3,0,5.9-2.7,5.9-5.9v-2.7h0.1c1.7,0,3-1.3,3-3C41.4,24.3,41.2,23.9,41,23.5z M23.1,2.5c7,0,12.7,5.7,12.7,12.7v3.7
				c0,0.2,0.1,0.4,0.1,0.6l2.9,5.2c0.1,0.3,0,0.6-0.2,0.7c-0.1,0-0.2,0.1-0.3,0.1H37c-0.7,0-1.2,0.5-1.2,1.2v4
				c0,1.9-1.6,3.5-3.5,3.5h-2.6c-1.4,0-2.5,1.1-2.5,2.5V43l-13.8-6l-0.3-0.1V26.2c0-0.3-0.1-0.5-0.2-0.7c-1.7-2.3-2.6-5-2.6-7.8
				v-2.6C10.4,8.1,16.1,2.4,23.1,2.5L23.1,2.5z"/>
			<path class="st0" d="M14.4,18.6h0.3l-0.2,0.3c-0.8,0.9-0.8,2.3,0.1,3.2l1.6,1.5c0.9,0.8,2.3,0.9,3.2,0.1l0.3-0.2v0.4
				c0.1,1.2,1.1,2.2,2.4,2.2h2.2c1.2,0,2.2-1,2.4-2.2v-0.3l0.3,0.2c0.9,0.8,2.3,0.8,3.2-0.1l1.6-1.6c0.8-0.9,0.8-2.3,0-3.2l-0.2-0.3
				h0.3c1.2-0.1,2.2-1.1,2.2-2.3v-2.2c0-1.2-1-2.2-2.2-2.3h-0.3l0.2-0.3c0.9-0.9,0.9-2.4,0-3.3l-1.6-1.5c-0.9-0.8-2.3-0.9-3.2-0.1
				l-0.3,0.2V6.5c-0.1-1.2-1.1-2.2-2.3-2.2H22c-1.2,0.1-2.2,1-2.3,2.2v0.3l-0.3-0.2c-0.9-0.8-2.3-0.8-3.2,0.1l-1.6,1.5
				c-0.8,0.9-0.9,2.3-0.1,3.2l0.2,0.3h-0.3c-1.2,0.1-2.2,1.1-2.2,2.3v2.2C12.2,17.5,13.2,18.5,14.4,18.6z M15.8,14
				c0.5-0.1,0.9-0.4,1-0.8c0.1-0.3,0.3-0.7,0.4-1c0.2-0.4,0.2-0.9-0.1-1.3L16.4,10V9.9l1.4-1.4h0.1l0.9,0.7c0.4,0.3,0.9,0.3,1.3,0.1
				c0.3-0.2,0.7-0.3,1-0.4c0.4-0.1,0.8-0.5,0.8-1L22,6.8V6.7h2v0.1L24.3,8c0.1,0.5,0.4,0.9,0.8,1c0.3,0.1,0.7,0.3,1,0.4
				c0.4,0.2,0.9,0.2,1.3-0.1l0.9-0.7h0.1l1.4,1.4c0,0,0,0.1-0.1,0.1L29.1,11c-0.3,0.4-0.3,0.9-0.1,1.3c0.2,0.3,0.3,0.7,0.4,1
				c0.1,0.4,0.5,0.8,1,0.8l1.1,0.1h0.1v2h-0.1l-1.1,0.1c-0.5,0.1-0.9,0.4-1,0.8c-0.1,0.3-0.3,0.7-0.4,1c-0.2,0.4-0.2,0.9,0.1,1.3
				l0.7,0.9l0.1,0.1L28.5,22h-0.1l-0.9-0.7c-0.4-0.3-0.9-0.4-1.3-0.1c-0.3,0.2-0.7,0.3-1,0.4c-0.5,0.1-0.8,0.5-0.8,1l-0.1,1.1v0.1
				h-2v-0.1L22,22.5c-0.1-0.5-0.4-0.9-0.8-1c-0.3-0.1-0.7-0.3-1-0.4c-0.4-0.2-0.9-0.2-1.3,0.1L18,21.9L17.9,22l-1.4-1.5
				c0,0,0-0.1,0.1-0.1l0.7-0.9c0.3-0.4,0.3-0.9,0.1-1.3c-0.2-0.3-0.3-0.7-0.4-1c-0.1-0.5-0.5-0.8-1-0.8l-1.2-0.1h-0.1v-2h0.1
				L15.8,14z"/>
			<path class="st0" d="M23.1,20c2.6,0,4.8-2.1,4.8-4.8s-2.1-4.8-4.8-4.8s-4.8,2.1-4.8,4.8S20.5,20,23.1,20L23.1,20z M20.7,15.2
				c0-1.3,1.1-2.4,2.4-2.4c1.3,0,2.4,1.1,2.4,2.4c0,0.6-0.3,1.3-0.7,1.7l0,0c-0.9,0.9-2.4,0.9-3.4,0C20.9,16.5,20.7,15.8,20.7,15.2z
				"/>
		</g>
	</g>
</g>
</svg>
