<?xml version="1.0" encoding="utf-8"?>
<!-- Generator: Adobe Illustrator 26.0.2, SVG Export Plug-In . SVG Version: 6.00 Build 0)  -->
<svg version="1.1" id="back" xmlns="http://www.w3.org/2000/svg" xmlns:xlink="http://www.w3.org/1999/xlink" x="0px" y="0px"
	 viewBox="0 0 42 42.2" style="enable-background:new 0 0 42 42.2;" xml:space="preserve">
<style type="text/css">
	.st0{fill:#A25AC4;}
</style>
<path class="st0" d="M40.8,7.8h-1.4c-0.7,0-1.3,0.6-1.3,1.3s0.6,1.3,1.3,1.3h0.2v23.1c0,0.1-0.1,0.1-0.1,0.1H26.9
	c2.9-0.9,5.9-1.4,8.9-1.5c1,0,1.9-0.9,1.9-1.9V7.2c0-0.5-0.2-1-0.6-1.3c-0.4-0.4-0.8-0.6-1.3-0.5C30.6,5.4,25.6,6.7,21,9.1
	c-4.6-2.4-9.6-3.7-14.8-3.8c-0.5,0-1,0.2-1.3,0.5C4.5,6.2,4.3,6.7,4.3,7.2v23c0,1,0.8,1.9,1.9,1.9c3,0.1,6,0.6,8.9,1.5H2.6
	c-0.1,0-0.1-0.1-0.1-0.1V10.3h0.2c0.7,0,1.3-0.6,1.3-1.3S3.3,7.8,2.6,7.8H1.2C0.5,7.8,0,8.4,0,9v24.4c0,1.5,1.2,2.6,2.6,2.6h36.8
	c1.5,0,2.6-1.2,2.6-2.6V9C42.1,8.3,41.5,7.8,40.8,7.8C40.8,7.8,40.8,7.8,40.8,7.8z M35.2,7.9v21.7c-4.5,0.1-8.9,1.2-12.9,3.1V11.3
	C26.3,9.2,30.7,8,35.2,7.9z M19.7,11.3v21.4c-4.1-1.9-8.5-3-12.9-3.1V7.9C11.3,8,15.7,9.2,19.7,11.3z"/>
</svg>
