<svg id="Capa_1" data-name="Capa 1" xmlns="http://www.w3.org/2000/svg" viewBox="0 0 31.59 31.58"><defs><style>.cls-1{fill:#5baf07;stroke:#5baf07;stroke-miterlimit:10;stroke-width:0.75px;}</style></defs><g id="elements"><path class="cls-1" d="M46.54,42l-7.45-7.44a12.1,12.1,0,1,0-4.54,4.54L42,46.54A3.22,3.22,0,0,0,46.54,42ZM17.76,28.6A10.84,10.84,0,1,1,28.61,39.43h0A10.85,10.85,0,0,1,17.76,28.6Zm27.9,17.06a2,2,0,0,1-2.79,0l-7.25-7.25a12.31,12.31,0,0,0,2.79-2.79l7.25,7.25A2,2,0,0,1,45.66,45.66Z" transform="translate(-16.09 -16.1)"/><path class="cls-1" d="M36.37,28.21c-.14-.18-3.5-4.34-7.77-4.34S21,28,20.82,28.21a.62.62,0,0,0,0,.77c.14.18,3.5,4.34,7.78,4.34s7.63-4.16,7.77-4.34A.62.62,0,0,0,36.37,28.21ZM28.6,32.08c-3,0-5.57-2.51-6.48-3.49.9-1,3.49-3.48,6.48-3.48s5.56,2.51,6.47,3.49C34.17,29.58,31.58,32.08,28.6,32.08Z" transform="translate(-16.09 -16.1)"/><path class="cls-1" d="M28.6,26.42a2.18,2.18,0,1,0,2.17,2.19h0A2.19,2.19,0,0,0,28.6,26.42Zm0,3.11a.94.94,0,1,1,.93-1v0A1,1,0,0,1,28.6,29.53Z" transform="translate(-16.09 -16.1)"/></g></svg>