<?xml version="1.0" encoding="utf-8"?>
<!-- Generator: Adobe Illustrator 26.0.2, SVG Export Plug-In . SVG Version: 6.00 Build 0)  -->
<svg version="1.1" id="Capa_1" xmlns="http://www.w3.org/2000/svg" xmlns:xlink="http://www.w3.org/1999/xlink" x="0px" y="0px"
	 viewBox="0 0 34.9 35" style="enable-background:new 0 0 34.9 35;" xml:space="preserve">
<style type="text/css">
	.st0{fill:#FD8417;}
</style>
<g id="elements">
	<path class="st0" d="M34.5,5.7c0.4-0.4,0.4-1.2,0-1.6c-0.3-0.3-0.6-0.4-1-0.3l-2.8,0.3l0.3-2.8c0.1-0.5-0.2-0.9-0.6-1.1
		c-0.4-0.2-1-0.1-1.3,0.2L26.6,3C18.4-2.1,7.7,0.3,2.6,8.4S0,27.3,8.1,32.4S27,35,32,26.9C35.6,21.2,35.6,14,32,8.3L34.5,5.7z
		 M17.3,19.5c-1,0-1.8-0.8-1.8-1.8s0.8-1.8,1.8-1.8c0,0,0,0,0,0h0.1l-1,1c-0.5,0.4-0.5,1.2,0,1.6c0,0,0,0,0,0l0,0
		c0.5,0.4,1.2,0.4,1.6,0l1.1-1c0,0.1,0,0.2,0,0.2C19.1,18.7,18.3,19.5,17.3,19.5z M17.3,26.1c-4.7,0-8.5-3.7-8.5-8.4
		s3.7-8.5,8.4-8.5c1.8,0,3.7,0.6,5.1,1.7L19.2,14c-0.6-0.3-1.3-0.5-1.9-0.5c-2.3,0-4.2,1.8-4.2,4.1c0,2.3,1.8,4.2,4.1,4.2
		c2.3,0,4.2-1.8,4.2-4.1c0-0.7-0.2-1.5-0.5-2.1l3.1-3.1c2.9,3.7,2.2,9-1.5,11.8C21,25.5,19.2,26.1,17.3,26.1L17.3,26.1z M24.6,5.2
		L24.2,9L24,9.2C19.4,5.5,12.6,6.3,8.9,11S6,22.4,10.6,26.1s11.4,2.9,15.1-1.7c3.2-4,3.1-9.6-0.1-13.5l0.2-0.2l3.8-0.4
		c0.2,0,0.4-0.1,0.6-0.2c1.4,2.3,2.1,5,2.1,7.7c0,8.4-6.7,15.1-15.1,15.2C9,32.9,2.2,26.1,2.2,17.8S8.9,2.6,17.2,2.6
		c2.7,0,5.3,0.7,7.7,2.1C24.8,4.8,24.7,5,24.6,5.2z"/>
</g>
</svg>
