<?xml version="1.0" encoding="utf-8"?>
<!-- Generator: Adobe Illustrator 26.0.2, SVG Export Plug-In . SVG Version: 6.00 Build 0)  -->
<svg version="1.1" id="Capa_1" xmlns="http://www.w3.org/2000/svg" xmlns:xlink="http://www.w3.org/1999/xlink" x="0px" y="0px"
	 viewBox="0 0 29.2 28.1" style="enable-background:new 0 0 29.2 28.1;" xml:space="preserve">
<style type="text/css">
	.st0{fill:#FD8417;}
</style>
<g id="elements">
	<path class="st0" d="M0,0v25.1c0,1.7,1.3,3,3,3h23.2c0.8,0,1.7-0.4,2.2-1h0.3v-0.3c0.3-0.5,0.5-1.1,0.5-1.7V0H0z M27.2,12.1h-4.8
		v-6h4.8L27.2,12.1z M26.2,26.1h-3.8v-6h4.8v5C27.2,25.6,26.7,26.1,26.2,26.1C26.2,26.1,26.2,26.1,26.2,26.1z M15.3,6.1v6h-5.2v-6
		H15.3z M10.1,19.1v-6h5.2v6H10.1z M9.1,13.1v6H2v-6H9.1z M15.3,20.1v6h-5.2v-6H15.3z M16.3,20.1h5.1v6h-5.1L16.3,20.1z M16.3,19.1
		v-6h5.1v6H16.3z M16.3,12.1v-6h5.1v6H16.3z M9.1,12.1H2v-6h7.2L9.1,12.1z M2,25.3v-5.2h7.1v6H3C2.5,26.1,2.2,25.8,2,25.3z
		 M22.4,19.1v-6h4.8v6H22.4z"/>
	<polygon class="st0" points="14,14.8 12.3,16.5 11.5,15.6 11,16.1 12.3,17.6 14.5,15.4 	"/>
	<polygon class="st0" points="24.3,10.6 26.5,8.4 26,7.8 24.3,9.5 23.6,8.6 23,9.1 	"/>
	<polygon class="st0" points="20.1,21.9 18.4,23.5 17.6,22.6 17.1,23.1 18.4,24.6 20.6,22.4 	"/>
	<rect x="3.3" y="8.7" class="st0" width="4.4" height="0.8"/>
	<rect x="3.3" y="22.7" class="st0" width="4.4" height="0.8"/>
	<rect x="3.3" y="15.7" class="st0" width="4.4" height="0.8"/>
</g>
</svg>
