<svg id="Capa_1" data-name="Capa 1" xmlns="http://www.w3.org/2000/svg" viewBox="0 0 50.35 51.17"><defs><style>.cls-1{fill:#a25ac4;stroke:#a25ac4;stroke-miterlimit:10;stroke-width:0.5px;}</style></defs><g id="elements"><path class="cls-1" d="M46.22,21.36l.19.42.45-.12.48-.1.69-.13-.29-.64a17.49,17.49,0,0,0-8.14-8.47L38.86,12l-.06.82a4.34,4.34,0,0,1,0,.51l-.06.39.35.18A15.87,15.87,0,0,1,46.22,21.36Z" transform="translate(-6.95 -6.31)"/><path class="cls-1" d="M25.89,44.28l.1-.69a2.41,2.41,0,0,1,.08-.48l.11-.45-.43-.18a15.88,15.88,0,0,1-3.81-2.29l-.15-.12H19.32l1.11,1a17.27,17.27,0,0,0,4.81,3Z" transform="translate(-6.95 -6.31)"/><path class="cls-1" d="M16.85,21.66l.44.12.19-.42a15.86,15.86,0,0,1,8.13-8L26,13.2V11.47l-.77.32a17.41,17.41,0,0,0-9.18,9l-.3.64.7.13Z" transform="translate(-6.95 -6.31)"/><path class="cls-1" d="M37,49.43H33.42a5.49,5.49,0,1,0-3.65,0H27.05a3.81,3.81,0,0,0-3.79,3.8v4h1.62v-4A2.19,2.19,0,0,1,27,51h9.64a2.2,2.2,0,0,1,2.18,2.18v4h1.62v-4A3.78,3.78,0,0,0,37,49.43Zm-1.53-5.18a3.86,3.86,0,1,1-3.86-3.86,3.86,3.86,0,0,1,3.86,3.86Z" transform="translate(-6.95 -6.31)"/><path class="cls-1" d="M22.74,36.6v4h1.62v-4a3.79,3.79,0,0,0-3.79-3.79H17.34a5.48,5.48,0,1,0-3.66,0H11A3.81,3.81,0,0,0,7.2,36.6v4H8.79v-4A2.19,2.19,0,0,1,11,34.43H20.6A2.17,2.17,0,0,1,22.74,36.6Zm-3.37-9a3.86,3.86,0,1,1-3.86-3.86,3.86,3.86,0,0,1,3.86,3.86v0Z" transform="translate(-6.95 -6.31)"/><path class="cls-1" d="M30.28,17.24H27.57A3.79,3.79,0,0,0,23.78,21v4H25.4V21a2.17,2.17,0,0,1,2.17-2.17h9.6A2.18,2.18,0,0,1,39.35,21v4H41V21a3.79,3.79,0,0,0-3.79-3.79H33.94a5.48,5.48,0,1,0-3.66,0Zm-2-5.16a3.86,3.86,0,1,1,3.86,3.86h0a3.86,3.86,0,0,1-3.89-3.83v0Z" transform="translate(-6.95 -6.31)"/><path class="cls-1" d="M53.26,32.81H50a5.48,5.48,0,1,0-3.66,0H43.66a3.81,3.81,0,0,0-3.8,3.79v4h1.27A14.9,14.9,0,0,1,38.85,42l-.41.21.13.44.12.47.14.7.64-.31A17.86,17.86,0,0,0,43.28,41l1.1-1H41.92l-.15.12a1.94,1.94,0,0,1-.29.21V36.6a2.18,2.18,0,0,1,2.18-2.17h9.6a2.17,2.17,0,0,1,2.17,2.17v4h1.62v-4A3.79,3.79,0,0,0,53.26,32.81Zm-1.2-5.16a3.86,3.86,0,1,1-3.86-3.86,3.86,3.86,0,0,1,3.86,3.86Z" transform="translate(-6.95 -6.31)"/></g></svg>