<?xml version="1.0" encoding="utf-8"?>
<!-- Generator: Adobe Illustrator 26.0.2, SVG Export Plug-In . SVG Version: 6.00 Build 0)  -->
<svg version="1.1" id="Capa_1" xmlns="http://www.w3.org/2000/svg" xmlns:xlink="http://www.w3.org/1999/xlink" x="0px" y="0px"
	 viewBox="0 0 57.8 57.6" style="enable-background:new 0 0 57.8 57.6;" xml:space="preserve">
<style type="text/css">
	.st0{fill:#0065AB;}
	.st1{fill:#A25AC4;}
</style>
<g id="elements">
	<path class="st0" d="M44.8,6.4c-1.4-2.2-3.7-3.7-6.3-4c-3.3-0.4-6.5,0.7-8.9,3l-0.4,0.4l-0.4-0.4c-2.4-2.3-5.6-3.4-8.9-3
		c-2.6,0.3-4.9,1.8-6.3,4c-2.1,3.4-1.8,7.8,0.8,10.9l14,14.2c0.4,0.4,1.2,0.4,1.6,0c0,0,0,0,0,0L44,17.2
		C46.6,14.2,46.9,9.8,44.8,6.4z M31.1,7c1.9-1.8,4.5-2.7,7.1-2.4c1.9,0.2,3.7,1.3,4.7,3c1.6,2.6,1.4,5.8-0.5,8.2L29.1,29.1L16,15.8
		c-2-2.3-2.2-5.6-0.6-8.2c1-1.7,2.8-2.8,4.7-3c0.3,0,0.7-0.1,1-0.1c2.3,0,4.4,0.9,6.1,2.5l1.2,1.1c0.4,0.4,1.1,0.4,1.6,0L31.1,7z"/>
	<path class="st1" d="M55.7,27.4L55.7,27.4c-1.8-1.6-4.5-1.5-6.2,0.1l-1.1,1c-1.7-1.4-4.1-1.3-5.7,0.2c-2.6,2.4-5.3,4.5-8.2,6.4
		c-0.7-0.4-1.4-0.6-2.2-0.6h-7.8c-1,0-2.1-0.1-3.1-0.4c-4.7-0.9-9.6,0.6-12.9,4.1c-0.5,0.5-1,0.9-1.6,1.2l-5.3,2.8
		c-0.6,0.3-0.8,1-0.5,1.5c0.2,0.4,0.6,0.6,1,0.6c0.2,0,0.4,0,0.5-0.1l5.3-2.7c0.8-0.4,1.5-1,2.1-1.6c2.8-2.9,6.9-4.2,10.8-3.5
		c1.2,0.3,2.4,0.4,3.6,0.4h7.8c1.2,0.1,2.1,1.1,2,2.3c-0.1,1.1-0.9,2-2,2h-8.9c-0.6-0.1-1.2,0.4-1.2,1c-0.1,0.6,0.4,1.2,1,1.2
		c0.1,0,0.1,0,0.2,0h8.9c1.1,0,2.1-0.4,2.9-1.1l0,0C35.6,42,46.1,34.1,51,29.1c0.9-0.8,2.2-0.8,3.1,0c1,0.9,1.1,2.4,0.2,3.4
		l-1.2,1.3C49.4,38,43.7,44.4,37,48.9c-1.1,0.8-2.4,1.2-3.8,1.2h-0.1c-2.8-0.1-8.1-0.2-12.9-0.8c-2.8-0.3-5.7,0.3-8.1,1.8l-5.5,3.3
		c-0.5,0.3-0.7,1-0.4,1.5c0,0,0,0,0,0.1c0.2,0.4,0.6,0.6,1,0.5c0.2,0,0.4-0.1,0.6-0.2l5.5-3.4c2-1.2,4.3-1.7,6.7-1.5
		c4.8,0.5,10.3,0.7,13.1,0.8h0.2c1.8,0,3.5-0.5,5-1.5c6.9-4.7,12.7-11.2,16.6-15.5L56,34C57.8,32.1,57.6,29.2,55.7,27.4
		C55.7,27.4,55.7,27.4,55.7,27.4L55.7,27.4z M46.7,30.1c-3.4,3-7.7,6.4-10.1,8.3c-0.1-0.5-0.2-1.1-0.5-1.5c2.9-1.9,5.7-4.1,8.2-6.5
		C44.9,29.7,45.9,29.6,46.7,30.1z"/>
</g>
</svg>
