<?xml version="1.0" encoding="utf-8"?>
<!-- Generator: Adobe Illustrator 26.0.2, SVG Export Plug-In . SVG Version: 6.00 Build 0)  -->
<svg version="1.1" id="Capa_1" xmlns="http://www.w3.org/2000/svg" xmlns:xlink="http://www.w3.org/1999/xlink" x="0px" y="0px"
	 viewBox="0 0 48.6 48.8" style="enable-background:new 0 0 48.6 48.8;" xml:space="preserve">
<style type="text/css">
	.st0{fill:none;}
	.st1{fill:#A25AC4;}
	.st2{fill:#FFFFFF;}
</style>
<g id="elements">
	<path class="st0" d="M29.1,11.4v6.7c-0.1,2.4-2.1,4.2-4.5,4.1c-2.2-0.1-4-1.9-4.1-4.1v-3.6c0-0.9,0.7-1.5,1.5-1.5
		c0.9,0,1.5,0.7,1.5,1.5v3.6c0,0.7,0.6,1.3,1.3,1.3c0.7,0,1.3-0.6,1.3-1.3v-6.4l-12.9,1.1l2.6,29.6l29.6-2.6l-2.6-29.6L29.1,11.4z"
		/>
	<polygon class="st0" points="33.4,44.6 33.5,43.9 30.9,44.1 	"/>
	<path class="st0" d="M25.5,5.7c-0.3,0-0.6,0.3-0.6,0.6c0,0,0,0,0,0l0,0v2.4L26,8.6V6.3C26,6,25.8,5.7,25.5,5.7z"/>
	<path class="st0" d="M10.3,10.4c0.1-0.1,0.2-0.2,0.4-0.3l-1-0.2L4.2,39.1l8.4,1.6L10,11.6C9.9,11.2,10.1,10.8,10.3,10.4z"/>
	<polygon class="st0" points="47.8,41.1 47.8,41.1 47.8,41.1 	"/>
	<polygon class="st0" points="33.5,44.9 33.6,44.9 33.8,43.6 29,44 	"/>
	<path class="st0" d="M26.3,6.3c0-0.5-0.4-0.8-0.8-0.8c-0.5,0-0.8,0.4-0.8,0.8V9l1.7-0.1V6.3z"/>
	<path class="st0" d="M10.5,10.6L10.5,10.6c0.2-0.2,0.4-0.3,0.6-0.4l0.5-0.1L9.5,9.7L3.9,39.2v0.1l9,1.7l-2.7-29.5
		C10.2,11.2,10.3,10.9,10.5,10.6z"/>
	<path class="st0" d="M43,9.9l-14,1.2h-0.1v6.9c-0.1,2.3-2,4-4.3,3.9c-2.1-0.1-3.8-1.8-3.9-3.9v-3.6c0-0.7,0.6-1.3,1.3-1.3
		s1.3,0.6,1.3,1.3c0,0,0,0,0,0v3.6c-0.1,0.8,0.4,1.6,1.2,1.8c0.8,0.1,1.6-0.4,1.8-1.2c0,0,0,0,0,0c0-0.2,0-0.3,0-0.5v-6.7L13,12.6
		h-0.1l2.7,30v0.1l30-2.7h0.1L43,10L43,9.9z"/>
	<polygon class="st0" points="47.8,41.1 47.8,41.1 47.8,41.1 	"/>
	<path class="st1" d="M45.4,8.4c-0.1-0.7-0.7-1.2-1.4-1.1L28.9,8.6V6.3c0.1-1.9-1.3-3.5-3.2-3.6c-1.9-0.1-3.5,1.3-3.6,3.2
		c0,0.1,0,0.2,0,0.4v2.9l-0.8,0.1l0,0L8.7,6.9c-0.3-0.1-0.7,0-1,0.2C7.4,7.3,7.2,7.6,7.2,7.9l-6,32.2c-0.1,0.3,0,0.7,0.2,1
		c0.2,0.3,0.5,0.5,0.8,0.5l11,2.1v0.5c0.1,0.7,0.7,1.2,1.3,1.2h0.1l5-0.4l0,0l14.7,2.8c0.3,0.1,0.7,0,1-0.2c0.3-0.2,0.5-0.5,0.5-0.8
		l0.6-3.3h0.1l10.6-0.9c0.7-0.1,1.2-0.7,1.2-1.4c0,0,0,0,0,0L45.4,8.4z M24.7,6.3c0-0.5,0.4-0.8,0.8-0.8c0.5,0,0.8,0.4,0.8,0.8v2.5
		L24.7,9V6.3z M3.9,39.3v-0.1L9.4,9.6l2.2,0.4l-0.5,0.1c-0.2,0.1-0.5,0.2-0.6,0.4l0,0c-0.2,0.3-0.3,0.6-0.3,0.9L12.9,41L3.9,39.3z
		 M33.6,44.9h-0.1L29,44.1l4.8-0.4L33.6,44.9z M45.6,40l-30,2.7v-0.1l-2.7-30H13l13.3-1.2v6.7c0.1,0.8-0.4,1.6-1.2,1.8
		c-0.8,0.1-1.6-0.4-1.8-1.2c0,0,0,0,0,0c0-0.2,0-0.3,0-0.5v-3.6c0-0.7-0.6-1.3-1.3-1.3s-1.3,0.6-1.3,1.3c0,0,0,0,0,0v3.6
		c0.1,2.3,2,4,4.3,3.9c2.1-0.1,3.8-1.8,3.9-3.9v-6.9H29l14-1.2V10l2.7,30L45.6,40z"/>
	<path class="st2" d="M45.7,8.4C45.6,7.6,44.9,7,44.1,7H44L29.1,8.3v-2c0.1-2-1.4-3.7-3.4-3.8c-2-0.1-3.7,1.4-3.8,3.4
		c0,0.1,0,0.3,0,0.4V9h-0.5L8.7,6.6c-0.4-0.1-0.8,0-1.1,0.2C7.2,7.1,7,7.5,6.9,7.9l-6,32.2c-0.1,0.4,0,0.8,0.2,1.1
		c0.2,0.3,0.6,0.6,1,0.7l10.8,2v0.3c0.1,0.8,0.8,1.4,1.6,1.4h0.1l5-0.5l14.7,2.8h0.3c0.7,0,1.4-0.5,1.5-1.2l0.6-3.1l10.5-0.9
		c0.8-0.1,1.5-0.8,1.4-1.7L45.7,8.4z M48,41.9c-0.2,0.3-0.5,0.4-0.9,0.5l-10.6,0.9h-0.1l-0.6,3.3c-0.1,0.3-0.2,0.6-0.5,0.8
		c-0.3,0.2-0.7,0.3-1,0.2l-14.7-2.7l0,0l-5,0.5h-0.1c-0.7,0-1.2-0.5-1.3-1.2v-0.5l-11-2.1c-0.3-0.1-0.6-0.3-0.8-0.5
		c-0.2-0.3-0.3-0.7-0.2-1l6-32.2c0.1-0.3,0.3-0.6,0.5-0.8c0.3-0.2,0.7-0.3,1-0.2l12.6,2.4l0,0l0.8-0.1V6.3c-0.1-1.9,1.3-3.5,3.2-3.6
		c1.9-0.1,3.5,1.3,3.6,3.2l0,0c0,0.1,0,0.2,0,0.4v2.3L44,7.2c0.7,0,1.3,0.5,1.4,1.1L48.3,41C48.3,41.3,48.2,41.7,48,41.9z"/>
	<path class="st2" d="M43,9.9l-14,1.2h-0.1v6.9c-0.1,2.3-2,4-4.3,3.9c-2.1-0.1-3.8-1.8-3.9-3.9v-3.6c0-0.7,0.6-1.3,1.3-1.3
		s1.3,0.6,1.3,1.3c0,0,0,0,0,0v3.6c-0.1,0.8,0.4,1.6,1.2,1.8c0.8,0.1,1.6-0.4,1.8-1.2c0,0,0,0,0,0c0-0.2,0-0.3,0-0.5v-6.7L13,12.6
		h-0.1l2.7,30v0.1l30-2.7h0.1L43,10L43,9.9z M15.8,42.4l-2.6-29.6L26,11.7v6.4c0,0.7-0.6,1.3-1.3,1.3c-0.7,0-1.3-0.6-1.3-1.3v-3.6
		c0-0.9-0.7-1.5-1.5-1.5c-0.9,0-1.5,0.7-1.5,1.5v3.6c0.1,2.4,2.1,4.2,4.5,4.1c2.2-0.1,4-1.9,4.1-4.1v-6.7l13.6-1.2l2.6,29.6
		L15.8,42.4z"/>
	<path class="st2" d="M26.3,6.3c0-0.5-0.4-0.8-0.8-0.8c-0.5,0-0.8,0.4-0.8,0.8V9l1.7-0.1V6.3z M26,8.6l-1.1,0.1V6.3
		c0-0.3,0.3-0.6,0.6-0.6l0,0l0,0C25.8,5.7,26,6,26,6.3V8.6z"/>
	<path class="st2" d="M10.5,10.6L10.5,10.6c0.2-0.2,0.4-0.3,0.6-0.4l0.5-0.1L9.5,9.7L3.9,39.2v0.1l9,1.7l-2.7-29.5
		C10.2,11.2,10.3,10.9,10.5,10.6z M12.6,40.7l-8.4-1.6L9.7,9.9l1,0.2c-0.1,0.1-0.2,0.2-0.4,0.3c-0.3,0.3-0.4,0.7-0.4,1.1L12.6,40.7z
		"/>
	<path class="st2" d="M33.5,44.9h0.1l0.2-1.3L29,44L33.5,44.9z M33.4,44.6l-2.5-0.5l2.6-0.3L33.4,44.6z"/>
</g>
</svg>
