<svg id="Capa_1" data-name="Capa 1" xmlns="http://www.w3.org/2000/svg" viewBox="0 0 29.18 28.09"><defs><style>.cls-1{fill:#5baf07;}</style></defs><g id="elements"><path class="cls-1" d="M17.51,18.53V43.62a3,3,0,0,0,3,3H43.69a3,3,0,0,0,2.22-1h.28v-.35a3,3,0,0,0,.5-1.65V18.53ZM44.69,30.6H39.9v-6h4.79Zm-1,14H39.9v-6h4.79v5a1,1,0,0,1-1,1h0Zm-10.86-20v6H27.67v-6Zm-5.17,13v-6h5.17v6Zm-1-6v6h-7.1v-6Zm6.17,7v6H27.67v-6Zm1,0H38.9v6H33.84Zm0-1v-6H38.9v6Zm0-7v-6H38.9v6Zm-7.17,0H19.51v-6h7.16Zm-7.1,13.27V38.63h7.11v6H20.5A1,1,0,0,1,19.56,43.87ZM39.9,37.62v-6h4.79v6Z" transform="translate(-17.51 -18.53)"/><polygon class="cls-1" points="13.97 14.84 12.32 16.5 11.54 15.6 10.98 16.09 12.28 17.6 14.5 15.37 13.97 14.84"/><polygon class="cls-1" points="24.3 10.58 26.52 8.36 26 7.83 24.34 9.49 23.57 8.59 23 9.08 24.3 10.58"/><polygon class="cls-1" points="20.08 21.85 18.43 23.5 17.65 22.61 17.09 23.1 18.39 24.6 20.61 22.38 20.08 21.85"/><rect class="cls-1" x="3.33" y="8.69" width="4.41" height="0.75"/><rect class="cls-1" x="3.33" y="22.71" width="4.41" height="0.75"/><rect class="cls-1" x="3.33" y="15.72" width="4.41" height="0.75"/></g></svg>