<?xml version="1.0" encoding="utf-8"?>
<!-- Generator: Adobe Illustrator 26.0.2, SVG Export Plug-In . SVG Version: 6.00 Build 0)  -->
<svg version="1.1" id="back" xmlns="http://www.w3.org/2000/svg" xmlns:xlink="http://www.w3.org/1999/xlink" x="0px" y="0px"
	 viewBox="0 0 40.1 40.3" style="enable-background:new 0 0 40.1 40.3;" xml:space="preserve">
<style type="text/css">
	.st0{fill:#A25AC4;}
</style>
<path class="st0" d="M36.9,30.8c-0.1,0-5.2-3.2-5.2-14.2c0-5.1-3.4-9.6-8.3-11.1v-2c0-1.9-1.5-3.4-3.4-3.4s-3.4,1.5-3.4,3.4v2
	c-4.9,1.5-8.3,6-8.3,11.1c0,5.8-1.5,9.4-2.7,11.4C5.1,29,4.2,30,3.2,30.8c-0.4,0.2-0.6,0.6-0.6,1c0,1.7,1.3,3,3,3h7.8
	c0.7,3.7,4.2,6.1,7.8,5.4c2.8-0.5,4.9-2.7,5.4-5.4h7.8c1.7,0,3-1.3,3-3C37.5,31.3,37.2,31,36.9,30.8z M24.2,34.8
	c-0.7,2.3-3.1,3.6-5.4,3c-1.4-0.4-2.5-1.5-3-3H24.2z M34.9,32.2c-0.1,0.1-0.3,0.2-0.4,0.2H14.7c-0.1,0-0.2,0-0.3,0H5.6
	c-0.2,0-0.3-0.1-0.4-0.2c1-0.9,1.8-1.9,2.5-3c1.4-2.2,3.1-6.3,3.1-12.8c0-5.1,4.1-9.2,9.2-9.2s9.2,4.1,9.2,9.2
	c0,6.5,1.7,10.5,3.1,12.8C33.1,30.4,33.9,31.4,34.9,32.2z M19.1,4.8V3.4c0-0.6,0.4-1,1-1s1,0.4,1,1v1.4H19.1z"/>
<path class="st0" d="M6.3,17.7c0.7,0,1.2-0.5,1.2-1.2v0l0,0c0-4.5,2.4-8.6,6.3-10.9c0.6-0.3,0.8-1.1,0.4-1.6
	c-0.3-0.6-1.1-0.8-1.6-0.4l0,0l0,0C8,6.3,5.2,11.2,5.1,16.5C5.1,17.2,5.7,17.7,6.3,17.7z"/>
<path class="st0" d="M26.3,5.7L26.3,5.7c3.9,2.2,6.3,6.4,6.3,10.9c0,0.7,0.5,1.2,1.2,1.2s1.2-0.5,1.2-1.2c0-5.3-2.9-10.3-7.5-12.9
	c-0.3-0.2-0.6-0.2-0.9-0.1C26.3,3.6,26,3.8,25.8,4C25.5,4.6,25.7,5.3,26.3,5.7C26.3,5.7,26.3,5.7,26.3,5.7z"/>
</svg>
