<?xml version="1.0" encoding="utf-8"?>
<!-- Generator: Adobe Illustrator 26.0.2, SVG Export Plug-In . SVG Version: 6.00 Build 0)  -->
<svg version="1.1" id="Capa_1" xmlns="http://www.w3.org/2000/svg" xmlns:xlink="http://www.w3.org/1999/xlink" x="0px" y="0px"
	 viewBox="0 0 63.3 62.6" style="enable-background:new 0 0 63.3 62.6;" xml:space="preserve">
<style type="text/css">
	.st0{fill:#0065AB;}
</style>
<g id="elements">
	<path class="st0" d="M47.1,15.4c1.6,0,3.2,0.7,4.2,2c0.7,1.1,1.1,2.5,0.9,3.8l-1.5-1c-0.4-0.3-0.9-0.2-1.2,0.2c0,0,0,0,0,0
		c-0.1,0.2-0.2,0.4-0.2,0.6c0,0.2,0.2,0.4,0.3,0.6l2.8,2.1c0.1,0.1,0.3,0.1,0.4,0.2h0.1c0.2,0,0.4-0.1,0.6-0.2l2.7-2.6
		c0.3-0.3,0.3-0.9,0-1.2c0,0,0,0,0,0c-0.2-0.2-0.4-0.3-0.6-0.3c-0.2,0-0.4,0.1-0.6,0.2L54,20.9c0.1-1.6-0.3-3.2-1.2-4.6
		c-1.4-1.8-3.5-2.8-5.8-2.6c-0.2,0-0.4,0.1-0.6,0.3c-0.3,0.4-0.3,0.9,0.1,1.2c0,0,0,0,0,0C46.7,15.3,46.9,15.4,47.1,15.4z"/>
	<path class="st0" d="M18.4,38.5c0.2,0,0.3,0,0.5-0.1l2.3-1.3c0.5-0.3,0.7-0.9,0.4-1.4c-0.1-0.2-0.4-0.4-0.6-0.5
		c-0.3-0.1-0.5-0.1-0.8,0.1l-2.3,1.3c-0.5,0.3-0.7,0.9-0.4,1.4C17.7,38.3,18,38.5,18.4,38.5z"/>
	<path class="st0" d="M24.5,35.1c0.2,0,0.3,0,0.5-0.1l2.3-1.3c0.5-0.3,0.7-0.9,0.4-1.4c-0.1-0.2-0.3-0.4-0.6-0.5
		c-0.3-0.1-0.5,0-0.8,0.1L24,33.2c-0.5,0.3-0.7,0.9-0.4,1.4C23.8,34.9,24.1,35.1,24.5,35.1z"/>
	<path class="st0" d="M36.8,28.4c0.2,0,0.3,0,0.5-0.1l2.3-1.2c0.2-0.1,0.4-0.4,0.5-0.6c0.1-0.3,0-0.5-0.1-0.8
		c-0.1-0.2-0.4-0.4-0.6-0.5c-0.3-0.1-0.5,0-0.8,0.1l-2.3,1.2c-0.2,0.1-0.4,0.4-0.5,0.6c-0.1,0.3-0.1,0.5,0.1,0.8
		C36,28.2,36.4,28.4,36.8,28.4z"/>
	<path class="st0" d="M30.6,31.8c0.2,0,0.3,0,0.5-0.1l2.3-1.3c0.2-0.1,0.4-0.3,0.5-0.6c0.1-0.3,0-0.5-0.1-0.8
		c-0.1-0.2-0.3-0.4-0.6-0.5c-0.3-0.1-0.5,0-0.8,0.1l-2.3,1.3c-0.5,0.3-0.7,0.9-0.4,1.4C29.9,31.6,30.2,31.7,30.6,31.8L30.6,31.8z"/>
	<path class="st0" d="M12.3,41.9c0.2,0,0.3,0,0.5-0.1l2.3-1.3c0.2-0.1,0.4-0.3,0.5-0.6c0.1-0.3,0-0.5-0.1-0.8
		c-0.3-0.5-0.9-0.7-1.4-0.4l-2.3,1.3c-0.2,0.1-0.4,0.4-0.5,0.6c-0.1,0.3,0,0.5,0.1,0.8C11.6,41.7,11.9,41.9,12.3,41.9z"/>
	<path class="st0" d="M61.4,39.5L55,44.8l0,0L55,44.9L54.8,45l0,0l-9.2,14.6c-0.3,0.4-0.8,0.6-1.2,0.3c0,0,0,0,0,0l-0.6-0.4
		c-0.4-0.3-0.6-0.8-0.3-1.3c0,0,0,0,0,0l5-10.5l0.1-0.2l-1.3-0.9l-0.1-0.1l-13.7,9.7c-0.4,0.3-1,0.2-1.3-0.2c0,0,0,0,0,0l-0.5-0.6
		c-0.3-0.4-0.2-1,0.2-1.3c0,0,0,0,0,0l11.1-9l0.2-0.1l-1-1.5l-15.6,8.6c-0.4,0.3-1,0.1-1.2-0.3c0,0,0,0,0,0L25,51.2
		c-0.3-0.4-0.1-1,0.3-1.2c0,0,0,0,0,0l14-9.2l0.2-0.1L39,39.8l-0.5-1.1l-14.8,4.5c-0.5,0.2-1-0.1-1.1-0.6c0,0,0,0,0,0l-0.2-0.7
		c-0.2-0.5,0.1-1,0.6-1.1c0,0,0,0,0,0l19.3-6.5l0.2-0.1l-0.5-1.6l-3.9-0.3c-0.9-0.1-1.6-0.8-1.9-1.6v-0.1l10.5-1.3l14.9-4.1L61,23.4
		l-10,2.8c0-0.1-0.1-0.2-0.2-0.3l-6.1-3.4l0.2-8c0-0.6-0.5-1-1-1c-0.2,0-0.3,0-0.5,0.1l-1.6,0.9c-0.1-0.3-0.4-0.6-0.7-0.7l-8.3-1.5
		L23.4,7l-6-5.1c-0.4-0.3-0.9-0.3-1.3,0c-0.3,0.4-0.3,0.9,0,1.3c0,0,0,0,0,0l6,5.2c0,0,0.1,0.1,0.1,0.1l9.5,5.4
		c0.1,0.1,0.2,0.1,0.3,0.1l5.9,1l-1.7,0.9H30h-0.2c-0.3,0.1-3.4,0.8-4.4,1.1c-2.2,0.8-4,2.4-5.1,4.5l-3.2,5h-1.7l4.5-9.3
		c0.2-0.5,0-1-0.4-1.2c-0.5-0.2-1,0-1.2,0.4l-2.9,6l-2.3,4.5c-0.1,0.3-0.1,0.6,0,0.9l0.2,0.2v0.1l-1.5,1.2l0.8-6.9l2.1-4
		c0.1-0.1,0.1-0.3,0.1-0.4c0-0.5-0.4-0.9-0.9-0.9c-0.3,0-0.7,0.2-0.8,0.5L10.9,22l0,0c0,0.1-0.1,0.2-0.1,0.3l-1.3,8.9l-1,0.5
		l0.3-7.5l1.3-2.6c0.1-0.5-0.2-1-0.7-1.1c-0.3-0.1-0.6,0-0.8,0.2L7.1,23l-2.3,3.4l-0.1,0.1L3.1,30L2.7,30l1.6-4l4.2-5.9
		c0,0,0.1-0.1,0.1-0.2l3.1-7.3c0.2-0.4,0-0.8-0.3-1.1L7.5,8.7c-0.4-0.3-1-0.2-1.3,0.2c0,0,0,0,0,0c-0.3,0.4-0.2,1,0.2,1.3
		c0,0,0,0,0,0l3.3,2.5l-2.8,6.4L2.7,25c0,0.1-0.1,0.1-0.1,0.2l-2.3,5.6c-0.1,0.3-0.1,0.7,0.1,0.9c0.2,0.3,0.5,0.4,0.9,0.3l2.5-0.4
		c0.3-0.1,0.6-0.3,0.7-0.5l1.9-3.8l0.5-0.7l-0.3,6.4c0,0.1,0,0.2,0,0.2c-0.2,0.2-0.4,0.5-0.4,0.8v9.5c0,0.1,0,0.1,0,0.2h0.2
		l-0.1,0.1c0,0,0,0.1,0,0.1l0,0c0.1,0.3,0.3,0.5,0.6,0.6l6.4,2.8c0.1,0.1,0.3,0.1,0.4,0.1c0.2,0,0.3,0,0.5-0.1l6.8-3.7
		c0.6,1,1.7,1.5,2.8,1.3c0.1,0,0.2,0,0.3-0.1l11.3-3.7l-11.2,7.3c-1.3,0.8-1.7,2.4-0.9,3.7c0,0,0,0,0,0l0.4,0.7c0.4,0.6,1,1,1.7,1.2
		c0.6,0.1,1.2,0.1,1.7-0.2c0.1,0,0.2-0.1,0.3-0.2l6.8-3.8L31,52.7c-0.6,0.4-0.9,1.1-1,1.7c-0.1,0.7,0.1,1.4,0.5,2l0.5,0.6
		c0.4,0.6,1.1,0.9,1.8,1c0.6,0.1,1.2,0,1.7-0.2c0.1,0,0.2-0.1,0.3-0.2l10.8-7.6L42,57.3c-0.8,1.2-0.4,2.9,0.8,3.7c0,0,0,0,0,0
		l0.6,0.4c0.4,0.3,0.9,0.4,1.4,0.4c0.2,0,0.4,0,0.6-0.1c0.6-0.1,1.1-0.4,1.5-0.9c0.1-0.1,0.1-0.2,0.2-0.3l9-14.2l6.5-5.4L61.4,39.5z
		 M9.3,42.5c-0.2-0.3-0.6-0.5-0.9-0.5v-7.2l34.4-18.5l-0.1,6.7c0,0,0,0,0,0.1l-0.2,0.1c-0.5,0.3-0.7,0.9-0.4,1.4
		c0.3,0.5,0.9,0.7,1.4,0.4c0,0,0,0,0,0l0.7-0.4l4,2.3l-0.7,0.4l-0.8,0.2l-10.6,1.2c-0.6,0-1.1,0.2-1.4,0.7c-0.4,0.6-0.4,1.3-0.1,1.9
		c0.2,0.5,0.4,0.9,0.8,1.3l0.2,0.2c0.3,0.5,0.7,0.8,1.3,0.9c0.3,0.1,0.8,0.1,1.2,0.2L22.3,39c-1.1,0.4-1.9,1.5-1.8,2.7l-6.7,3.7
		l-4.4-1.9C9.5,43.1,9.5,42.8,9.3,42.5z M22,22.6c0,0,0.1-0.1,0.1-0.1c0.9-1.7,2.3-2.9,4-3.6c0.7-0.3,3.1-0.8,4-1h5.2l-15.7,8.5
		L22,22.6z M15.7,28.5l-0.3,0.2c0-0.1,0-0.1,0-0.2L15.7,28.5z"/>
</g>
</svg>
