<?xml version="1.0" encoding="utf-8"?>
<!-- Generator: Adobe Illustrator 26.0.2, SVG Export Plug-In . SVG Version: 6.00 Build 0)  -->
<svg version="1.1" id="Capa_1" xmlns="http://www.w3.org/2000/svg" xmlns:xlink="http://www.w3.org/1999/xlink" x="0px" y="0px"
	 viewBox="0 0 40.2 40.1" style="enable-background:new 0 0 40.2 40.1;" xml:space="preserve">
<style type="text/css">
	.st0{fill:#0065AB;stroke:#0065AB;stroke-width:0.5;stroke-miterlimit:10;}
</style>
<path class="st0" d="M39.2,7.5h-1.4c-0.4,0-0.8,0.3-0.9,0.7s0.3,0.8,0.7,0.9h0.8v22.7c0,0.3-0.2,0.5-0.5,0.5l0,0H23.4l0.6-0.2
	c3.3-1.3,6.8-1.9,10.4-2c0.8,0,1.4-0.6,1.4-1.4V6.5c0-0.4-0.1-0.7-0.4-1c-0.3-0.3-0.6-0.4-1-0.4l0,0c-5,0.1-9.8,1.4-14.2,3.7H20
	c-4.4-2.4-9.2-3.6-14.2-3.7l0,0c-0.4,0-0.7,0.1-1,0.4c-0.3,0.3-0.4,0.6-0.4,1v22.1c0,0.8,0.6,1.4,1.4,1.4c3.6,0.1,7.1,0.7,10.4,2
	l0.6,0.2H2.4c-0.3,0-0.5-0.2-0.5-0.5l0,0l0,0V9h0.6c0.4,0,0.8-0.4,0.8-0.8c0-0.3-0.2-0.6-0.6-0.7c-0.1,0-0.1,0-0.2,0H1
	c-0.4,0-0.8,0.3-0.8,0.8l0,0l0,0v23.5c0,1.2,0.9,2.1,2.1,2.1c0,0,0,0,0,0h35.5c1.2,0,2.1-0.9,2.1-2.1c0,0,0,0,0,0l0,0V8.2
	C40,7.8,39.6,7.5,39.2,7.5z M19.3,31.7l-0.2-0.1c-4.1-2-8.5-3.1-13-3.2H6V6.7h0.1c4.6,0.1,9.1,1.3,13.1,3.5h0.1L19.3,31.7z
	 M20.9,31.7V10.2H21c4-2.2,8.6-3.4,13.1-3.5h0.1v21.8h-0.1c-4.5,0.1-8.9,1.2-13,3.2L20.9,31.7z"/>
</svg>
