<?xml version="1.0" encoding="utf-8"?>
<!-- Generator: Adobe Illustrator 26.0.2, SVG Export Plug-In . SVG Version: 6.00 Build 0)  -->
<svg version="1.1" id="Capa_1" xmlns="http://www.w3.org/2000/svg" xmlns:xlink="http://www.w3.org/1999/xlink" x="0px" y="0px"
	 viewBox="0 0 46.8 46.5" style="enable-background:new 0 0 46.8 46.5;" xml:space="preserve">
<style type="text/css">
	.st0{fill:#A25AC4;stroke:#A25AC4;stroke-width:0.5;stroke-miterlimit:10;}
</style>
<g id="elements">
	<path class="st0" d="M37.1,14.7c-0.9-0.9-2.1-1.4-3.4-1.4l0,0c-0.4,0-0.7,0.3-0.7,0.7c0,0.2,0.1,0.4,0.2,0.5
		c0.1,0.1,0.3,0.2,0.5,0.2c0.4,0,0.9,0.1,1.2,0.3c0.4,0.2,0.8,0.4,1.1,0.7c0.3,0.3,0.6,0.7,0.7,1.1c0.2,0.4,0.3,0.8,0.3,1.3
		c0,0.2,0.1,0.4,0.2,0.5c0.1,0.1,0.3,0.2,0.5,0.2l0,0c0.2,0,0.4-0.1,0.5-0.2c0.1-0.1,0.2-0.3,0.2-0.5c0-0.6-0.1-1.2-0.4-1.8
		C37.9,15.7,37.5,15.2,37.1,14.7z"/>
	<path class="st0" d="M39.9,11.9c-1.6-1.7-3.9-2.6-6.2-2.6l0,0c-0.2,0-0.4,0.1-0.5,0.2C33,9.6,33,9.8,33,10c0,0.2,0.1,0.4,0.2,0.5
		c0.1,0.1,0.3,0.2,0.5,0.2c4.1,0.1,7.4,3.4,7.4,7.4c0,0.2,0.1,0.4,0.2,0.5c0.1,0.1,0.3,0.2,0.5,0.2l0,0c0.2,0,0.4-0.1,0.5-0.2
		c0.1-0.1,0.2-0.3,0.2-0.5c0-1.1-0.2-2.3-0.7-3.3C41.4,13.7,40.7,12.7,39.9,11.9z"/>
	<path class="st0" d="M45.5,13.3c-0.7-1.6-1.6-3-2.8-4.2c-1.2-1.2-2.7-2.2-4.3-2.9c-1.5-0.6-3.2-1-4.8-1l0,0c-0.2,0-0.4,0.1-0.5,0.2
		C33,5.6,32.9,5.8,32.9,6c0,0.2,0.1,0.4,0.2,0.5c0.1,0.1,0.3,0.2,0.5,0.2c1.5,0,2.9,0.3,4.3,0.9c4.3,1.8,7.1,6,7.2,10.6
		c0,0.2,0.1,0.4,0.2,0.5c0.1,0.1,0.3,0.2,0.5,0.2l0,0c0.2,0,0.4-0.1,0.5-0.2l0,0c0.1-0.1,0.2-0.3,0.2-0.5
		C46.5,16.5,46.2,14.9,45.5,13.3z"/>
	<path class="st0" d="M30.8,16.4c-1.6-1.1-3.5-1.6-5.4-1.5c-1.4,0-2.7,0.2-4,0.7c-1.1,0.5-2.1,1.2-2.9,2.1L18,18.4l-0.5-0.7
		c-0.5-0.7-1.1-1.4-1.9-1.8c-1.7-0.7-3.6-1.1-5.5-1c-1.6,0-3.2,0.2-4.7,0.8c-1.2,0.4-2.2,1.1-3,2.1c-0.7,0.9-1.1,1.9-1.4,3l2.4,0.3
		c0.2-0.8,0.5-1.6,1-2.3c0.6-0.7,1.3-1.2,2.2-1.5c1.1-0.3,2.2-0.5,3.4-0.5c2.1,0,3.5,0.4,4.4,1.3c0.9,0.8,1.3,2.3,1.3,4.3v1.4
		l-0.5,0.1c-1.8,0.5-3.7,0.8-5.5,1.1c-2,0.2-4,0.6-5.9,1.3c-1.1,0.5-2,1.2-2.7,2.2c-0.6,0.9-1,2-1,3.1c0,1.6,0.7,3.1,1.9,4.2
		c1.5,1.2,3.4,1.8,5.3,1.7c1.6,0,3.2-0.3,4.7-1c1.6-0.7,3.1-1.8,4.3-3l0.5-0.5l0.5,0.5c0.9,1.3,2.1,2.3,3.5,3c1.4,0.7,2.9,1,4.5,1
		c2.1,0.1,4.3-0.6,6-1.8c1.5-1.1,2.6-2.7,3.2-4.5l-2.7-0.3c-0.4,1.3-1.1,2.5-2.2,3.4c-1.2,1-2.7,1.5-4.2,1.4c-1.3,0-2.7-0.3-3.8-1
		c-1.1-0.6-2-1.5-2.5-2.6c-0.6-1.5-0.9-3.1-0.8-4.8v-0.7h16.5v-0.7c0-1.8-0.3-3.6-1-5.2C33.3,19,32.2,17.5,30.8,16.4z M15.9,26.1
		c0.1,1.6,0,3.2-0.3,4.8c-0.4,1.4-1.4,2.7-2.7,3.5c-1.4,0.9-3,1.4-4.7,1.3c-1.4,0.1-2.7-0.4-3.8-1.3c-0.9-0.8-1.4-1.9-1.4-3
		c0-1.2,0.5-2.4,1.5-3.2c1.1-0.7,2.3-1.1,3.6-1.2c2.3-0.3,4.6-0.8,6.8-1.5l0.9-0.4L15.9,26.1z M18.3,24.6v-0.7
		c0-1.9,0.8-3.8,2.1-5.2c1.3-1.3,3.1-2,5-1.9c1.7-0.1,3.4,0.6,4.7,1.8c1.3,1.5,2.1,3.4,2.1,5.4l0.1,0.7H18.3z"/>
</g>
</svg>
