<?xml version="1.0" encoding="utf-8"?>
<!-- Generator: Adobe Illustrator 26.0.2, SVG Export Plug-In . SVG Version: 6.00 Build 0)  -->
<svg version="1.1" id="Capa_1" xmlns="http://www.w3.org/2000/svg" xmlns:xlink="http://www.w3.org/1999/xlink" x="0px" y="0px"
	 viewBox="0 0 40.2 40.2" style="enable-background:new 0 0 40.2 40.2;" xml:space="preserve">
<style type="text/css">
	.st0{fill:#FD8417;stroke:#FD8417;stroke-width:0.5;stroke-miterlimit:10;}
</style>
<path class="st0" d="M39.2,7.6h-1.4c-0.4,0-0.8,0.3-0.9,0.7c-0.1,0.4,0.3,0.8,0.7,0.9h0.8v22.7c0,0.3-0.2,0.5-0.5,0.5l0,0H23.4
	l0.6-0.2c3.3-1.3,6.8-1.9,10.4-2c0.8,0,1.4-0.6,1.4-1.4V6.6c0-0.4-0.1-0.7-0.4-1c-0.3-0.3-0.6-0.4-1-0.4l0,0
	c-5,0.1-9.8,1.4-14.2,3.7H20c-4.4-2.4-9.2-3.6-14.2-3.7l0,0c-0.4,0-0.7,0.1-1,0.4c-0.3,0.3-0.4,0.6-0.4,1v22.1
	c0,0.8,0.6,1.4,1.4,1.4c3.6,0.1,7.1,0.7,10.4,2l0.6,0.2H2.4c-0.3,0-0.5-0.2-0.5-0.5l0,0l0,0V9.1h0.6c0.4,0,0.8-0.4,0.8-0.8
	c0-0.3-0.2-0.6-0.6-0.7c-0.1,0-0.1,0-0.2,0H1c-0.4,0-0.8,0.3-0.8,0.7l0,0l0,0v23.5c0,1.2,0.9,2.1,2.1,2.1l0,0h35.5
	c1.2,0,2.1-0.9,2.1-2.1l0,0l0,0V8.3C40,7.9,39.6,7.6,39.2,7.6z M19.3,31.8l-0.2-0.1c-4.1-2-8.5-3.1-13-3.2H6V6.8h0.1
	c4.6,0.1,9.1,1.3,13.1,3.5h0.1L19.3,31.8z M20.9,31.8V10.3H21c4-2.2,8.6-3.4,13.1-3.5h0.1v21.8h-0.1c-4.5,0.1-8.9,1.2-13,3.2H20.9z"
	/>
</svg>
