<?xml version="1.0" encoding="utf-8"?>
<!-- Generator: Adobe Illustrator 26.0.2, SVG Export Plug-In . SVG Version: 6.00 Build 0)  -->
<svg version="1.1" id="Capa_1" xmlns="http://www.w3.org/2000/svg" xmlns:xlink="http://www.w3.org/1999/xlink" x="0px" y="0px"
	 viewBox="0 0 45.4 45.4" style="enable-background:new 0 0 45.4 45.4;" xml:space="preserve">
<style type="text/css">
	.st0{fill:#0065AB;stroke:#0065AB;stroke-width:0.5;stroke-miterlimit:10;}
</style>
<path class="st0" d="M39.2,38.2L39.2,38.2c-0.9,0-1.8-0.2-2.6-0.6c-1.9-1-3.6-2.5-5-4.2c-0.9-1.2-2-2.2-3.2-3.1
	c-3.4-2.3-7.9-2.3-11.3,0c-1.2,0.9-2.3,1.9-3.2,3.1c-1.3,1.7-3.1,3.2-5,4.2c-0.8,0.4-1.7,0.6-2.6,0.6c-1.4,0-2.8-0.6-3.8-1.7
	c-1-1.1-1.7-2.5-1.9-3.9c-0.7-3.6,0-7.2,0.8-10.6c0.1-0.4,0.2-0.8,0.2-1.1c0.4-2.1,1.1-4.2,2-6.1c0.9-2,2.2-3.8,3.8-5.2
	C9,8,11.2,7.2,13.4,7.2c1.8,0,3.6,0.4,5.2,1c0.5,0.2,1,0.4,1.5,0.6c0.8,0.4,1.7,0.7,2.5,0.8c0.9-0.1,1.7-0.4,2.5-0.8
	c0.5-0.2,1-0.4,1.5-0.6c1.7-0.6,3.4-1,5.2-1C34.2,7.2,36.3,8,38,9.5c1.6,1.5,2.9,3.3,3.8,5.2c0.9,1.9,1.6,4,2.1,6.1
	c0.1,0.4,0.2,0.8,0.2,1.1c0.7,3.5,1.5,7,0.8,10.6C44.6,34,44,35.4,43,36.5C42,37.5,40.6,38.2,39.2,38.2z M22.7,26.7
	c2.4,0,4.7,0.7,6.7,2.1c1.3,1,2.5,2.1,3.6,3.4c1.2,1.6,2.7,2.8,4.4,3.8c0.6,0.3,1.2,0.4,1.8,0.4c1.9,0,3.5-1.6,4-4.2
	c0.7-3.2,0-6.6-0.7-9.9c-0.1-0.4-0.2-0.8-0.2-1.2c-0.9-4.2-2.9-8.1-5.4-10.4C35.5,9.6,33.8,8.9,32,9c-1.6,0-3.2,0.3-4.6,0.9
	c-0.4,0.1-0.9,0.4-1.3,0.6c-1,0.5-2.1,0.9-3.2,1h-0.1c-1.1-0.1-2.2-0.5-3.2-1c-0.5-0.2-0.9-0.4-1.3-0.6C16.7,9.3,15.1,9,13.5,9
	c-1.8,0-3.5,0.6-4.8,1.8C6.2,13,4.2,16.9,3.3,21.1c-0.1,0.4-0.2,0.8-0.2,1.2c-0.7,3.3-1.4,6.7-0.7,9.9c0.5,2.5,2.1,4.2,4,4.2
	c0.6,0,1.3-0.2,1.8-0.4c1.7-0.9,3.2-2.2,4.4-3.8c1-1.3,2.2-2.4,3.5-3.4C18.1,27.5,20.4,26.7,22.7,26.7z"/>
<path class="st0" d="M15.1,18.2h-2.4v-2.4c0-0.8-2.4-0.8-2.4,0v2.4H7.9c-0.8,0-0.8,2.4,0,2.4h2.5v2.3c0,0.8,2.4,0.8,2.4,0v-2.3h2.4
	C15.9,20.6,15.9,18.2,15.1,18.2z"/>
<path class="st0" d="M35.9,18.4c0.5-0.5,1.3-0.5,1.9,0c0.5,0.5,0.5,1.3,0,1.9l0,0l0,0c-0.5,0.5-1.3,0.5-1.9,0
	C35.4,19.7,35.4,18.9,35.9,18.4z"/>
<path class="st0" d="M29.6,18.4c0.5-0.6,1.3-0.6,1.9-0.1s0.6,1.3,0.1,1.9l-0.1,0.1c-0.5,0.5-1.4,0.4-1.8-0.1
	C29.2,19.6,29.2,18.9,29.6,18.4L29.6,18.4z"/>
<path class="st0" d="M34.6,21.5c0.5,0.5,0.5,1.3,0,1.9c-0.5,0.5-1.3,0.5-1.9,0c-0.5-0.5-0.5-1.3,0-1.8C33.3,21,34.1,21,34.6,21.5
	C34.6,21.5,34.6,21.5,34.6,21.5z"/>
<path class="st0" d="M34.6,15.2c0.5,0.5,0.5,1.4,0,1.9c-0.5,0.5-1.4,0.5-1.9,0c-0.5-0.5-0.5-1.3,0-1.9l0,0
	C33.3,14.7,34.1,14.7,34.6,15.2C34.6,15.2,34.6,15.2,34.6,15.2z"/>
</svg>
