<svg id="Capa_1" data-name="Capa 1" xmlns="http://www.w3.org/2000/svg" xmlns:xlink="http://www.w3.org/1999/xlink" viewBox="0 0 51.49 44.91"><defs><style>.cls-1,.cls-3{fill:none;}.cls-2{clip-path:url(#clip-path);}.cls-3{stroke:#a359c4;stroke-width:2.81px;}.cls-4{fill:#a359c4;}</style><clipPath id="clip-path" transform="translate(-4.23 -7.53)"><rect class="cls-1" y="0.05" width="59.95" height="59.85"/></clipPath></defs><g class="cls-2"><path class="cls-3" d="M26.19,38.18a6.39,6.39,0,1,0-6.26-6.52v.13a6.32,6.32,0,0,0,6.25,6.39Z" transform="translate(-4.23 -7.53)"/><path class="cls-4" d="M11,50.39A4.43,4.43,0,1,0,6.53,46,4.43,4.43,0,0,0,11,50.39h0" transform="translate(-4.23 -7.53)"/></g><rect class="cls-4" x="9.18" y="40.37" width="13.32" height="1.71" transform="translate(-28.89 16.1) rotate(-45.51)"/><g class="cls-2"><path class="cls-4" d="M41.77,16.36a4.43,4.43,0,1,0-4.94-3.86,4.43,4.43,0,0,0,4.94,3.86h0" transform="translate(-4.23 -7.53)"/></g><rect class="cls-4" x="26.04" y="17.95" width="19.9" height="1.71" transform="translate(-5.07 28.38) rotate(-52.5)"/><g class="cls-2"><path class="cls-4" d="M9.2,21.12a4.43,4.43,0,1,0-4.94-3.86A4.43,4.43,0,0,0,9.2,21.12h0" transform="translate(-4.23 -7.53)"/></g><rect class="cls-4" x="13.73" y="12.76" width="1.71" height="16.94" transform="translate(-15.36 12.35) rotate(-52.5)"/><g class="cls-2"><path class="cls-4" d="M46.89,52.43A4.44,4.44,0,1,0,42.46,48v0a4.43,4.43,0,0,0,4.42,4.44h0" transform="translate(-4.23 -7.53)"/></g><rect class="cls-4" x="39" y="32.19" width="1.71" height="19.95" transform="translate(-22.22 39.15) rotate(-51.07)"/><g class="cls-2"><path class="cls-4" d="M54.74,29.93a4.43,4.43,0,1,0-6.24.66,4.42,4.42,0,0,0,6.24-.66h0" transform="translate(-4.23 -7.53)"/></g><rect class="cls-4" x="32.37" y="28.25" width="19.9" height="1.71" transform="translate(-9.36 1.91) rotate(-12.01)"/></svg>