<?xml version="1.0" encoding="utf-8"?>
<!-- Generator: Adobe Illustrator 26.0.2, SVG Export Plug-In . SVG Version: 6.00 Build 0)  -->
<svg version="1.1" id="Capa_1" xmlns="http://www.w3.org/2000/svg" xmlns:xlink="http://www.w3.org/1999/xlink" x="0px" y="0px"
	 viewBox="0 0 42.4 42.1" style="enable-background:new 0 0 42.4 42.1;" xml:space="preserve">
<style type="text/css">
	.st0{fill:#A25AC4;}
</style>
<g id="elements">
	<path class="st0" d="M39.1,8.9H8c-1.8,0-3.3,1.5-3.3,3.3v22.6c0,1.8,1.5,3.3,3.3,3.3h31.1c1.8,0,3.3-1.5,3.3-3.3V12.2
		C42.4,10.4,41,8.9,39.1,8.9z M18.8,23.4l4.9,6.7c0.2,0.3,0.5,0.5,0.9,0.5c0.4,0,0.7-0.1,1-0.3l3.2-3.1l7.7,8.5H10.3L18.8,23.4z
		 M27.9,24.5l-3.1,3l-5.1-7c-0.2-0.3-0.6-0.5-1-0.5c-0.4,0-0.8,0.2-1,0.5L7.5,35.5c-0.2-0.2-0.4-0.4-0.4-0.7V12.2
		c0-0.5,0.4-0.9,0.9-0.9h31.1c0.5,0,0.9,0.4,0.9,0.9c0,0,0,0,0,0l0,0v22.6c0,0.3-0.2,0.6-0.5,0.8l-9.9-11c-0.2-0.2-0.5-0.4-0.8-0.4
		h-0.1C28.4,24.2,28.1,24.3,27.9,24.5z"/>
	<path class="st0" d="M31.7,22.5c2.1,0,3.9-1.7,3.9-3.9c0-2.1-1.7-3.9-3.9-3.9c-2.1,0-3.9,1.7-3.9,3.9l0,0
		C27.8,20.8,29.6,22.5,31.7,22.5z M30.2,18.6c0-0.8,0.6-1.5,1.4-1.5c0.8,0,1.5,0.6,1.5,1.4c0,0.8-0.6,1.5-1.4,1.5l0,0
		C30.9,20.1,30.2,19.4,30.2,18.6z"/>
	<path class="st0" d="M3.3,30.8c-0.5,0-0.9-0.4-0.9-0.9l0,0l0,0V7.4c0-0.5,0.4-0.9,0.9-0.9c0,0,0,0,0,0h31.1c0.5,0,0.9,0.4,0.9,0.9
		c0,0,0,0,0,0l0,0c0,0.7,0.5,1.2,1.2,1.2c0.7,0,1.2-0.5,1.2-1.2c0-1.8-1.5-3.3-3.3-3.3H3.3C1.5,4.1,0,5.6,0,7.4v22.5
		c0,1.8,1.5,3.3,3.3,3.3c0.7,0,1.2-0.5,1.2-1.2C4.5,31.4,4,30.8,3.3,30.8C3.3,30.8,3.3,30.8,3.3,30.8z"/>
</g>
</svg>
