<?xml version="1.0" encoding="utf-8"?>
<!-- Generator: Adobe Illustrator 26.0.2, SVG Export Plug-In . SVG Version: 6.00 Build 0)  -->
<svg version="1.1" id="Capa_1" xmlns="http://www.w3.org/2000/svg" xmlns:xlink="http://www.w3.org/1999/xlink" x="0px" y="0px"
	 viewBox="0 0 48 48.3" style="enable-background:new 0 0 48 48.3;" xml:space="preserve">
<style type="text/css">
	.st0{fill:#0065AB;}
</style>
<path class="st0" d="M23,11.4l-4.4-3.2c-0.8-0.6-1.8-0.8-2.8-0.7c-1,0.2-1.9,0.7-2.5,1.6l-12,16.4c-0.1,0.1-0.1,0.1-0.1,0.2
	c-0.2,0.2-0.3,0.4-0.3,0.6L0,36.9c0,0.3,0.1,0.7,0.4,0.9C0.6,37.9,0.8,38,1,38c0.1,0,0.3,0,0.4-0.1l9.8-4.2c0.2-0.1,0.4-0.3,0.5-0.5
	c0.1,0,0.1-0.1,0.2-0.2l12-16.4c0.6-0.8,0.9-1.8,0.7-2.8C24.4,12.9,23.8,12,23,11.4z M3.5,25.7l11.4-15.5c0.3-0.4,0.8-0.7,1.3-0.8
	c0.5-0.1,1,0,1.4,0.3l4.4,3.2c0.4,0.3,0.7,0.7,0.7,1.2c0.1,0.5-0.1,1.1-0.4,1.5L10.9,31.1L3.5,25.7z M2.8,27.5l6.7,4.9l-3.1,1.3
	l-3.8-2.8l0,0L2.8,27.5z M4.2,34.6L2,35.5l0.2-2.4L4.2,34.6z"/>
<path class="st0" d="M18.7,15.3l-8.4,11.5c-0.3,0.4-0.2,1,0.2,1.3c0,0,0,0,0,0l0,0c0.2,0.1,0.4,0.2,0.6,0.2c0.3,0,0.6-0.1,0.8-0.4
	l8.4-11.5c0.4-0.4,0.3-1-0.1-1.3c-0.4-0.4-1-0.3-1.3,0.1C18.7,15.2,18.7,15.3,18.7,15.3L18.7,15.3z"/>
<path class="st0" d="M20,37.3H3c-0.6,0-1,0.4-1,1c0,0.6,0.4,1,1,1h17c0.6,0,1-0.4,1-1C21,37.7,20.5,37.3,20,37.3z"/>
<path class="st0" d="M48,13.9c-0.1-1-0.6-1.9-1.5-2.5l-4.4-3.2c-0.8-0.6-1.8-0.8-2.8-0.7c-1,0.2-1.9,0.7-2.5,1.6l-12,16.4
	c0,0.1-0.1,0.1-0.1,0.2c-0.2,0.2-0.3,0.4-0.3,0.6l-1,10.7c0,0.3,0.1,0.7,0.4,0.9c0.2,0.1,0.4,0.2,0.6,0.2c0.1,0,0.3,0,0.4-0.1
	l9.8-4.2c0.2-0.1,0.4-0.3,0.5-0.5l0.2-0.2l12-16.4C47.8,15.9,48.1,14.9,48,13.9z M27.1,25.7l11.4-15.5c0.3-0.4,0.8-0.7,1.3-0.8
	c0.5-0.1,1,0,1.4,0.3l4.4,3.2c0.4,0.3,0.6,0.7,0.7,1.2c0.1,0.5,0,1-0.3,1.5L34.4,31.1L27.1,25.7z M26.3,27.5l6.6,4.9l-3.1,1.3
	L26,30.9l0,0L26.3,27.5z M27.7,34.6l-2.2,0.9l0.2-2.4L27.7,34.6z"/>
<path class="st0" d="M42.2,15.3l-8.4,11.5c-0.1,0.2-0.2,0.5-0.2,0.7c0.1,0.5,0.5,0.8,0.9,0.8c0.3,0,0.6-0.1,0.8-0.4l8.4-11.5
	c0.3-0.5,0.1-1-0.4-1.3C42.9,14.9,42.5,15,42.2,15.3L42.2,15.3z"/>
<path class="st0" d="M43.5,37.3h-17c-0.6,0-1,0.4-1,1c0,0.6,0.4,1,1,1h17c0.6,0,1-0.4,1-1C44.5,37.7,44,37.3,43.5,37.3L43.5,37.3z"
	/>
</svg>
