<?xml version="1.0" encoding="utf-8"?>
<!-- Generator: Adobe Illustrator 26.0.2, SVG Export Plug-In . SVG Version: 6.00 Build 0)  -->
<svg version="1.1" id="Capa_1" xmlns="http://www.w3.org/2000/svg" xmlns:xlink="http://www.w3.org/1999/xlink" x="0px" y="0px"
	 viewBox="0 0 37.7 37.5" style="enable-background:new 0 0 37.7 37.5;" xml:space="preserve">
<style type="text/css">
	.st0{fill:#0065AB;}
</style>
<path class="st0" d="M18.9,20.1c1.4,0,2.6-1.1,2.6-2.5c0-1.4-1.1-2.6-2.5-2.6c-1.4,0-2.6,1.1-2.6,2.5c0,0,0,0,0,0l0,0
	C16.3,19,17.4,20.1,18.9,20.1z"/>
<path class="st0" d="M11.1,20.1c1.4,0,2.6-1.1,2.6-2.6c0-1.4-1.1-2.6-2.6-2.6c-1.4,0-2.6,1.1-2.6,2.6S9.7,20.1,11.1,20.1L11.1,20.1z
	"/>
<path class="st0" d="M26.6,20.1c1.4,0,2.6-1.1,2.6-2.5c0-1.4-1.1-2.6-2.5-2.6s-2.6,1.1-2.6,2.5c0,0,0,0,0,0l0,0
	C24.1,19,25.2,20.1,26.6,20.1C26.6,20.1,26.6,20.1,26.6,20.1L26.6,20.1z"/>
<path class="st0" d="M37.7,17.6c0-8.8-8.5-15.9-18.9-15.9S0,8.8,0,17.6c0,3.2,1.1,6.3,3.1,8.8L1,33.8c-0.2,0.7,0.2,1.4,1,1.6
	c0.3,0.1,0.7,0,0.9-0.1l6.8-3.7c2.9,1.3,6,2,9.1,2C29.3,33.5,37.7,26.4,37.7,17.6z M5.9,26.4c0.1-0.4,0-0.9-0.3-1.2
	c-1.9-2.1-3-4.8-3-7.6c0-7.3,7.3-13.3,16.2-13.3S35,10.3,35,17.6s-7.2,13.3-16.2,13.3c-3,0-5.9-0.7-8.5-2c-0.4-0.2-0.9-0.2-1.3,0
	l-4.6,2.5L5.9,26.4z"/>
</svg>
