<?xml version="1.0" encoding="utf-8"?>
<!-- Generator: Adobe Illustrator 26.0.2, SVG Export Plug-In . SVG Version: 6.00 Build 0)  -->
<svg version="1.1" id="Capa_1" xmlns="http://www.w3.org/2000/svg" xmlns:xlink="http://www.w3.org/1999/xlink" x="0px" y="0px"
	 viewBox="0 0 44.7 44.5" style="enable-background:new 0 0 44.7 44.5;" xml:space="preserve">
<style type="text/css">
	.st0{fill:#0065AB;}
</style>
<path class="st0" d="M37.1,25.1v-0.6c0-2-1.6-3.6-3.6-3.6c0,0,0,0,0,0c-0.5,0-1.1,0.1-1.5,0.3c-0.3-2-2.1-3.3-4.1-3
	c-0.3,0.1-0.7,0.2-1,0.3c-0.3-1.8-1.8-3.1-3.6-3.1c-0.5,0-1,0.1-1.5,0.3V7.5c0-2-1.6-3.6-3.6-3.6s-3.6,1.6-3.6,3.6v15.1
	c-2.5-3.3-4.7-3.7-5.6-3.7c-1.1,0-2.1,0.5-2.6,1.4c-0.5,0.9-0.5,2,0.1,2.9c1.2,2,1.9,3.7,2.7,8.1c0.5,3,1.8,5.8,3.7,8.2
	c0.8,0.9,1.5,1.9,1.9,3.1c0.3,1.2,1.4,2,2.6,2h13.9c1.4,0,2.5-1,2.7-2.3c0.1-1,0.5-2,1-2.9C37.2,35.2,37.1,28.1,37.1,25.1z M18.2,6
	c0.8,0,1.5,0.7,1.5,1.5V19c0,0.6,0.5,1.1,1.1,1.1c0.6,0,1.1-0.5,1.1-1.1c0-0.8,0.7-1.5,1.5-1.5s1.5,0.7,1.5,1.5v2.7
	c0,0.6,0.5,1.1,1.1,1.1c0.6,0,1.1-0.5,1.1-1.1c0-0.8,0.7-1.5,1.5-1.5s1.5,0.7,1.5,1.5l0,0v2.7c0.1,0.6,0.6,1,1.2,1
	c0.5,0,0.9-0.5,1-1c0-0.8,0.7-1.5,1.5-1.5c0.8,0,1.5,0.7,1.5,1.5v0.7c0,2.9,0,9.6-1.9,13c-0.6,1.1-1,2.4-1.2,3.7
	c0,0.3-0.3,0.5-0.6,0.5h-14c-0.3,0-0.5-0.2-0.6-0.4c-0.5-1.5-1.3-2.9-2.4-4c-1.7-2-2.8-4.5-3.2-7.1c-0.9-4.7-1.7-6.6-3-8.8
	c-0.2-0.2-0.2-0.5-0.1-0.7C8.4,21,8.7,20.9,9,20.9c1.3,0,3.5,1.5,5.7,5.9c0.2,0.4,0.7,0.7,1.2,0.6c0.5-0.1,0.8-0.5,0.8-1v-19
	C16.8,6.6,17.4,6,18.2,6z"/>
<path class="st0" d="M13.5,13.6c0.3,0,0.6-0.1,0.8-0.3l0,0c0.4-0.4,0.4-1.1,0-1.5c0,0,0,0,0,0c-2.2-2.2-2.2-5.8,0-8s5.8-2.2,8,0
	s2.2,5.8,0,8c0,0,0,0,0,0l0,0c-0.4,0.4-0.4,1.1,0,1.5c0.2,0.2,0.5,0.3,0.7,0.3l0,0c0.3,0,0.6-0.1,0.8-0.3c3.1-3,3.1-8,0-11
	s-8-3.1-11,0s-3.1,8,0,11c0,0,0,0,0,0l0,0C12.9,13.5,13.2,13.6,13.5,13.6z"/>
</svg>
