<svg id="back" xmlns="http://www.w3.org/2000/svg" viewBox="0 0 27.26 27.26"><defs><style>.cls-1{fill:#5baf07;}</style></defs><path class="cls-1" d="M20.32,29.4a2,2,0,0,0,0,3.9A10.4,10.4,0,0,1,30.7,43.68a1.95,1.95,0,0,0,3.9,0A14.3,14.3,0,0,0,20.32,29.4Z" transform="translate(-18.37 -18.37)"/><path class="cls-1" d="M20.32,18.37a1.95,1.95,0,0,0,0,3.9A21.44,21.44,0,0,1,41.73,43.68a2,2,0,0,0,3.9,0A25.33,25.33,0,0,0,20.32,18.37Z" transform="translate(-18.37 -18.37)"/><path class="cls-1" d="M21,40.43A2.6,2.6,0,1,0,23.6,43h0A2.62,2.62,0,0,0,21,40.43Z" transform="translate(-18.37 -18.37)"/></svg>