<?xml version="1.0" encoding="utf-8"?>
<!-- Generator: Adobe Illustrator 26.0.2, SVG Export Plug-In . SVG Version: 6.00 Build 0)  -->
<svg version="1.1" id="Capa_1" xmlns="http://www.w3.org/2000/svg" xmlns:xlink="http://www.w3.org/1999/xlink" x="0px" y="0px"
	 viewBox="0 0 34.8 34.3" style="enable-background:new 0 0 34.8 34.3;" xml:space="preserve">
<style type="text/css">
	.st0{fill:#0065AB;}
</style>
<path class="st0" d="M28.8,0H5.7C4.2,0,3,1.2,3,2.7v28.9c0,1.5,1.2,2.7,2.7,2.7h23.1c1.5,0,2.7-1.2,2.7-2.7V2.7
	C31.5,1.2,30.3,0,28.8,0z M29.2,2.7v28.9c0,0.2-0.2,0.3-0.4,0.3H5.7c-0.2,0-0.3-0.2-0.4-0.3V2.7c0-0.2,0.2-0.4,0.4-0.4c0,0,0,0,0,0
	h23.1C29,2.3,29.2,2.5,29.2,2.7C29.2,2.7,29.2,2.7,29.2,2.7z"/>
<path class="st0" d="M12.9,6.5c-0.3,0-0.6,0.2-0.8,0.4l-1.3,1.5l0,0C10.5,8,9.7,7.8,9.2,8.2C9,8.4,8.8,8.7,8.7,9
	c-0.1,0.3,0,0.6,0.2,0.9l0.9,1.3c0.4,0.5,1.1,0.6,1.6,0.3c0.1-0.1,0.2-0.1,0.2-0.2l2.2-2.7c0.4-0.5,0.4-1.2-0.1-1.6
	C13.6,6.6,13.3,6.5,12.9,6.5L12.9,6.5z"/>
<path class="st0" d="M24.7,8.4h-8.1c-0.7,0-1.2,0.5-1.2,1.2s0.5,1.2,1.2,1.2l0,0h8.1c0.7,0,1.2-0.5,1.2-1.2S25.3,8.4,24.7,8.4z"/>
<path class="st0" d="M12.9,14.6c-0.3,0-0.6,0.2-0.8,0.4l-1.3,1.5l0,0c-0.4-0.5-1.1-0.6-1.6-0.3c-0.3,0.2-0.4,0.5-0.5,0.8
	c-0.1,0.3,0,0.6,0.2,0.9l0.9,1.3c0.4,0.5,1.1,0.6,1.6,0.3c0.1-0.1,0.2-0.1,0.2-0.2l2.2-2.7c0.2-0.2,0.3-0.6,0.3-0.9
	c0-0.3-0.2-0.6-0.4-0.8C13.5,14.7,13.2,14.6,12.9,14.6z"/>
<path class="st0" d="M24.7,16.5h-8.1c-0.7,0-1.2,0.5-1.2,1.2s0.5,1.2,1.2,1.2l0,0h8.1c0.7,0,1.2-0.5,1.2-1.2S25.3,16.5,24.7,16.5z"
	/>
<path class="st0" d="M12.9,22.7c-0.3,0-0.6,0.2-0.8,0.4l-1.3,1.5l0,0c-0.4-0.5-1.1-0.6-1.6-0.2c-0.3,0.2-0.4,0.5-0.5,0.8
	c-0.1,0.3,0,0.6,0.2,0.9l0.9,1.3c0.2,0.3,0.6,0.5,1,0.5c0.4,0,0.7-0.2,0.9-0.4l2.2-2.7c0.2-0.2,0.3-0.5,0.3-0.9
	C14.2,23.2,13.6,22.7,12.9,22.7L12.9,22.7z"/>
<path class="st0" d="M24.7,24.6h-8.1c-0.7,0-1.2,0.5-1.2,1.2s0.5,1.2,1.2,1.2l0,0h8.1c0.7,0,1.2-0.5,1.2-1.2S25.3,24.6,24.7,24.6z"
	/>
</svg>
