<?xml version="1.0" encoding="utf-8"?>
<!-- Generator: Adobe Illustrator 26.0.2, SVG Export Plug-In . SVG Version: 6.00 Build 0)  -->
<svg version="1.1" id="Capa_1" xmlns="http://www.w3.org/2000/svg" xmlns:xlink="http://www.w3.org/1999/xlink" x="0px" y="0px"
	 viewBox="0 0 51.7 51.7" style="enable-background:new 0 0 51.7 51.7;" xml:space="preserve">
<style type="text/css">
	.st0{fill:#A25AC4;stroke:#A25AC4;stroke-miterlimit:10;}
	.st1{fill:#A25AC4;}
</style>
<g id="elements">
	<path class="st0" d="M27.3,0.7c-9.8,0-17.8,8-17.8,17.8C9.5,28,26,49.4,26.7,50.3l0.6,0.8l0.6-0.8c0.7-0.9,17.2-22.3,17.2-31.8
		C45.1,8.6,37.1,0.7,27.3,0.7z M27.3,48.6c-3-4-16.3-22.1-16.3-30.1c0-9,7.3-16.3,16.3-16.3c9,0,16.3,7.3,16.3,16.3
		C43.6,26.5,30.3,44.6,27.3,48.6z"/>
	<path class="st1" d="M27.3,5.2c-7.4,0-13.4,6-13.4,13.4S19.9,32,27.3,32s13.4-6,13.4-13.4l0,0l0,0C40.7,11.2,34.7,5.2,27.3,5.2z
		 M38.2,18.6c0,6-4.9,10.9-10.9,10.9s-10.9-4.9-10.9-10.9S21.2,7.7,27.3,7.7c0,0,0,0,0,0l0,0C33.3,7.7,38.2,12.6,38.2,18.6z"/>
	<path class="st1" d="M36.3,15.7l-6.2-0.9l-2.8-5.6l-2.8,5.6l-6.2,0.9l4.5,4.4l-1.1,6.2l5.5-2.9l5.5,2.9l-1.1-6.2L36.3,15.7z
		 M30.2,22.6l-2.9-1.5l-2.9,1.5l0.6-3.2l-2.3-2.3l3.2-0.5l1.5-2.9l1.5,2.9l3.2,0.5l-2.3,2.3L30.2,22.6z"/>
</g>
</svg>
