<?xml version="1.0" encoding="utf-8"?>
<!-- Generator: Adobe Illustrator 26.0.2, SVG Export Plug-In . SVG Version: 6.00 Build 0)  -->
<svg version="1.1" id="Capa_1" xmlns="http://www.w3.org/2000/svg" xmlns:xlink="http://www.w3.org/1999/xlink" x="0px" y="0px"
	 viewBox="0 0 50.9 51.7" style="enable-background:new 0 0 50.9 51.7;" xml:space="preserve">
<style type="text/css">
	.st0{fill:#0065AB;stroke:#0065AB;stroke-width:0.75;stroke-miterlimit:10;}
</style>
<path class="st0" d="M32.5,4.5c0-2.7-0.6-3.7-0.7-3.8l-0.2-0.3H19.3l-0.2,0.3c-0.1,0.2-0.6,1.1-0.6,3.8c0.2,3,0.8,5.9,1.8,8.8
	c-0.4,0.7-0.7,1.5-0.6,2.3c0,0.8,0.1,1.7,0.5,2.5v9l0.2,24.3h1.4l-0.1-7.2L21.5,27v-9.4l-0.1-0.2c-0.3-0.6-0.4-1.2-0.3-1.9
	c-0.1-0.5,0.1-1.1,0.3-1.5l0,0l0.5-0.3l-0.2-0.5c0,0-1.8-5.4-1.8-8.7c0-0.9,0.1-1.8,0.3-2.7h10.7c0.2,0.9,0.3,1.8,0.3,2.7
	c0,3.3-1.8,8.7-1.8,8.7l-0.2,0.5l0.5,0.3l0,0c0.3,0.5,0.4,1,0.3,1.5c0,0.6-0.1,1.3-0.3,1.9l-0.1,0.2v9.4l-0.2,17.1l-0.1,7.2h1.4
	l0.2-24.3v-9c0.3-0.8,0.5-1.6,0.5-2.5c0.1-0.8-0.2-1.6-0.6-2.3C31.7,10.5,32.3,7.5,32.5,4.5z"/>
<path class="st0" d="M24.6,29.5c0.5-0.5,1.3-0.5,1.7,0s0.5,1.3,0,1.7c-0.5,0.5-1.3,0.5-1.7,0C24.1,30.8,24.1,30,24.6,29.5
	C24.6,29.5,24.6,29.5,24.6,29.5z"/>
<path class="st0" d="M24.6,24c0.5-0.5,1.3-0.5,1.7,0c0.5,0.5,0.5,1.3,0,1.7c-0.5,0.5-1.3,0.5-1.7,0C24.1,25.2,24.1,24.4,24.6,24
	C24.6,24,24.6,24,24.6,24z"/>
<path class="st0" d="M24.6,35.2c0.5-0.5,1.3-0.5,1.7,0s0.5,1.3,0,1.7c-0.5,0.5-1.3,0.5-1.7,0C24.1,36.5,24.1,35.7,24.6,35.2
	C24.6,35.2,24.6,35.2,24.6,35.2z"/>
<path class="st0" d="M24.6,40.9c0.5-0.5,1.3-0.5,1.7,0s0.5,1.3,0,1.7c-0.5,0.5-1.3,0.5-1.7,0C24.1,42.2,24.1,41.4,24.6,40.9
	C24.6,40.9,24.6,40.9,24.6,40.9z"/>
<path class="st0" d="M24.6,46.7c0.5-0.5,1.3-0.5,1.7,0s0.5,1.3,0,1.7c-0.5,0.5-1.3,0.5-1.7,0C24.1,47.9,24.1,47.1,24.6,46.7
	C24.6,46.7,24.6,46.7,24.6,46.7z"/>
<path class="st0" d="M25.5,9.5c-2,0-2.4-0.6-2.4-0.6l0.7-3.7h3.4l0.7,3.6C27.8,8.9,27.5,9.5,25.5,9.5z"/>
</svg>
