<?xml version="1.0" encoding="utf-8"?>
<!-- Generator: Adobe Illustrator 26.0.2, SVG Export Plug-In . SVG Version: 6.00 Build 0)  -->
<svg version="1.1" id="Capa_1" xmlns="http://www.w3.org/2000/svg" xmlns:xlink="http://www.w3.org/1999/xlink" x="0px" y="0px"
	 viewBox="0 0 46 46.1" style="enable-background:new 0 0 46 46.1;" xml:space="preserve">
<style type="text/css">
	.st0{fill:#FD8417;}
</style>
<g id="elements">
	<path class="st0" d="M24.5,0c-4.7,0-8.4,3.8-8.5,8.5v24.2c0,1.3,0.5,2.5,1.5,3.4c1.9,1.9,5,1.9,6.9,0c0.9-0.9,1.5-2.2,1.5-3.5V12.5
		c-0.1-0.8-0.7-1.4-1.5-1.3c-0.7,0.1-1.2,0.6-1.3,1.3v20.2c0,1.1-0.9,2-2,2H21l0,0c-0.6,0-1.1-0.2-1.5-0.6c-0.4-0.4-0.6-0.9-0.6-1.5
		V8.5c-0.1-3.1,2.3-5.8,5.4-5.9C27.4,2.4,30,4.9,30.2,8c0,0.2,0,0.3,0,0.5v26.2c0,4.7-4.2,8.6-9.2,8.7s-9.2-4-9.2-8.7V22.6
		c0.1-0.8-0.5-1.5-1.3-1.5C9.7,21,9.1,21.5,9,22.3l0,0c0,0.1,0,0.2,0,0.2v12.1c0,6.4,5.1,11.5,11.4,11.5l0.5-0.1
		c6.3,0.3,11.7-4.6,12-10.9l0,0c0-0.2,0-0.3,0-0.5V8.5C33,3.8,29.2,0,24.5,0L24.5,0z"/>
</g>
</svg>
