<?xml version="1.0" encoding="utf-8"?>
<!-- Generator: Adobe Illustrator 26.0.2, SVG Export Plug-In . SVG Version: 6.00 Build 0)  -->
<svg version="1.1" id="Capa_1" xmlns="http://www.w3.org/2000/svg" xmlns:xlink="http://www.w3.org/1999/xlink" x="0px" y="0px"
	 viewBox="0 0 38.5 38.6" style="enable-background:new 0 0 38.5 38.6;" xml:space="preserve">
<style type="text/css">
	.st0{fill:#0065AB;}
</style>
<path class="st0" d="M12.2,14.7H7.5c-0.7,0-1.2,0.5-1.2,1.2v3.3c0,0.7,0.5,1.2,1.2,1.2h4.8c0.7,0,1.2-0.6,1.2-1.2v-3.3
	C13.5,15.3,12.9,14.7,12.2,14.7z M11.6,16.5v2.1H8.1v-2.1H11.6z"/>
<path class="st0" d="M21.6,14.7h-4.7c-0.7,0-1.2,0.5-1.2,1.2v3.3c0,0.7,0.5,1.2,1.2,1.2h4.7c0.7,0,1.2-0.6,1.2-1.2v-3.3
	C22.8,15.3,22.3,14.7,21.6,14.7L21.6,14.7z M21,16.5v2.1h-3.5v-2.1H21z"/>
<path class="st0" d="M21.8,8.5H7.2c-0.6,0-1,0.5-1,1.1c0,0.6,0.5,1,1,1h14.5c0.6,0,1-0.5,1-1C22.8,9,22.3,8.5,21.8,8.5L21.8,8.5z"/>
<path class="st0" d="M21.8,11.8H7.2c-0.6,0.1-1,0.6-1,1.2c0,0.5,0.4,0.9,1,1h14.5c0.6-0.1,1-0.6,1-1.2
	C22.7,12.3,22.3,11.9,21.8,11.8z"/>
<path class="st0" d="M38.5,17.6c0,0,0-0.1,0-0.1c-0.1-1.3-1.2-2.4-2.6-2.4h-7.6V7.4c0-1.4-1.2-2.6-2.6-2.6H2.6C1.2,4.8,0,6,0,7.4
	v13.7c0,1.4,1.2,2.6,2.6,2.6h8.1V31c0,1.3,0.9,2.3,2.2,2.5c0.1,0,0.1,0.1,0.2,0.1h22.9c1.4,0,2.6-1.2,2.6-2.6V17.6z M12.8,23.6h4.1
	c0.1,0,0.2,0.1,0.4,0.1h14.5c0.6,0,1-0.5,1-1s-0.5-1-1-1h-3.5c0-0.2,0.1-0.4,0.1-0.5v-0.6h3.4c0.6,0,1-0.5,1-1c0-0.6-0.5-1.1-1-1.1
	h-3.4v-1.1h7.6c0.3,0,0.5,0.2,0.5,0.5V31c0,0.3-0.2,0.5-0.5,0.5H13.2c-0.3,0-0.5-0.2-0.5-0.5c0,0,0,0,0,0L12.8,23.6z M25.8,21.5H2.6
	c-0.3,0-0.5-0.2-0.5-0.5l0,0l0,0V7.4c0-0.3,0.2-0.5,0.5-0.5h23.1c0.3,0,0.5,0.2,0.5,0.5c0,0,0,0,0,0v13.7
	C26.2,21.3,26,21.5,25.8,21.5C25.7,21.5,25.7,21.5,25.8,21.5L25.8,21.5L25.8,21.5z"/>
<path class="st0" d="M26.8,30.5h4.7c0.7,0,1.2-0.6,1.2-1.2V26c0-0.7-0.5-1.2-1.2-1.2h-4.7c-0.7,0-1.2,0.6-1.2,1.2v3.3
	C25.5,30,26.1,30.5,26.8,30.5z M30.9,26.6v2.1h-3.5v-2.1H30.9z"/>
<path class="st0" d="M17.4,30.5h4.7c0.7,0,1.2-0.6,1.2-1.2V26c0-0.7-0.5-1.2-1.2-1.2h-4.7c-0.7,0-1.2,0.6-1.2,1.2v3.3
	C16.2,30,16.7,30.5,17.4,30.5z M18,28.7v-2.1h3.5v2.1H18z"/>
</svg>
