<?xml version="1.0" encoding="utf-8"?>
<!-- Generator: Adobe Illustrator 26.0.2, SVG Export Plug-In . SVG Version: 6.00 Build 0)  -->
<svg version="1.1" id="Capa_1" xmlns="http://www.w3.org/2000/svg" xmlns:xlink="http://www.w3.org/1999/xlink" x="0px" y="0px"
	 viewBox="0 0 42.8 42.8" style="enable-background:new 0 0 42.8 42.8;" xml:space="preserve">
<style type="text/css">
	.st0{fill:#A25AC4;}
</style>
<path class="st0" d="M39.3,23.9c-0.2-0.3-0.5-0.4-0.8-0.5c-0.3,0-0.6,0-0.9,0.2c-0.3,0.2-0.4,0.5-0.5,0.8c0,0.3,0,0.6,0.2,0.9
	c2.6,3.5,3.6,6.6,2.6,8.1c-2,3-11.8,1.3-22.8-6c-4.6-3-8.7-6.7-12.1-11c-2.4-3.3-3.2-6.2-2.2-7.6s4.5-1.8,8.9-0.6
	c0.7,0.1,1.3-0.4,1.4-1c0.1-0.6-0.2-1.1-0.7-1.3C6.7,4.3,2.6,4.9,0.9,7.4s-0.8,6.1,2.3,10.4c3.5,4.6,7.8,8.5,12.7,11.7
	c7.3,4.9,14.8,7.8,20.2,7.8c2.8,0,4.9-0.8,6-2.5C43.7,32.3,42.7,28.4,39.3,23.9z"/>
<path class="st0" d="M5.7,15.1l-0.2,0.4l2.1,1.1l0.2-0.4c0.3-0.5,0.6-1,1-1.5c0.1,0.6,0.5,1.1,1,1.4c1,0.5,2.3,0.4,3.3-0.1
	c0.3-0.1,0.5-0.2,0.8-0.3l0.1,0.3c0.2,1.2,0.5,3.1,2.4,3.7c0.7,0.2,1.4,0.1,2-0.3l0.4-0.1l0.9,0.3c0.7,0.3,1.4,0.4,2.1,0.5
	c0.2,0,0.5,0,0.7,0c1.2,0.1,2.4-0.5,3.2-1.4c0.4-0.5,0.6-1.2,0.5-1.9c-0.2-0.9-1-1.6-1.9-1.9c-0.2-0.1-0.4-0.2-0.6-0.3
	c-0.2-0.1-0.3-0.4-0.2-0.6c0.1-0.2,0.3-0.4,0.6-0.4c0.5,0,0.9-0.1,1.3-0.2c0.9-0.5,1.4-1.4,1.4-2.4c0.1-0.2,0.3-0.4,0.4-0.6
	c3.2,1.8,5.6,4.7,6.8,8.2c-1.5-0.3-3,0.3-4,1.5c-0.8,1-3.8,1.4-4.1,1.4c-0.7-0.2-1.5-0.2-2.3,0c-1,0.4-1.7,1.3-2.1,2.3
	c-0.3,0.7-0.3,1.5-0.1,2.2c0.7,1.7,2.4,1.8,3.5,1.9c0.6,0,1.2,0.3,1.6,0.8c-0.3,0.9,0.1,2,0.9,2.5c0.6,0.5,1.4,0.8,2.2,0.8
	c0.8,0,1.5-0.3,2-0.8c0.4-0.5,0.7-1,0.8-1.6l-0.5-0.2h0.5c0,0,0.3,0.1,0.6,0.2c-0.4,0.8-0.9,1.6-1.5,2.3l-0.3,0.4l1.9,1.5l0.3-0.4
	c2.3-2.9,3.6-6.5,3.6-10.3c0-9.2-7.5-16.7-16.7-16.7C14.2,6.5,8.6,9.8,5.7,15.1L5.7,15.1z M21,13.6c-0.3,1.2,0.1,2.4,1.1,3.1
	c0.3,0.2,0.6,0.4,1,0.6l0.4,0.2c-0.3,0.3-0.8,0.5-1.3,0.4h-0.3c-0.6-0.1-1.2-0.3-1.7-0.5l-1-0.3C19,17,18.9,17,18.7,17
	c-0.5,0-1,0.1-1.4,0.4c-0.1,0-0.2,0.1-0.3,0.1c-0.4-0.2-0.5-0.7-0.7-1.8c-0.1-0.5-0.2-1-0.4-1.5l-0.2-0.5l-0.5-0.2
	c-1-0.3-2.1-0.2-3,0.3c-0.4,0.2-0.7,0.3-1.1,0.3l0,0c-0.1-0.7,0.1-1.4,0.3-2l0,0V12c3.7-2.9,8.7-3.8,13.2-2.4
	c-0.1,0.4-0.2,0.8-0.3,1.2c0,0.2-0.1,0.4-0.1,0.6h-0.7C22.3,11.5,21.3,12.4,21,13.6z M28.5,27.7c-0.7-1.3-2.1-2.1-3.6-2.2
	c-0.7,0-1.3-0.1-1.4-0.4c0-0.1,0-0.2,0-0.3c0.3-0.8,0.6-0.9,0.7-1c0.3,0,0.7,0,1,0.1l0.5,0.1c2.3,0.3,4.5-0.6,6-2.3
	c0.8-0.6,1.9-0.8,2.8-0.3c0,0.3-0.1,1.1-0.1,1.7c0,1.4-0.2,2.8-0.6,4.2l-0.4-0.2c-0.4-0.4-1-0.5-1.5-0.4c-0.8,0.2-1.5,0.7-1.8,1.5
	c-0.1,0.2-0.2,0.5-0.2,0.7c0,0.2-0.1,0.4-0.2,0.6c-0.1,0.1-0.3,0.1-0.4,0c-0.2,0-0.4-0.1-0.6-0.3C28.9,28.7,28.8,28.2,28.5,27.7z"/>
<path class="st0" d="M26.6,36c-2.3,1.1-4.9,1.6-7.5,1.4c0.3-0.4,0.6-0.9,0.7-1.4c0.4-1.2,0-2.6-1-3.5c-0.8-0.5-1.7-0.8-2.7-0.6
	c-0.6,0-1.2,0.3-1.6,0.8c-0.1,0.1-0.1,0.2-0.1,0.3c-0.1-0.1-0.2-0.3-0.2-0.4c-0.4-1.3-1.5-2.3-2.9-2.6c-0.3-1.7-1.9-2.9-3.6-2.6
	c0,0,0,0,0,0c-0.3,0.1-0.6,0.1-0.9,0.3c-0.5-1.5-0.8-3-0.8-4.5V22l-2.4-0.1v1.3c0,9.2,7.5,16.7,16.7,16.7c2.6,0,5.1-0.6,7.4-1.7
	l0.4-0.2L27,35.8L26.6,36z M17.5,35.2L17.5,35.2c-0.2,0.6-0.6,1-1,1.5c0,0.1-0.1,0.1-0.1,0.2c-3.7-1.1-6.8-3.5-8.6-6.9
	c0.3-0.2,0.8-0.2,1,0.2c0.1,0.1,0.1,0.3,0.1,0.4c0,0.4,0.1,0.8,0.3,1.1c0.3,0.4,0.8,0.7,1.3,0.7l0.2,0.1c0.8,0.4,1.2,0.7,1.2,0.9
	c0.4,1.1,1.3,2,2.5,2.3c1,0.2,2-0.4,2.3-1.3c0.2,0,0.5,0,0.7,0.2C17.6,34.6,17.6,35,17.5,35.2z"/>
</svg>
