<svg id="Capa_1" data-name="Capa 1" xmlns="http://www.w3.org/2000/svg" viewBox="0 0 31.04 32.17"><defs><style>.cls-1{fill:#0065ab;}</style></defs><path class="cls-1" d="M44.58,15.94H19.42a3,3,0,0,0-2.94,3V45.11a3,3,0,0,0,2.94,3H44.58a3,3,0,0,0,2.94-3V18.89A3,3,0,0,0,44.58,15.94Zm.38,3V45.11a.38.38,0,0,1-.38.38H19.42a.38.38,0,0,1-.38-.38h0V18.89a.4.4,0,0,1,.38-.39H44.58a.39.39,0,0,1,.42.36v0Z" transform="translate(-16.48 -15.94)"/><path class="cls-1" d="M39.84,33.55H34.72A1.47,1.47,0,0,0,33.25,35v5.35a1.47,1.47,0,0,0,1.47,1.47h5.12a1.47,1.47,0,0,0,1.47-1.47h0V35A1.47,1.47,0,0,0,39.84,33.55Zm-4.33,6V35.81h3.54v3.77Z" transform="translate(-16.48 -15.94)"/><path class="cls-1" d="M29.64,33.55H24.51A1.47,1.47,0,0,0,23,35v5.37a1.47,1.47,0,0,0,1.47,1.47H29.6a1.47,1.47,0,0,0,1.47-1.47h0V35A1.47,1.47,0,0,0,29.64,33.55Zm-4.34,6V35.81h3.55v3.77Z" transform="translate(-16.48 -15.94)"/><path class="cls-1" d="M40,23.33H24.23a1.28,1.28,0,0,0,0,2.56H40a1.28,1.28,0,0,0,0-2.56Z" transform="translate(-16.48 -15.94)"/><path class="cls-1" d="M40,28.65H24.23a1.28,1.28,0,1,0,0,2.56H40a1.28,1.28,0,0,0,0-2.56Z" transform="translate(-16.48 -15.94)"/></svg>