<?xml version="1.0" encoding="utf-8"?>
<!-- Generator: Adobe Illustrator 26.0.2, SVG Export Plug-In . SVG Version: 6.00 Build 0)  -->
<svg version="1.1" id="Capa_1" xmlns="http://www.w3.org/2000/svg" xmlns:xlink="http://www.w3.org/1999/xlink" x="0px" y="0px"
	 viewBox="0 0 42.9 42.9" style="enable-background:new 0 0 42.9 42.9;" xml:space="preserve">
<style type="text/css">
	.st0{fill:#0065AB;}
</style>
<path class="st0" d="M34,20.9c2.6,0,4.7-2.5,4.7-5.6c0.2-2.4-1.7-4.5-4.1-4.7c-0.2,0-0.4,0-0.6,0c-2.4-0.2-4.5,1.6-4.7,4.1
	c0,0.2,0,0.4,0,0.6C29.3,18.4,31.4,20.9,34,20.9z M31.1,15.3c-0.1-1.4,0.9-2.7,2.4-2.9c0,0,0,0,0,0c0.2,0,0.4,0,0.5,0
	c1.4-0.2,2.7,0.9,2.9,2.3c0,0.2,0,0.4,0,0.5c0,2.1-1.3,3.7-2.9,3.7S31.1,17.4,31.1,15.3z"/>
<path class="st0" d="M8.9,20.9c2.6,0,4.7-2.5,4.7-5.6c0.2-2.4-1.7-4.5-4.1-4.7c-0.2,0-0.4,0-0.6,0c-2.4-0.2-4.5,1.6-4.7,4
	c0,0,0,0,0,0c0,0.2,0,0.4,0,0.6C4.2,18.4,6.3,20.9,8.9,20.9z M6,15.3c-0.1-1.4,0.9-2.7,2.4-2.9c0,0,0,0,0,0c0.2,0,0.4,0,0.5,0
	c1.4-0.2,2.7,0.9,2.9,2.3c0,0,0,0,0,0c0,0.2,0,0.4,0,0.5c0,2.1-1.3,3.7-2.9,3.7S6,17.4,6,15.3L6,15.3z"/>
<path class="st0" d="M21.4,20.5c3,0,5.3-2.9,5.3-6.3c0.2-2.8-1.9-5.1-4.7-5.3c0,0,0,0,0,0c-0.2,0-0.5,0-0.7,0
	c-2.8-0.2-5.1,1.9-5.3,4.6c0,0,0,0,0,0c0,0.2,0,0.5,0,0.7C16.1,17.7,18.5,20.5,21.4,20.5z M17.9,14.2c-0.2-1.8,1.1-3.3,2.9-3.5
	c0.2,0,0.4,0,0.7,0c1.8-0.2,3.3,1.1,3.5,2.8c0,0,0,0,0,0c0,0.2,0,0.4,0,0.7c0,2.5-1.6,4.5-3.5,4.5S17.9,16.7,17.9,14.2z"/>
<path class="st0" d="M42.9,28.8l-0.8-4.1c-0.4-2.5-2.5-4.3-5-4.4h-0.7c-0.1,0-0.2,0-0.3,0.1L34,22.8l-2.1-2.4
	c-0.1-0.1-0.2-0.1-0.3-0.1h-0.7c-1,0-1.9,0.3-2.8,0.8c-0.9-0.6-2-0.9-3.2-1h-0.8c-0.1,0-0.2,0-0.3,0.1l-2.5,2.8l-2.5-2.8
	c-0.1-0.1-0.2-0.1-0.3-0.1h-0.7c-1.1,0-2.2,0.3-3.2,1c-0.8-0.5-1.8-0.8-2.8-0.8h-0.7c-0.1,0-0.2,0-0.3,0.1l-2.1,2.3l-2.1-2.4
	c-0.1-0.1-0.2-0.1-0.3-0.1H5.8c-2.5,0-4.6,1.9-5,4.3L0,28.9c-0.2,1.3,0.6,2.5,1.8,3c3.3,1.3,6.9,1.6,10.5,1c0.3,0.3,0.6,0.4,1,0.6
	c5.3,2,11.1,2,16.4,0c0.4-0.1,0.7-0.3,1-0.6c3.5,0.6,7.1,0.2,10.5-1C42.4,31.3,43.1,30.1,42.9,28.8z M27.7,26.2h-1.1
	c-0.2,0-0.4,0.2-0.4,0.4v6c-3.2,0.7-6.4,0.7-9.6,0v-6c0-0.2-0.2-0.4-0.4-0.4l0,0h-1.1c-0.2,0-0.4,0.2-0.4,0.4l0,0l0,0v5.5l-1-0.3
	c-0.1,0-0.2-0.1-0.4-0.2l-0.2-0.2c-0.2-0.3-0.4-0.6-0.3-1l0.9-4.9c0-0.2,0.1-0.5,0.2-0.7c0.1-0.2,0.2-0.4,0.3-0.7l0.1-0.1l0.1-0.2
	c0.1-0.1,0.1-0.2,0.2-0.3l0.1-0.1l0.1-0.1l0.1-0.1l0.2-0.2c0.7-0.6,1.7-0.9,2.6-0.9H18l3.2,3.6c0.1,0.1,0.2,0.1,0.3,0.1l0,0
	c0.1,0,0.2,0,0.3-0.1l3.1-3.6H25c2,0,3.7,1.5,3.9,3.5l0.9,4.7c0,0.1,0,0.2,0,0.3c0,0.3-0.1,0.5-0.3,0.8l-0.2,0.2
	c-0.1,0.1-0.2,0.2-0.4,0.2l-1,0.3v-5.5C28,26.4,27.9,26.2,27.7,26.2z M11.2,30.1c0,0.2,0,0.3,0,0.5V31c0,0.1,0,0.2,0,0.2
	c-2.1,0.3-4.3,0.2-6.3-0.3v-5c0-0.2-0.2-0.4-0.4-0.4h-1c-0.2,0-0.4,0.2-0.4,0.4v4.5l-0.7-0.2c-0.4-0.2-0.7-0.6-0.6-1l0.8-4.2
	c0.2-1.6,1.6-2.8,3.2-2.8l2.8,3.1c0.1,0.1,0.2,0.1,0.3,0.1c0.1,0,0.2-0.1,0.3-0.1l2.7-3.1h0c0.5,0,0.9,0.1,1.4,0.3
	c-0.3,0.3-0.5,0.7-0.7,1.1c-0.1,0.2-0.2,0.5-0.3,0.8v0.1c-0.1,0.3-0.1,0.5-0.2,0.8L11.2,30.1z M39.8,30.5v-4.6
	c0-0.2-0.2-0.4-0.4-0.4h-1.1c-0.2,0-0.4,0.2-0.4,0.4v5c-2.1,0.5-4.2,0.5-6.3,0.3V31c0-0.1,0-0.2,0-0.3v-0.2c0-0.2,0-0.3,0-0.5
	l-0.9-4.8c0-0.3-0.1-0.6-0.2-0.8v-0.1c-0.1-0.2-0.2-0.5-0.3-0.7l-0.1-0.2c-0.1-0.2-0.2-0.4-0.3-0.6l-0.1-0.2l-0.2-0.2
	c0.4-0.2,0.9-0.3,1.4-0.3l2.8,3.1c0.1,0.1,0.2,0.1,0.3,0.1c0.1,0,0.2,0,0.3-0.1l2.7-3.1l0,0c1.7,0,3.1,1.2,3.3,2.8l0.8,4.1
	c0.1,0.5-0.2,0.9-0.7,1.1L39.8,30.5z"/>
</svg>
