<?xml version="1.0" encoding="utf-8"?>
<!-- Generator: Adobe Illustrator 26.0.2, SVG Export Plug-In . SVG Version: 6.00 Build 0)  -->
<svg version="1.1" id="Capa_1" xmlns="http://www.w3.org/2000/svg" xmlns:xlink="http://www.w3.org/1999/xlink" x="0px" y="0px"
	 viewBox="0 0 42.2 42.1" style="enable-background:new 0 0 42.2 42.1;" xml:space="preserve">
<style type="text/css">
	.st0{fill:#0065AB;}
</style>
<g id="CvqpxA.tif">
	<path class="st0" d="M40.6,41.1L40.4,41c-1.7-1.3-3.5-2.6-5.2-4c-2.1-1.6-4.2-3.2-6.2-5c-0.2-0.2-0.5-0.3-0.8-0.4
		c-0.4-0.1-0.9-0.1-1.3-0.2c-1.4-0.2-2.7-0.6-4-1c-2-0.6-3.9-1.4-5.7-2.4c-1.3-0.7-2.6-1.2-4.1-1.5C11,26.2,9,26,6.9,25.9
		c-1.1-0.1-2.1-0.2-3.1-0.3c-0.6-0.1-1.2-0.3-1.7-0.6c-0.3-0.2-0.5-0.4-0.6-0.7c-0.2-0.3,0-0.7,0.3-0.9h0.1c0.2-0.1,0.3-0.1,0.5-0.2
		c0.5-0.1,1-0.1,1.6-0.1c1.7,0.1,3.4,0.2,5,0.3c1.3,0,2.6,0.1,3.8,0c0.4,0,0.8-0.1,1.2-0.2c0.3,0,0.5-0.3,0.6-0.5
		c0.1-0.7,0-0.9-0.5-1.2c-0.1-0.1-0.2-0.1-0.3-0.2c-0.7-0.3-1.4-0.7-2.2-0.9c-2.1-0.8-4.2-1.6-6.2-2.5c-1.1-0.5-2.2-1.1-3.1-1.8
		c-0.3-0.2-0.6-0.5-0.8-0.9c-0.2-0.4-0.1-0.9,0.3-1.1c0,0,0,0,0,0C1.7,14.1,1.8,14,1.9,14c0.1,0,0.3,0,0.4,0
		c0.6,0.1,1.2,0.3,1.7,0.6c2.8,1.2,5.7,2.3,8.6,3.3c0.5,0.2,1,0.3,1.5,0.4c0.2,0,0.4,0,0.5-0.2c0.1-0.2,0.1-0.4,0-0.6
		c-0.1-0.2-0.3-0.4-0.5-0.5c-0.4-0.3-0.8-0.6-1.2-0.9c-2-1.2-4-2.4-6-3.6c-1.1-0.7-2.2-1.4-3.2-2c-0.4-0.3-0.7-0.6-1-0.9
		C2.5,9.3,2.4,9,2.5,8.7c0.1-0.5,0.6-0.9,1.1-0.8h0.1c0.8,0.1,1.6,0.4,2.3,0.8c2.7,1.4,5.4,2.7,8,4.3c0.7,0.4,1.5,0.8,2.3,1.2
		c0.2,0.1,0.5,0.1,0.8,0.1c0.3,0,0.6-0.3,0.6-0.6c0-0.1,0-0.1,0-0.2c-0.1-0.4-0.3-0.7-0.5-1c-0.5-0.6-1-1.2-1.6-1.8
		c-2-1.8-4.1-3.5-6.4-4.9c-0.5-0.3-0.9-0.6-1.3-1C7.6,4.7,7.4,4.4,7.3,4.1C7.1,3.7,7.3,3.2,7.7,3C7.8,3,7.9,2.9,8.1,3
		c0.6,0,1.2,0.2,1.8,0.4c1.3,0.5,2.5,1.1,3.7,1.9c1.9,1.1,3.6,2.3,5.3,3.6c1.1,1,2.3,1.9,3.5,2.8c0.8,0.7,1.8,1.2,2.9,1.4
		c0.3,0.1,0.6,0.1,0.9,0.1c0.3,0,0.5-0.2,0.4-0.5c0-0.2,0-0.5-0.1-0.7c-0.3-1.1-0.6-2.1-0.8-3.2c-0.2-0.8-0.3-1.7-0.3-2.6
		c0.1-1.4,1.2-2.6,2.6-2.8c0.4-0.1,0.6,0.1,0.7,0.5c0,0.3,0,0.5,0,0.8c0,1,0.1,1.9,0.4,2.8c0.6,2.1,1.4,4.1,2.4,6
		c0.3,0.5,0.6,1.1,0.8,1.7c0.3,1.1,0.6,2.3,0.8,3.4c0.3,1.3,1,2.5,2,3.4c0.4,0.4,0.8,0.8,1.2,1.1c1.6,1.3,3.3,2.5,4.9,3.8l1.2,1
		v-6.5H42l-5.5,0.2c-0.1,0-0.2,0-0.3-0.1c-0.5-0.5-0.9-0.9-1.3-1.4c-0.2-0.3-0.4-0.6-0.5-0.9c-0.3-1.1-0.5-2.3-0.8-3.4
		c-0.2-1-0.5-2.1-1-3c-0.9-1.8-1.6-3.6-2.2-5.5c-0.4-0.9-0.5-1.9-0.5-2.9c0-0.2,0-0.4,0-0.6c0-0.9-0.7-1.7-1.7-1.7
		c-0.1,0-0.2,0-0.3,0c-1.2,0.2-2.3,1-3,2c-0.6,0.9-0.8,2.1-0.6,3.1c0.1,1.2,0.4,2.4,0.8,3.5c0.1,0.3,0.2,0.6,0.3,1v0.1
		c-0.3-0.1-0.7-0.3-1-0.5c-0.8-0.5-1.6-1-2.3-1.6c-1.1-0.9-2.1-1.8-3.2-2.6c-1.5-1.1-3-2.1-4.6-3c-1.2-0.7-2.5-1.3-3.8-1.9
		C9.6,2,8.9,1.8,8.1,1.8C7.3,1.8,6.6,2.3,6.3,3C5.9,3.8,6.1,4.8,6.7,5.5c0.4,0.4,0.9,0.8,1.4,1.2c2.2,1.4,4.4,3,6.3,4.8
		c0.2,0.2,0.2,0.2,0.1,0.5l-0.2-0.1c-1.8-1.1-3.7-2.2-5.6-3.1c-1-0.5-2-1-3.1-1.5C4.9,6.9,4.2,6.7,3.4,6.7c-1.2,0-2.2,1-2.1,2.2
		c0,0.1,0,0.3,0,0.4c0.1,0.6,0.5,1.2,1,1.5c0.7,0.6,1.4,1.1,2.2,1.6c1.8,1.1,3.6,2.1,5.3,3.1l0.2,0.1c-0.1,0-0.2,0-0.3-0.1l-5.6-2.2
		c-0.7-0.3-1.4-0.5-2.2-0.5c-1.2,0.1-2,1.1-1.9,2.3c0.1,0.7,0.4,1.3,1,1.7c0.4,0.4,0.9,0.7,1.3,1c1.4,0.8,2.9,1.5,4.5,2.1L7.1,20
		c0,0-0.1,0-0.1,0l-2.1-0.5c-0.7-0.2-1.4-0.3-2.1-0.3c-0.3,0-0.5,0-0.8,0.2c-0.4,0.2-0.5,0.6-0.4,1c0,0,0,0,0,0
		c0.1,0.1,0.1,0.2,0.3,0.3C2.1,20.9,2.3,21,2.4,21c0.6,0.3,1.2,0.5,1.9,0.8l0.2,0.1c-0.6,0-1.2,0-1.7,0.1c-0.6,0-1.1,0.2-1.6,0.4
		c-0.8,0.4-1.2,1.2-1,2c0.1,0.7,0.5,1.4,1.2,1.7c0.9,0.5,1.8,0.8,2.8,0.8L4.7,27c-0.9,0.2-1.7,0.3-2.5,0.5c-0.4,0.1-0.9,0.2-1.2,0.5
		c-0.3,0.2-0.5,0.6-0.3,1c0.1,0.4,0.4,0.6,0.8,0.7c0.5,0.2,1,0.2,1.5,0.2c1.1,0,2.2-0.1,3.3-0.3c1.5-0.2,3-0.4,4.6-0.5
		c0.9-0.1,1.8-0.2,2.8-0.2c0.3,0,0.6,0,0.9,0.1c0.3,0.1,0.4,0.4,0.4,0.7s-0.1,0.3-0.3,0.4c-0.3,0.1-0.5,0.3-0.8,0.4
		c-1.5,0.6-3.1,1-4.7,1.4c-1.5,0.4-3,0.7-4.5,1.1C4,33,3.6,33.1,3.2,33.4c-0.3,0.2-0.5,0.6-0.3,1c0.1,0.4,0.3,0.5,0.6,0.5
		c0.6,0.1,1.2,0.1,1.9,0c1.5-0.2,3-0.5,4.5-0.8c1.8-0.5,3.6-0.9,5.4-1.3c0.4-0.1,0.8-0.2,1.2-0.2c0.5,0,0.7,0.3,0.5,0.8
		c-0.1,0.2-0.2,0.4-0.3,0.5c-0.3,0.4-0.7,0.7-1.1,1c-1,0.7-2.1,1.3-3.2,1.7c-1.1,0.4-2.1,0.8-3.2,1.2c-0.3,0.1-0.6,0.3-0.8,0.5
		c-0.2,0.2-0.3,0.5-0.2,0.7c0,0.3,0.3,0.5,0.5,0.6c0.2,0,0.3,0,0.5,0c0.8,0,1.6-0.1,2.4-0.3c2.3-0.6,4.4-1.6,6.4-2.8
		c0.5-0.3,1-0.5,1.5-0.6c0.8-0.1,1.5-0.3,2.3-0.4c2.4-0.2,4.8-0.8,7.1-1.8c0.1-0.1,0.2-0.1,0.3,0c0.8,0.7,1.7,1.3,2.5,2
		c2.3,1.8,4.5,3.5,6.8,5.3c0.1,0.1,0.2,0.1,0.2,0.1L40.6,41.1z"/>
	<path class="st0" d="M40.6,41.1h-1.9c-0.1,0-0.2,0-0.2-0.1c-2.3-1.8-4.5-3.5-6.8-5.3c-0.8-0.7-1.7-1.3-2.5-2
		c-0.1-0.1-0.2-0.1-0.3,0c-2.2,1-4.6,1.6-7.1,1.8c-0.8,0.1-1.5,0.2-2.3,0.4c-0.5,0.1-1.1,0.3-1.5,0.6c-2,1.3-4.1,2.2-6.4,2.8
		c-0.8,0.2-1.6,0.3-2.4,0.3c-0.2,0-0.3,0-0.5,0c-0.3-0.1-0.5-0.3-0.5-0.6c-0.1-0.3,0-0.6,0.2-0.7c0.3-0.2,0.5-0.3,0.8-0.5
		c1.1-0.4,2.1-0.8,3.2-1.2c1.1-0.4,2.2-1,3.2-1.7c0.4-0.3,0.8-0.6,1.1-1c0.1-0.2,0.2-0.3,0.3-0.5c0.2-0.5-0.1-0.8-0.5-0.8
		c-0.4,0-0.8,0.1-1.2,0.2c-1.8,0.4-3.6,0.9-5.4,1.3c-1.5,0.4-3,0.6-4.5,0.8c-0.6,0.1-1.2,0.1-1.9,0c-0.3-0.1-0.6-0.2-0.6-0.5
		s-0.1-0.8,0.3-1C3.6,33.2,4,33.1,4.4,33c1.5-0.4,3-0.7,4.5-1.1c1.6-0.4,3.2-0.9,4.7-1.4c0.3-0.1,0.5-0.2,0.8-0.4
		c0.2-0.1,0.3-0.2,0.3-0.4s-0.1-0.6-0.4-0.7c-0.3-0.1-0.6-0.1-0.9-0.1c-0.9,0.1-1.8,0.1-2.8,0.2c-1.5,0.2-3,0.3-4.6,0.5
		C5,29.8,3.9,29.9,2.8,30c-0.5,0-1-0.1-1.5-0.2c-0.4-0.1-0.6-0.4-0.8-0.7c-0.1-0.4,0-0.8,0.3-1c0.3-0.3,0.8-0.5,1.2-0.6
		c0.8-0.2,1.7-0.3,2.5-0.5l-0.5-0.1c-1-0.1-1.9-0.4-2.8-0.8c-0.6-0.4-1.1-1-1.2-1.7c-0.2-0.8,0.2-1.6,1-2c0.5-0.2,1-0.4,1.6-0.4
		c0.6,0,1.1,0,1.7-0.1l-0.2-0.1C3.6,21.5,3,21.3,2.3,21c-0.2-0.1-0.3-0.2-0.4-0.3c-0.3-0.2-0.4-0.7-0.2-1c0.1-0.1,0.2-0.2,0.3-0.3
		c0.2-0.1,0.4-0.2,0.7-0.2c0.7,0,1.4,0.1,2.1,0.3l2,0.5c0,0,0.1,0,0.1,0l-0.2-0.1c-1.5-0.6-3-1.3-4.5-2.1c-0.5-0.3-0.9-0.6-1.3-1
		c-0.6-0.4-0.9-1-1-1.7c-0.1-1.2,0.8-2.2,1.9-2.3c0,0,0,0,0,0l0,0c0.8,0,1.5,0.1,2.2,0.5l5.5,2.2c0.1,0,0.2,0.1,0.3,0.1l-0.1-0.1
		c-1.8-1-3.5-2-5.2-3.1c-0.8-0.5-1.5-1-2.2-1.6c-0.5-0.4-0.9-0.9-1-1.5C1.1,8.1,1.9,6.9,3.1,6.7c0,0,0,0,0,0c0.1,0,0.3,0,0.4,0
		c0.7,0,1.5,0.2,2.2,0.5l3.1,1.5c1.9,0.9,3.8,2,5.6,3.1l0.2,0.1c0.1-0.3,0.1-0.4-0.1-0.5c-2-1.8-4.1-3.4-6.4-4.8
		c-0.5-0.3-1-0.7-1.4-1.2C6,4.8,5.8,3.8,6.2,2.9c0.3-0.7,1-1.2,1.8-1.2c0.8,0,1.5,0.2,2.2,0.5c1.3,0.5,2.6,1.1,3.8,1.9
		c1.6,0.9,3.2,1.9,4.6,3c1.1,0.9,2.1,1.8,3.2,2.6c0.7,0.6,1.5,1.1,2.3,1.6c0.3,0.2,0.7,0.3,1,0.5l0-0.1l-0.3-1
		c-0.4-1.1-0.7-2.3-0.8-3.5c-0.2-1.1,0.1-2.2,0.6-3.1c0.7-1,1.8-1.8,3-2c0.9-0.2,1.8,0.4,2,1.3c0,0,0,0,0,0c0,0.1,0,0.2,0,0.3
		c0,0.2,0,0.4,0,0.6c0,1,0.1,2,0.5,2.9c0.6,1.9,1.3,3.7,2.2,5.5c0.5,0.9,0.8,2,1,3c0.2,1.2,0.5,2.3,0.8,3.4c0.1,0.3,0.3,0.6,0.5,0.9
		c0.4,0.5,0.9,0.9,1.3,1.4c0.1,0.1,0.2,0.1,0.3,0.1l5.5-0.2h0.3v6.4l-1.2-1c-1.6-1.3-3.3-2.5-4.9-3.8c-0.4-0.3-0.9-0.7-1.2-1.1
		c-1-0.9-1.7-2.1-2-3.4c-0.2-1.2-0.5-2.3-0.8-3.4c-0.1-0.5-0.3-1.1-0.6-1.6c-1-1.9-1.8-3.9-2.4-6c-0.3-0.9-0.4-1.9-0.4-2.8
		c0-0.3,0-0.5,0-0.8c-0.1-0.4-0.3-0.5-0.7-0.5c-1.4,0.3-2.4,1.4-2.6,2.8c-0.1,0.9,0,1.7,0.3,2.6c0.3,1.1,0.6,2.1,0.8,3.2
		c0.1,0.2,0.1,0.5,0.1,0.7c0,0.3-0.1,0.5-0.4,0.5c-0.3,0-0.6,0-0.9-0.1c-1.1-0.3-2-0.8-2.9-1.4c-1.2-0.9-2.4-1.8-3.5-2.8
		c-1.7-1.4-3.4-2.6-5.3-3.6C12.4,4.6,11.2,4,9.9,3.5C9.3,3.2,8.7,3,8.1,2.9c-0.5,0-0.9,0.3-0.9,0.8c0,0.2,0,0.3,0.1,0.4
		c0.1,0.3,0.3,0.6,0.5,0.8c0.4,0.4,0.9,0.7,1.3,1c2.3,1.4,4.4,3.1,6.4,4.9c0.6,0.6,1.1,1.1,1.6,1.8c0.2,0.3,0.4,0.6,0.5,1
		c0.1,0.3,0,0.6-0.3,0.7c-0.1,0-0.1,0-0.2,0c-0.3,0-0.5,0-0.8-0.1c-0.8-0.3-1.5-0.7-2.3-1.1c-2.6-1.6-5.3-3-8-4.3
		C5.4,8.3,4.6,8.1,3.8,7.9C3.2,7.8,2.7,8.1,2.5,8.6v0.1C2.5,9,2.5,9.3,2.8,9.5c0.3,0.3,0.6,0.6,1,0.9c1.1,0.7,2.1,1.4,3.2,2
		c2,1.2,4,2.4,6,3.6c0.4,0.3,0.8,0.6,1.2,0.9c0.2,0.1,0.3,0.3,0.5,0.5c0.1,0.2,0.1,0.4,0,0.6c-0.1,0.2-0.3,0.3-0.5,0.2
		c-0.5-0.1-1-0.2-1.5-0.4c-2.9-1-5.8-2-8.6-3.3C3.6,14.3,3,14.1,2.4,14c-0.1,0-0.3,0-0.4,0c-0.5,0.1-0.8,0.5-0.7,0.9
		c0,0.1,0.1,0.2,0.1,0.3c0.2,0.3,0.5,0.6,0.8,0.9c0.9,0.7,2,1.3,3.1,1.8c2,0.9,4.1,1.7,6.2,2.5c0.7,0.3,1.5,0.6,2.2,0.9
		c0.1,0,0.2,0.1,0.3,0.2c0.6,0.3,0.6,0.5,0.5,1.2c0,0.3-0.3,0.5-0.6,0.5c-0.4,0.1-0.8,0.1-1.2,0.2c-1.3,0-2.5,0-3.8,0
		c-1.7-0.1-3.4-0.2-5-0.3c-0.5,0-1,0-1.6,0.1c-0.2,0-0.3,0.1-0.5,0.2c-0.3,0.1-0.5,0.4-0.4,0.8c0,0,0,0,0,0c0,0,0,0.1,0,0.1
		c0.1,0.3,0.3,0.6,0.6,0.7c0.5,0.3,1.1,0.5,1.7,0.6c1,0.1,2.1,0.2,3.1,0.3C8.9,26,11,26.2,13,26.6c1.4,0.3,2.8,0.8,4.1,1.5
		c1.8,1,3.7,1.8,5.7,2.3c1.3,0.4,2.6,0.8,4,1c0.4,0.1,0.9,0.1,1.3,0.2c0.3,0.1,0.6,0.2,0.8,0.4c2,1.8,4.1,3.4,6.2,5
		c1.7,1.3,3.4,2.7,5.2,4L40.6,41.1z"/>
</g>
</svg>
