<?xml version="1.0" encoding="utf-8"?>
<!-- Generator: Adobe Illustrator 26.0.2, SVG Export Plug-In . SVG Version: 6.00 Build 0)  -->
<svg version="1.1" id="Capa_1" xmlns="http://www.w3.org/2000/svg" xmlns:xlink="http://www.w3.org/1999/xlink" x="0px" y="0px"
	 viewBox="0 0 41.2 41.2" style="enable-background:new 0 0 41.2 41.2;" xml:space="preserve">
<style type="text/css">
	.st0{clip-path:url(#SVGID_00000176743289338732032540000017409772275190576005_);}
	.st1{fill:#499113;}
	.st2{clip-path:url(#SVGID_00000018224944874305187960000014762955538433117858_);}
	.st3{fill:#CD1719;}
	.st4{fill:#A25AC4;}
	.st5{fill:#FFFFFF;}
</style>
<g>
	<defs>
		<rect id="SVGID_1_" y="13.6" width="20.8" height="11.9"/>
	</defs>
	<clipPath id="SVGID_00000155144410075021787020000008197014426040775320_">
		<use xlink:href="#SVGID_1_"  style="overflow:visible;"/>
	</clipPath>
	<g style="clip-path:url(#SVGID_00000155144410075021787020000008197014426040775320_);">
		<path class="st1" d="M16.6,22.9v-2.2c0-0.4-0.2-0.6-0.6-0.6H6.9c-0.4,0-0.6,0.2-0.6,0.6v2.3c0,0.8-0.6,1.5-1.4,1.5
			c-0.7,0-1.4,0-2.1,0c-0.4,0-0.9-0.2-1.1-0.6c-0.2-0.3-0.4-0.6-0.3-1v-6.7c0-0.2,0.1-0.4,0.1-0.6c0.1-0.4,0.5-0.7,0.9-0.8
			c0.3-0.1,0.5-0.1,0.8-0.1h1.4c0.9-0.1,1.7,0.6,1.8,1.5c0,0.1,0,0.2,0,0.3c0,0.2,0,0.4,0,0.6v1.6c0,0.3,0.2,0.5,0.5,0.6
			c0,0,0,0,0,0h12.8v1h-1.7c-0.3,0-0.6,0.2-0.6,0.6c0,0,0,0,0,0v2.2L16.6,22.9z M0,23.3c0.1,0.2,0.1,0.4,0.2,0.5
			c0.2,0.6,0.6,1,1.2,1.3c0.6,0.3,1.2,0.4,1.8,0.4h1.7c0.7,0,1.3-0.3,1.8-0.8c0.3-0.3,0.5-0.6,0.6-1c0.1-0.3,0.1-0.5,0.1-0.8V21h8
			v2.3c0,0.3,0.3,0.6,0.6,0.6c0,0,0,0,0,0h1.9c0.3,0,0.6-0.2,0.6-0.5c0,0,0,0,0,0V21h1.7c0.3,0,0.6-0.2,0.6-0.5c0,0,0,0,0,0v-1.8
			c0-0.3-0.2-0.6-0.5-0.6c0,0,0,0,0,0H7.5V16c0-0.6-0.3-1.1-0.7-1.5c-0.6-0.6-1.5-0.9-2.3-0.9H2.6c-0.7,0-1.3,0.3-1.8,0.8
			c-0.4,0.4-0.7,0.9-0.8,1.4L0,23.3z"/>
		<path class="st1" d="M3.9,19.6V22c0,0.2-0.1,0.3-0.3,0.3h0.2c-0.2,0-0.3-0.1-0.3-0.3v-4.9c0-0.2,0.1-0.3,0.3-0.3H3.6
			c0.3,0,0.4,0.1,0.4,0.4V19.6 M5.2,19.6v-2.4c0-0.2,0-0.5-0.1-0.7c-0.3-0.4-0.7-0.7-1.2-0.7H3.5c-0.5,0-1,0.4-1.2,0.9
			c0,0.1-0.1,0.3-0.1,0.5v4.8c0,0.1,0,0.3,0,0.4c0.1,0.5,0.6,0.9,1.1,1c0.6,0.1-0.1,0.1,0.5,0c0.7,0,1.2-0.6,1.2-1.3V19.6"/>
	</g>
</g>
<g>
	<defs>
		<rect id="SVGID_00000098206936326758901480000007907392134338646156_" x="-0.9" y="2.1" width="42.1" height="37.2"/>
	</defs>
	<clipPath id="SVGID_00000005267564067081012210000011641166123174356405_">
		<use xlink:href="#SVGID_00000098206936326758901480000007907392134338646156_"  style="overflow:visible;"/>
	</clipPath>
	<g style="clip-path:url(#SVGID_00000005267564067081012210000011641166123174356405_);">
		<path class="st3" d="M22.6,9.5L22.6,9.5c-0.5-0.1-0.8-0.5-0.8-1V3.1c-0.1-0.5,0.3-0.9,0.8-1c0.4,0,0.8,0.5,0.8,1v5.4
			C23.4,9,23,9.5,22.6,9.5"/>
		<path class="st3" d="M22.6,39.2L22.6,39.2c-0.5-0.1-0.8-0.5-0.8-1v-5.4c-0.1-0.5,0.3-0.9,0.8-1c0.4,0,0.8,0.5,0.8,1v5.4
			C23.4,38.8,23,39.2,22.6,39.2"/>
		<path class="st1" d="M22.6,9.5L22.6,9.5c-0.5-0.1-0.8-0.5-0.8-1V3.1c-0.1-0.5,0.3-0.9,0.8-1c0.4,0,0.8,0.5,0.8,1v5.4
			C23.4,9,23,9.5,22.6,9.5"/>
		<path class="st1" d="M22.6,39.2L22.6,39.2c-0.5-0.1-0.8-0.5-0.8-1v-5.4c-0.1-0.5,0.3-0.9,0.8-1c0.4,0,0.8,0.5,0.8,1v5.4
			C23.4,38.8,23,39.2,22.6,39.2"/>
		<path class="st1" d="M14.7,12.8L14.7,12.8c-0.4,0.3-1,0.2-1.3-0.2L9.6,8.8C9.3,8.5,9.2,7.9,9.5,7.5c0.4-0.3,1-0.2,1.3,0.2l3.8,3.8
			C14.9,11.8,15,12.4,14.7,12.8"/>
		<path class="st1" d="M35.7,33.8L35.7,33.8c-0.4,0.3-1,0.2-1.3-0.2l-3.8-3.8c-0.4-0.3-0.5-0.9-0.2-1.3c0.4-0.3,1-0.2,1.3,0.2
			l3.8,3.8C36,32.8,36,33.4,35.7,33.8"/>
		<path class="st1" d="M41.2,20.6L41.2,20.6c-0.1,0.5-0.5,0.8-1,0.8h-5.4c-0.4,0.1-0.9-0.1-1-0.5s0.1-0.9,0.5-1c0,0,0,0,0.1,0
			c0.1,0,0.3,0,0.4,0h5.4C40.7,19.8,41.1,20.2,41.2,20.6"/>
		<path class="st1" d="M14.7,28.5L14.7,28.5c0.3,0.4,0.2,1-0.2,1.3l-3.8,3.8c-0.3,0.4-0.9,0.5-1.3,0.2c-0.3-0.4-0.2-1,0.2-1.3
			l3.8-3.8C13.8,28.3,14.3,28.2,14.7,28.5"/>
		<path class="st1" d="M35.7,7.5L35.7,7.5c0.3,0.4,0.2,1-0.2,1.3l-3.8,3.8c-0.3,0.4-0.9,0.5-1.3,0.2c-0.3-0.4-0.2-1,0.2-1.3l3.8-3.8
			C34.8,7.3,35.3,7.2,35.7,7.5"/>
		<path class="st1" d="M22.6,30.5c5.5,0,9.9-4.4,9.9-9.9s-4.4-9.9-9.9-9.9c-5.5,0-9.9,4.4-9.9,9.9C12.7,26.1,17.1,30.5,22.6,30.5
			C22.6,30.5,22.6,30.5,22.6,30.5L22.6,30.5"/>
		<path class="st4" d="M4.1,19.9"/>
		<path class="st5" d="M22.6,19.7c0.6,0,1.1-0.5,1.1-1.1s-0.5-1.1-1.1-1.1c-0.6,0-1.1,0.5-1.1,1.1l0,0l0,0
			C21.4,19.2,22,19.7,22.6,19.7C22.6,19.7,22.6,19.7,22.6,19.7"/>
	</g>
</g>
<rect x="22" y="18.3" class="st5" width="1.3" height="4.7"/>
<path class="st5" d="M19.6,18.7c0-0.3-0.2-0.6-0.5-0.6c0,0,0,0,0,0h-6c-0.1,0.3-0.1,0.7-0.2,1h5.5v0.9h-1.7c-0.3,0-0.6,0.3-0.6,0.6
	c0,0,0,0,0,0l0,0v2.2h-0.6v-2.2c0-0.4-0.2-0.6-0.6-0.6h-2.1v1h1.5v2.3c0,0.3,0.3,0.6,0.6,0.6c0,0,0,0,0,0h1.9c0.3,0,0.6-0.2,0.6-0.5
	V21H19c0.3,0,0.6-0.2,0.6-0.6c0,0,0,0,0,0l0,0C19.6,19.8,19.6,19.2,19.6,18.7z"/>
</svg>
