<?xml version="1.0" encoding="utf-8"?>
<!-- Generator: Adobe Illustrator 26.0.2, SVG Export Plug-In . SVG Version: 6.00 Build 0)  -->
<svg version="1.1" id="Capa_1" xmlns="http://www.w3.org/2000/svg" xmlns:xlink="http://www.w3.org/1999/xlink" x="0px" y="0px"
	 viewBox="0 0 40.1 40.8" style="enable-background:new 0 0 40.1 40.8;" xml:space="preserve">
<style type="text/css">
	.st0{fill:#0065AB;}
</style>
<path class="st0" d="M15.8,6.5c-0.6,0.2-1.1,0.8-1.1,1.5v4l0,0v17.1c-2.8-2.3-7-1.9-9.3,1c-2.3,2.8-1.9,7,1,9.3
	c1.1,0.9,2.6,1.4,4,1.5c3.7,0,6.7-3,6.7-6.6c0,0,0,0,0,0V13.8L32.4,8v14.6c-2.8-2.3-7-1.9-9.3,1c-2.3,2.8-1.9,7,1,9.3
	c2.8,2.3,7,1.9,9.3-1c1-1.2,1.5-2.7,1.5-4.3V1.6c0-0.9-0.7-1.6-1.6-1.6l0,0c-0.2,0-0.4,0-0.5,0.1L15.8,6.5z M10.6,38.4
	c-2.3,0-4.1-1.9-4.1-4.2c0-2.3,1.9-4.1,4.2-4.1c2.3,0,4.1,1.9,4.1,4.1C14.7,36.6,12.9,38.4,10.6,38.4C10.6,38.4,10.6,38.4,10.6,38.4
	z M32.4,5.4l-15.3,5.8V8.6l15.3-5.8V5.4z M28.3,31.8c-2.3,0-4.2-1.8-4.2-4.1s1.8-4.2,4.1-4.2c2.3,0,4.2,1.8,4.2,4.1l0,0
	C32.4,29.9,30.6,31.8,28.3,31.8z"/>
</svg>
