<?xml version="1.0" encoding="utf-8"?>
<!-- Generator: Adobe Illustrator 26.0.2, SVG Export Plug-In . SVG Version: 6.00 Build 0)  -->
<svg version="1.1" id="Capa_1" xmlns="http://www.w3.org/2000/svg" xmlns:xlink="http://www.w3.org/1999/xlink" x="0px" y="0px"
	 viewBox="0 0 32.7 32.7" style="enable-background:new 0 0 32.7 32.7;" xml:space="preserve">
<style type="text/css">
	.st0{fill:#5BAF07;}
</style>
<g id="elements">
	<path class="st0" d="M28.3,5.9h-6V4.2c0-1.5-1.2-2.7-2.7-2.7l0,0h-6.5c-1.5,0-2.7,1.2-2.7,2.7v1.6h-6C1.9,5.9,0,7.8,0,10.2v16.2
		c0,2.4,1.9,4.3,4.3,4.3h24c2.4,0,4.3-1.9,4.3-4.3V10.2C32.7,7.8,30.7,5.9,28.3,5.9L28.3,5.9z M28.3,28.9H10.7v-9.8
		c2.2-1.2,3-4,1.7-6.2c-0.4-0.7-1-1.3-1.7-1.7V7.7h17.7c1.4,0,2.5,1.1,2.5,2.5v16.2C30.8,27.7,29.7,28.8,28.3,28.9L28.3,28.9z
		 M8,28.9v-9.2h0.8v9.2L8,28.9z M8.8,7.7v2.8H8V7.7L8.8,7.7z M9.5,12.6c1.4,0.6,2,2.2,1.4,3.6c-0.3,0.6-0.8,1.1-1.4,1.4l0,0
		l-0.2,0.1c-0.1,0-0.2,0.1-0.3,0.1c-0.1,0-0.3,0-0.4,0c-0.1,0-0.2,0-0.3,0c-0.1,0-0.3,0-0.4,0c-0.1,0-0.2,0-0.3-0.1H7.3l0,0
		c-1.4-0.6-2-2.2-1.4-3.6c0,0,0,0,0-0.1c0.3-0.6,0.8-1.1,1.4-1.4l0,0l0.2-0.1l0.3-0.1c0.1,0,0.2,0,0.3,0h0.4c0.1,0,0.2,0,0.3,0
		l0.3,0.1L9.5,12.6L9.5,12.6z M6.2,11.1c-2.2,1.2-3,4-1.8,6.2c0.4,0.8,1.1,1.4,1.8,1.8v9.8H4.3c-1.4,0-2.5-1.1-2.5-2.5V10.2
		c0-1.4,1.1-2.5,2.5-2.5h1.8L6.2,11.1z M13.1,3.5h6.5c0.4,0,0.7,0.3,0.7,0.7v1.6h-8V4.2C12.3,3.8,12.7,3.5,13.1,3.5L13.1,3.5z"/>
	<path class="st0" d="M16.8,21.2l3.2,4.9l9.6-6.3l-3.2-4.9L16.8,21.2z M20.5,23.5l-1.2-1.8l6.5-4.2l1.2,1.8L20.5,23.5z"/>
</g>
</svg>
