<?xml version="1.0" encoding="utf-8"?>
<!-- Generator: Adobe Illustrator 26.0.2, SVG Export Plug-In . SVG Version: 6.00 Build 0)  -->
<svg version="1.1" id="Capa_1" xmlns="http://www.w3.org/2000/svg" xmlns:xlink="http://www.w3.org/1999/xlink" x="0px" y="0px"
	 viewBox="0 0 38.5 38.3" style="enable-background:new 0 0 38.5 38.3;" xml:space="preserve">
<style type="text/css">
	.st0{fill:#FD8417;}
</style>
<path class="st0" d="M12.2,15.4H7.5c-0.7,0-1.2,0.5-1.2,1.2v3.3c0,0.7,0.5,1.2,1.2,1.2h4.8c0.7,0,1.2-0.6,1.2-1.2v-3.3
	C13.5,16,12.9,15.4,12.2,15.4z M11.6,17.3v2.1H8.1v-2.1C8.1,17.3,11.6,17.3,11.6,17.3z"/>
<path class="st0" d="M21.6,15.4h-4.7c-0.7,0-1.2,0.5-1.2,1.2v3.3c0,0.7,0.5,1.2,1.2,1.2h4.7c0.7,0,1.2-0.6,1.2-1.2v-3.3
	C22.8,16,22.3,15.4,21.6,15.4L21.6,15.4z M21,17.3v2.1h-3.5v-2.1C17.5,17.3,21,17.3,21,17.3z"/>
<path class="st0" d="M21.8,9.2H7.2c-0.6,0-1,0.5-1,1.1s0.5,1,1,1h14.5c0.6,0,1-0.5,1-1C22.8,9.7,22.3,9.2,21.8,9.2L21.8,9.2z"/>
<path class="st0" d="M21.8,12.5H7.2c-0.6,0.1-1,0.6-1,1.2c0,0.5,0.4,0.9,1,1h14.5c0.6-0.1,1-0.6,1-1.2C22.7,13,22.3,12.6,21.8,12.5z
	"/>
<path class="st0" d="M38.5,18.3v-0.1c-0.1-1.3-1.2-2.4-2.6-2.4h-7.6V8.1c0-1.4-1.2-2.6-2.6-2.6H2.6C1.2,5.5,0,6.7,0,8.1v13.7
	c0,1.4,1.2,2.6,2.6,2.6h8.1v7.3c0,1.3,0.9,2.3,2.2,2.5c0.1,0,0.1,0.1,0.2,0.1H36c1.4,0,2.6-1.2,2.6-2.6L38.5,18.3L38.5,18.3z
	 M12.8,24.3h4.1c0.1,0,0.2,0.1,0.4,0.1h14.5c0.6,0,1-0.5,1-1s-0.5-1-1-1h-3.5c0-0.2,0.1-0.4,0.1-0.5v-0.6h3.4c0.6,0,1-0.5,1-1
	c0-0.6-0.5-1.1-1-1.1h-3.4v-1.1H36c0.3,0,0.5,0.2,0.5,0.5V32c0,0.3-0.2,0.5-0.5,0.5H13.2c-0.3,0-0.5-0.2-0.5-0.5l0,0L12.8,24.3z
	 M25.8,22.2H2.6c-0.3,0-0.5-0.2-0.5-0.5l0,0l0,0V8.1c0-0.3,0.2-0.5,0.5-0.5h23.1c0.3,0,0.5,0.2,0.5,0.5l0,0v13.7
	C26.2,22,26,22.2,25.8,22.2C25.7,22.2,25.7,22.2,25.8,22.2L25.8,22.2L25.8,22.2z"/>
<path class="st0" d="M26.8,31.2h4.7c0.7,0,1.2-0.6,1.2-1.2v-3.3c0-0.7-0.5-1.2-1.2-1.2h-4.7c-0.7,0-1.2,0.6-1.2,1.2V30
	C25.5,30.7,26.1,31.2,26.8,31.2z M30.9,27.3v2.1h-3.5v-2.1H30.9z"/>
<path class="st0" d="M17.4,31.2h4.7c0.7,0,1.2-0.6,1.2-1.2v-3.3c0-0.7-0.5-1.2-1.2-1.2h-4.7c-0.7,0-1.2,0.6-1.2,1.2V30
	C16.2,30.7,16.7,31.2,17.4,31.2z M18,29.4v-2.1h3.5v2.1H18z"/>
</svg>
