<svg id="Capa_1" data-name="Capa 1" xmlns="http://www.w3.org/2000/svg" viewBox="0 0 38.57 38.54"><defs><style>.cls-1{fill:#a25ac4;stroke:#a25ac4;stroke-miterlimit:10;stroke-width:0.5px;}</style></defs><g id="elements"><path class="cls-1" d="M37.79,49.88v-.06a1.78,1.78,0,0,1,.48-1.18l8.19-9.92H39.17A1.14,1.14,0,0,1,38,37.63v0a1.15,1.15,0,0,1,1.13-1.15h9.56a1.16,1.16,0,0,1,1.14,1.13v.06a1.9,1.9,0,0,1-.45,1.18L41.2,48.74h7.57a1.15,1.15,0,0,1,1.14,1.14A1.14,1.14,0,0,1,48.77,51H38.94A1.17,1.17,0,0,1,37.79,49.88Z" transform="translate(-12.69 -12.74)"/><path class="cls-1" d="M36.87,26.09,42.27,14a1.65,1.65,0,0,1,1.54-1h.13a1.59,1.59,0,0,1,1.52,1l5.4,12.06a1.19,1.19,0,0,1-.46,1.62,1.24,1.24,0,0,1-.6.15,1.31,1.31,0,0,1-1.25-.9l-1.18-2.72H40.3L39.07,27a1.22,1.22,0,0,1-1.18.81,1.17,1.17,0,0,1-1.19-1.15v0A1.22,1.22,0,0,1,36.87,26.09ZM46.39,22l-2.56-5.89L41.28,22Z" transform="translate(-12.69 -12.74)"/><path class="cls-1" d="M32.83,39.87a1.2,1.2,0,0,0-1.68,0l-6.87,7V14.18a1.19,1.19,0,0,0-2.38,0V46.91l-6.87-7a1.19,1.19,0,1,0-1.8,1.56l.1.1,8.91,9.1a1.18,1.18,0,0,0,.85.36h0a1.18,1.18,0,0,0,.85-.36l8.91-9.1a1.2,1.2,0,0,0,0-1.68Z" transform="translate(-12.69 -12.74)"/></g></svg>