<?xml version="1.0" encoding="utf-8"?>
<!-- Generator: Adobe Illustrator 26.0.2, SVG Export Plug-In . SVG Version: 6.00 Build 0)  -->
<svg version="1.1" id="Capa_1" xmlns="http://www.w3.org/2000/svg" xmlns:xlink="http://www.w3.org/1999/xlink" x="0px" y="0px"
	 viewBox="0 0 39.1 39" style="enable-background:new 0 0 39.1 39;" xml:space="preserve">
<style type="text/css">
	.st0{fill:#0065AB;}
</style>
<path class="st0" d="M15.6,20.8c1.2,0,2.1-0.9,2.1-2.1s-0.9-2.1-2.1-2.1c-1.2,0-2.1,0.9-2.1,2.1l0,0C13.4,19.8,14.4,20.8,15.6,20.8
	C15.5,20.8,15.5,20.8,15.6,20.8z"/>
<path class="st0" d="M9.1,20.8c1.2,0,2.1-0.9,2.1-2.1c0-1.2-0.9-2.1-2.1-2.1C8,16.6,7,17.5,7,18.7l0,0C7,19.8,8,20.8,9.1,20.8
	C9.1,20.8,9.1,20.8,9.1,20.8z"/>
<path class="st0" d="M22,20.8c1.2,0,2.1-0.9,2.1-2.1c0-1.2-0.9-2.1-2.1-2.1c-1.2,0-2.1,0.9-2.1,2.1l0,0C19.8,19.8,20.8,20.8,22,20.8
	L22,20.8z"/>
<path class="st0" d="M31.1,18.7c0-7.3-7-13.1-15.5-13.1S0,11.4,0,18.7c0,2.6,0.9,5.2,2.6,7.2L0.9,32c-0.2,0.6,0.2,1.2,0.8,1.4
	c0,0,0,0,0,0c0.1,0,0.2,0,0.2,0c0.2,0,0.4,0,0.5-0.1L8,30.1c2.4,1.1,4.9,1.7,7.6,1.7C24.1,31.8,31.1,25.9,31.1,18.7z M4.9,26
	c0.1-0.3,0-0.7-0.2-1c-1.5-1.7-2.4-4-2.4-6.3c0-6,6-10.9,13.3-10.9s13.3,4.9,13.3,10.9s-6,10.9-13.3,10.9c-2.4,0-4.8-0.6-7-1.7
	c-0.3-0.2-0.7-0.2-1,0l-3.8,2.1L4.9,26z"/>
<path class="st0" d="M38,28.9c0.7-1.4,1-3,1-4.6c0-4-2.2-7.6-5.7-9.5c-0.5-0.3-1.2-0.2-1.5,0.3s-0.2,1.2,0.3,1.5c0,0,0.1,0,0.1,0.1
	c0.1,0,0.1,0.1,0.2,0.1c4.2,2.2,5.8,7.3,3.7,11.5c0,0,0,0,0,0.1l0,0c-0.1,0.2-0.2,0.5-0.1,0.7l0.7,3.1l-2.3-0.9
	c-0.3-0.1-0.7-0.1-1,0.1c-2.9,1.9-6.6,1.9-9.5,0.1c-0.2-0.2-0.5-0.2-0.8-0.2c-0.6,0.1-1,0.7-0.8,1.3c0.1,0.3,0.2,0.5,0.5,0.6
	c3.5,2.2,7.9,2.3,11.4,0.2l3.6,1.5C37.7,35,37.8,35,38,35c0.3,0,0.5-0.1,0.7-0.3c0.3-0.3,0.5-0.7,0.4-1.1L38,28.9z"/>
</svg>
