<?xml version="1.0" encoding="utf-8"?>
<!-- Generator: Adobe Illustrator 26.0.2, SVG Export Plug-In . SVG Version: 6.00 Build 0)  -->
<svg version="1.1" id="Capa_1" xmlns="http://www.w3.org/2000/svg" xmlns:xlink="http://www.w3.org/1999/xlink" x="0px" y="0px"
	 viewBox="0 0 42.1 42.6" style="enable-background:new 0 0 42.1 42.6;" xml:space="preserve">
<style type="text/css">
	.st0{fill:#0065AB;}
</style>
<path class="st0" d="M20.8,30c4.3,0,7.7-3.4,7.7-7.7V7.7c0-4.3-3.5-7.7-7.7-7.7c-4.3,0-7.7,3.5-7.7,7.7c0,0,0,0,0,0l0,0v14.6
	C13.1,26.6,16.5,30,20.8,30z M15.5,20.2h2.8c0.7,0,1.2-0.5,1.2-1.2c0-0.7-0.5-1.2-1.2-1.2h-2.8v-1.9h2.8c0.7-0.1,1.2-0.6,1.1-1.3
	c-0.1-0.6-0.5-1-1.1-1.1h-2.8v-2h2.8c0.7-0.1,1.2-0.6,1.1-1.3c-0.1-0.6-0.5-1-1.1-1.1h-2.8V7.7c0-2.9,2.4-5.3,5.3-5.3
	c2.9,0,5.3,2.4,5.3,5.3c0,0,0,0,0,0l0,0v1.4h-2.9c-0.7,0.1-1.2,0.6-1.1,1.3c0.1,0.6,0.5,1,1.1,1.1h2.9v2h-2.9
	c-0.7,0.1-1.2,0.6-1.1,1.3c0.1,0.6,0.5,1,1.1,1.1h2.9v1.9h-2.9c-0.7,0-1.2,0.5-1.2,1.2c0,0.7,0.5,1.2,1.2,1.2h2.9v2
	c0,2.9-2.4,5.3-5.3,5.3c-2.9,0-5.3-2.4-5.3-5.3V20.2z"/>
<path class="st0" d="M32.6,22.1c-0.1-0.7-0.6-1.2-1.3-1.1c-0.6,0.1-1,0.5-1.1,1.1c0,5.2-4.2,9.4-9.4,9.4c-5.2,0-9.4-4.2-9.4-9.4
	c-0.1-0.7-0.6-1.2-1.3-1.1c-0.6,0.1-1,0.5-1.1,1.1c0,6,4.6,11.1,10.6,11.7v6.3h-4.4c-0.7,0.1-1.2,0.6-1.1,1.3c0.1,0.6,0.5,1,1.1,1.1
	h11.3c0.7-0.1,1.2-0.6,1.1-1.3c-0.1-0.6-0.5-1-1.1-1.1H22v-6.3C28,33.2,32.5,28.2,32.6,22.1z"/>
</svg>
