<?xml version="1.0" encoding="utf-8"?>
<!-- Generator: Adobe Illustrator 26.0.2, SVG Export Plug-In . SVG Version: 6.00 Build 0)  -->
<svg version="1.1" id="Capa_1" xmlns="http://www.w3.org/2000/svg" xmlns:xlink="http://www.w3.org/1999/xlink" x="0px" y="0px"
	 viewBox="0 0 44.6 44.2" style="enable-background:new 0 0 44.6 44.2;" xml:space="preserve">
<style type="text/css">
	.st0{fill:#A25AC4;}
</style>
<path class="st0" d="M18.4,40.8L18.4,40.8c0.9-0.3,1.6-1.1,1.9-2c0.2-0.6,0.2-1.2,0.1-1.8c0.3-0.4,0.5-0.8,0.7-1.2
	c0.2-0.7,0.2-1.3,0-2c0.3-0.4,0.4-0.8,0.5-1.2c0.1-0.6,0.1-1.2,0-1.7c0.9-1.2,0.9-2.7,0-3.9c-0.5-0.6-1.3-1-2.1-1H17
	c0.2-0.4,0.4-0.9,0.5-1.3c0.2-1,0.1-2.1-0.2-3.1c-0.3-0.9-0.9-1.8-1.6-2.5c-0.4-0.5-1-0.8-1.6-1c-0.6-0.2-1.2-0.2-1.8,0
	c-0.9,0.2-1.6,0.9-1.9,1.8c-0.1,0.6-0.1,1.2,0,1.7c0.2,0.6,0.1,1.2-0.2,1.8c-0.4,0.7-0.8,1.4-1.3,2c-1,1.4-1.8,1.8-1.9,1.8H2.2
	c-1.2,0-2.2,1-2.2,2.2v9.5c0,1.2,1,2.2,2.2,2.2h2.2c0.3,0,0.6-0.1,0.8-0.3c0.2-0.2,0.3-0.5,0.3-0.8c-0.1-0.5-0.5-0.9-1-0.9L2.3,39
	v-9.5c0,0,0-0.1,0.1-0.1c0,0,0,0,0,0h4.9c0.8-0.1,1.5-0.5,2-1c0.6-0.5,1-1.1,1.5-1.7c0.5-0.7,1-1.5,1.5-2.2c0.4-0.5,0.6-1.2,0.6-1.8
	c0-0.5,0-1-0.1-1.4c-0.1-0.2-0.1-0.5-0.1-0.8c0,0,0-0.1,0.4-0.2c0.5-0.1,1,0.1,1.3,0.4c1,1,1.4,2.3,1.2,3.7
	c-0.3,0.8-0.6,1.6-1.1,2.3c-0.3,0.5-0.1,1.2,0.4,1.5c0.2,0.1,0.3,0.1,0.5,0.1h4.3c0.2,0,0.3,0.1,0.4,0.2c0.2,0.3,0.2,0.6,0.1,0.9
	c0,0.1,0,0.1-0.1,0.2h-1.2c-0.6,0-1.1,0.5-1.1,1.1s0.5,1.1,1.1,1.1h0.7c0,0.2,0,0.4,0,0.6c0,0.1-0.1,0.2-0.1,0.3h-1.3
	c-0.6,0-1.1,0.5-1.1,1.1s0.5,1.1,1.1,1.1h0.9c0,0.2,0,0.3-0.1,0.5c-0.1,0.2-0.2,0.3-0.3,0.5h-1.2c-0.6,0-1.1,0.5-1.1,1.1
	s0.5,1.1,1.1,1.1h0.8v0.2c-0.2,0.5-0.5,0.9-2.2,0.9h-5.2C10,39.2,9.1,39,8.3,38.5c-0.1-0.1-0.2-0.3-0.2-0.5v-6.4
	c0-0.3-0.1-0.6-0.3-0.8c-0.2-0.2-0.5-0.3-0.8-0.3c-0.6,0-1,0.4-1.1,1v6.2c0,0.2,0,0.5,0.1,0.7c0.1,0.5,0.4,1,0.8,1.4
	c1,0.9,2.4,1.4,3.8,1.3h5.5C16.8,41.2,17.6,41.1,18.4,40.8z"/>
<path class="st0" d="M43.7,9.2c0,0,0-0.1,0-0.1V8.9l-0.1-0.2c0-0.1-0.1-0.1-0.1-0.1l-8-8c0-0.2-0.2-0.4-0.4-0.4l0,0
	C35.1,0,35,0,34.9,0H12.5c-0.6,0-1.1,0.5-1.1,1.1v0l0,0v15c0,0.6,0.5,1.1,1.1,1.1s1.1-0.5,1.1-1.1v-14h19.8v7c0,0.6,0.5,1.1,1.1,1.1
	h7V42h-29c-0.6,0-1.1,0.5-1.1,1.1c0,0.6,0.5,1.1,1.1,1.1h30.1c0.6,0,1.1-0.5,1.1-1.1L43.7,9.2z M40,8.1h-4.3V3.7L40,8.1z"/>
<path class="st0" d="M25,33.8c0,4.1,3.4,7.5,7.5,7.5s7.5-3.4,7.5-7.5c0-0.8-0.1-1.5-0.3-2.3c-0.1-0.3-0.3-0.5-0.5-0.6
	c-0.2-0.1-0.4-0.1-0.6-0.1l1.7-2c0.4-0.5,0.3-1.2-0.2-1.5l0,0c-0.2-0.2-0.5-0.3-0.8-0.2c-0.3,0-0.6,0.2-0.7,0.4l-1.1,1.3v-0.2
	c0-0.3-0.2-0.5-0.4-0.7c-3.3-2.4-8-1.7-10.4,1.6C25.6,30.6,25.1,32.2,25,33.8L25,33.8z M32.4,34.8l-2.5-2.4
	c-0.2-0.2-0.5-0.3-0.8-0.3l0,0c-0.6,0-1.1,0.5-1.1,1.1c0,0,0,0,0,0c0,0.3,0.1,0.6,0.3,0.8l3.4,3.2c0.2,0.2,0.5,0.3,0.8,0.3l0,0
	c0.3,0,0.6-0.2,0.8-0.4l4.2-5.1c0,0.1,0,0.1,0,0.2c0.2,0.5,0.3,1.1,0.2,1.6c0,2.9-2.4,5.3-5.3,5.3s-5.3-2.4-5.3-5.3
	c0-2.9,2.4-5.3,5.3-5.3h0l0,0c1.1,0,2.2,0.3,3.1,1c0.2,0.2,0.5,0.2,0.8,0.2h0.1L32.4,34.8z"/>
<path class="st0" d="M20.2,14.5h8.1c0.6,0,1.1-0.5,1.1-1.1s-0.5-1.1-1.1-1.1h-8.1c-0.6,0-1.1,0.5-1.1,1.1S19.6,14.5,20.2,14.5z"/>
<path class="st0" d="M32.7,14.5h2.2c0.6,0,1.1-0.5,1.1-1.1s-0.5-1.1-1.1-1.1h-2.2c-0.6,0-1.1,0.5-1.1,1.1S32.1,14.5,32.7,14.5z"/>
<path class="st0" d="M20.2,19.7h8.1c0.6,0,1.1-0.5,1.1-1.1c0-0.6-0.5-1.1-1.1-1.1h-8.1c-0.6,0-1.1,0.5-1.1,1.1
	C19.1,19.2,19.6,19.7,20.2,19.7z"/>
<path class="st0" d="M32.7,19.7h2.2c0.6,0,1.1-0.5,1.1-1.1c0-0.6-0.5-1.1-1.1-1.1h-2.2c-0.6,0-1.1,0.5-1.1,1.1
	C31.6,19.2,32.1,19.7,32.7,19.7C32.7,19.7,32.7,19.7,32.7,19.7z"/>
<path class="st0" d="M20.2,24.9h8.1c0.6,0,1.1-0.5,1.1-1.1c0-0.6-0.5-1.1-1.1-1.1h-8.1c-0.6,0-1.1,0.5-1.1,1.1
	C19.1,24.4,19.6,24.9,20.2,24.9z"/>
<path class="st0" d="M32.7,24.9h2.2c0.6,0,1.1-0.5,1.1-1.1c0-0.6-0.5-1.1-1.1-1.1h-2.2c-0.6,0-1.1,0.5-1.1,1.1
	C31.6,24.4,32.1,24.9,32.7,24.9z"/>
</svg>
