<?xml version="1.0" encoding="utf-8"?>
<!-- Generator: Adobe Illustrator 26.0.2, SVG Export Plug-In . SVG Version: 6.00 Build 0)  -->
<svg version="1.1" id="Capa_1" xmlns="http://www.w3.org/2000/svg" xmlns:xlink="http://www.w3.org/1999/xlink" x="0px" y="0px"
	 viewBox="0 0 40.3 40.7" style="enable-background:new 0 0 40.3 40.7;" xml:space="preserve">
<style type="text/css">
	.st0{fill:#0065AB;stroke:#0065AB;stroke-width:0.5;stroke-miterlimit:10;}
</style>
<path class="st0" d="M15.5,19.7L15.5,19.7c-0.2-0.2-0.2-0.6,0-0.9l2-2c0.2-0.2,0.6-0.2,0.9,0l0,0c0.2,0.2,0.2,0.6,0,0.9c0,0,0,0,0,0
	l0,0l-2,2C16.1,19.9,15.7,19.9,15.5,19.7L15.5,19.7z"/>
<path class="st0" d="M35.6,3.6c-3.2-3.2-8.5-3.2-11.7,0c-1.5,1.6-2.4,3.7-2.4,5.8c0,0.4,0,0.8,0.1,1.1l-16,18.3l2,2l-2,2
	c-1.7,1.7-1.7,4.3,0,6L5.6,39c1.7,1.6,4.4,1.5,6-0.2l12.2-12.2c1.2-1.1,3.1-1.1,4.2,0.1c0.1,0.1,0.2,0.2,0.3,0.4
	c0.2,0.3,0.4,0.7,0.4,1.1c0.2,1-0.1,2-0.8,2.7l-8.5,8.5c-0.2,0.2-0.3,0.6,0,0.9s0.6,0.3,0.9,0l8.5-8.5c1.7-1.7,1.7-4.3,0-6
	s-4.3-1.7-6,0L10.7,38c-1.2,1.2-3.1,1.2-4.3,0.1c-0.5-0.5-0.9-1.3-0.9-2c0-0.8,0.3-1.7,0.9-2.2l2-1.9l1.8,1.8l18.3-16
	c0.4,0.1,0.8,0.1,1.2,0.1c2.2,0,4.3-0.9,5.8-2.4l0,0C38.8,12.1,38.8,6.8,35.6,3.6C35.6,3.6,35.6,3.6,35.6,3.6z M7.3,28.9l2.6-3
	l3.4,3.5l-3,2.6L7.3,28.9z M14.3,28.5l-3.6-3.5l11.5-13.1l5.2,5.2L14.3,28.5z M34.7,14.4c-1.3,1.3-3.1,2.1-5,2.1
	c-0.4,0-0.8,0-1.2-0.1l-5.7-5.7c-0.1-0.4-0.1-0.8-0.1-1.2c0-1.3,0.4-2.6,1.1-3.7l7.7,7.7c0.3,0.2,0.6,0.2,0.9,0
	c0.2-0.2,0.2-0.6,0-0.9l0,0l-7.8-7.8l0.2-0.2c2.7-2.7,7.2-2.7,9.9,0S37.4,11.7,34.7,14.4L34.7,14.4L34.7,14.4z"/>
<path class="st0" d="M12.8,0.5c-0.2-0.2-0.4-0.2-0.6-0.2l-6,0.5c-0.4,0-0.7,0.4-0.7,0.8v5C5.1,6.4,4.8,6.4,4.5,6.4
	c-1.2,0-2.2,1-2.2,2.2c0,1.2,1,2.2,2.2,2.2c1.2,0,2.2-1,2.2-2.2l0,0l0,0V2l5-0.4v5c-0.3-0.1-0.6-0.2-0.9-0.2c-1.2,0-2.2,1-2.2,2.2
	c0,1.2,1,2.2,2.2,2.2c1.2,0,2.2-1,2.2-2.2l0,0l0,0V1.1C13,0.8,12.9,0.6,12.8,0.5z M4.6,9.4C4.1,9.4,3.7,9,3.7,8.5
	C3.6,8,4,7.6,4.5,7.6C5,7.6,5.4,8,5.4,8.5l0,0C5.5,9,5.1,9.4,4.6,9.4C4.6,9.4,4.6,9.4,4.6,9.4L4.6,9.4z M10.9,9.4
	c-0.5,0-0.9-0.4-0.9-0.9c0-0.5,0.4-0.9,0.9-0.9c0.5,0,0.9,0.4,0.9,0.9l0,0C11.7,9,11.4,9.4,10.9,9.4C10.9,9.4,10.9,9.4,10.9,9.4
	L10.9,9.4z"/>
</svg>
