<?xml version="1.0" encoding="utf-8"?>
<!-- Generator: Adobe Illustrator 26.0.2, SVG Export Plug-In . SVG Version: 6.00 Build 0)  -->
<svg version="1.1" id="back" xmlns="http://www.w3.org/2000/svg" xmlns:xlink="http://www.w3.org/1999/xlink" x="0px" y="0px"
	 viewBox="0 0 40.6 40.3" style="enable-background:new 0 0 40.6 40.3;" xml:space="preserve">
<style type="text/css">
	.st0{fill:#FD8417;}
</style>
<path class="st0" d="M37.2,30.8c-0.1,0-5.2-3.2-5.2-14.2c0-5.1-3.4-9.6-8.3-11.1v-2c0-1.9-1.5-3.4-3.4-3.4s-3.4,1.5-3.4,3.4v2
	C12,7,8.6,11.5,8.6,16.6c0,5.8-1.5,9.4-2.7,11.4c-0.5,1-1.3,2-2.4,2.8c-0.4,0.2-0.6,0.5-0.6,1c0,1.7,1.3,3,3,3h7.8
	c0.7,3.7,4.2,6.1,7.8,5.4c2.8-0.5,4.9-2.7,5.4-5.4h7.8c1.7,0,3-1.3,3-3C37.8,31.3,37.6,31,37.2,30.8z M24.5,34.8
	c-0.7,2.3-3.1,3.6-5.4,3c-1.4-0.4-2.5-1.5-3-3H24.5z M35.2,32.2c-0.1,0.1-0.3,0.2-0.4,0.2H15c-0.1,0-0.2,0-0.3,0H5.9
	c-0.2,0-0.3-0.1-0.4-0.2c1-0.9,1.8-1.9,2.5-3c1.4-2.2,3.1-6.2,3.1-12.7c0-5.1,4.1-9.2,9.2-9.2s9.2,4.1,9.2,9.2
	c0,6.5,1.7,10.5,3.1,12.8C33.4,30.4,34.2,31.4,35.2,32.2z M19.4,4.8V3.4c0-0.6,0.4-1,1-1s1,0.4,1,1v1.4H19.4z"/>
<path class="st0" d="M6.7,17.7c0.7,0,1.2-0.5,1.2-1.2l0,0l0,0c0-4.5,2.4-8.6,6.2-10.8c0.6-0.4,0.8-1.1,0.5-1.7S13.5,3.2,13,3.6l0,0
	l0,0c-4.6,2.7-7.5,7.6-7.5,12.9C5.5,17.2,6,17.7,6.7,17.7z"/>
<path class="st0" d="M26.6,5.7L26.6,5.7c3.9,2.2,6.3,6.3,6.3,10.8c0,0.7,0.5,1.2,1.2,1.2s1.2-0.5,1.2-1.2c0-5.3-2.9-10.3-7.5-12.9
	c-0.3-0.2-0.6-0.2-0.9-0.1c-0.3,0.1-0.6,0.3-0.7,0.6C25.8,4.6,26,5.3,26.6,5.7L26.6,5.7z"/>
</svg>
