<svg id="Capa_1" data-name="Capa 1" xmlns="http://www.w3.org/2000/svg" viewBox="0 0 42.66 42.66"><defs><style>.cls-1{fill:#a25ac4;}</style></defs><path class="cls-1" d="M43,29.65,28.13,21.09a2.53,2.53,0,0,0-4.07,2.34V40.57a2.74,2.74,0,0,0,1.24,2.54,2.33,2.33,0,0,0,1.16.3,3.28,3.28,0,0,0,1.67-.49L43,34.35a2.54,2.54,0,0,0,0-4.7ZM41.18,32,27,40.19V23.81Z" transform="translate(-10.67 -10.67)"/><path class="cls-1" d="M32,10.67A21.33,21.33,0,1,0,53.33,32,21.33,21.33,0,0,0,32,10.67ZM50.29,32A18.29,18.29,0,1,1,32,13.71h0A18.33,18.33,0,0,1,50.29,32Z" transform="translate(-10.67 -10.67)"/></svg>