<?xml version="1.0" encoding="utf-8"?>
<!-- Generator: Adobe Illustrator 26.0.2, SVG Export Plug-In . SVG Version: 6.00 Build 0)  -->
<svg version="1.1" id="back" xmlns="http://www.w3.org/2000/svg" xmlns:xlink="http://www.w3.org/1999/xlink" x="0px" y="0px"
	 viewBox="0 0 34.4 34.4" style="enable-background:new 0 0 34.4 34.4;" xml:space="preserve">
<style type="text/css">
	.st0{fill:#FD8417;}
</style>
<path class="st0" d="M33,17.5c-0.8,0-1.4,0.7-1.5,1.5v8.7c0,2.1-1.7,3.8-3.8,3.8l0,0h-21c-2.1,0-3.8-1.7-3.8-3.8v-8.9
	C3,18,2.4,17.3,1.6,17.2S0.1,17.7,0,18.5l0,0c0,0.1,0,0.2,0,0.2v8.9c0,3.8,3,6.8,6.7,6.8h21c3.7,0,6.7-3,6.7-6.7V19
	C34.4,18.2,33.8,17.5,33,17.5z"/>
<path class="st0" d="M16.2,24.6c0.3,0.3,0.6,0.4,1,0.4s0.7-0.2,1-0.4l6.1-6.1c0.6-0.5,0.6-1.4,0-2l0,0c-0.6-0.6-1.5-0.6-2.1,0
	L18.7,20V1.9c0-0.8-0.7-1.5-1.5-1.5s-1.5,0.7-1.5,1.5l0,0l0,0v18.2l-3.6-3.6c-0.6-0.6-1.5-0.6-2.1,0c-0.3,0.3-0.4,0.6-0.4,1
	s0.2,0.7,0.4,1L16.2,24.6z"/>
</svg>
