<?xml version="1.0" encoding="utf-8"?>
<!-- Generator: Adobe Illustrator 26.0.2, SVG Export Plug-In . SVG Version: 6.00 Build 0)  -->
<svg version="1.1" id="Capa_1" xmlns="http://www.w3.org/2000/svg" xmlns:xlink="http://www.w3.org/1999/xlink" x="0px" y="0px"
	 viewBox="0 0 26.3 26.8" style="enable-background:new 0 0 26.3 26.8;" xml:space="preserve">
<style type="text/css">
	.st0{fill:#FD8417;}
</style>
<g id="Capa_2_00000119116174406910613880000003688616067566203552_">
	<g id="Capa_1-2">
		<g id="Capa_2-2">
			<g id="Capa_1-2-2">
				<g id="Capa_2-2-2">
					<g id="Capa_1-2-2-2">
						<g id="elements">
							<path class="st0" d="M8.8,19.6h8.7c1.2,0,2.1-0.7,2.2-1.6c0-0.1,0-0.3-0.1-0.4L18.7,14c-0.1-0.3-0.3-0.6-0.6-0.9
								c-0.3-0.2-0.6-0.3-0.9-0.3L16.9,1.3c0-0.4-0.2-0.8-0.6-1c-0.2-0.2-0.6-0.3-1-0.3l0,0l-4.5,0.1c-0.4,0-0.8,0.2-1.2,0.4
								C9.3,0.6,9.1,1,9.1,1.3l0.1,11.5c-0.7,0.1-1.3,0.6-1.5,1.2l-1,3.6c-0.2,0.9,0.5,1.7,1.7,1.9L8.8,19.6z M15.4,1.2L15.4,1.2
								l0.1,11.4h-4.7L10.7,1.3c0,0,0-0.1,0.1-0.1L15.4,1.2C15.3,1.2,15.3,1.2,15.4,1.2z M8.2,18H18l-0.1,0.1l0,0
								c-0.1,0.1-0.3,0.2-0.4,0.2H8.7C8.5,18.4,8.3,18.3,8.2,18L8.2,18L8.2,18L8.2,18z M8.5,16.8l0.7-2.6c0.1-0.2,0.4-0.4,0.6-0.3
								h6.8c0.2,0,0.4,0.1,0.5,0.3l0.8,2.6H8.5z"/>
							<path class="st0" d="M11.9,8.1c0.3,0.2,0.7,0.3,1.2,0.3l0,0c0.8,0.1,1.5-0.4,1.7-1.2V5.3c0-0.4-0.2-0.8-0.6-1
								c-0.7-0.5-1.7-0.4-2.3,0.1c-0.3,0.2-0.5,0.5-0.5,0.8v1.9C11.4,7.6,11.6,7.9,11.9,8.1z M13.1,7.5L13,7.2V6.8h0.2v0.3
								c0,0,0,0-0.1,0l0,0V7.5z M12.9,5.7V5.3h0.2v0.4C13.1,5.7,12.9,5.7,12.9,5.7z"/>
							<path class="st0" d="M13.6,21c-0.1-0.1-0.3-0.2-0.5-0.2l0,0c-0.4,0-0.8,0.3-0.8,0.6l0,0v4.8c0,0.3,0.3,0.6,0.8,0.6l0,0
								c0.4,0,0.7-0.2,0.8-0.6v-4.9C13.9,21.2,13.8,21.1,13.6,21z"/>
							<path class="st0" d="M20.3,23.5l-2.9-2.6h-0.2c-0.3-0.2-0.7-0.2-1.1,0c-0.2,0.1-0.3,0.4-0.2,0.6c0,0.1,0.1,0.1,0.1,0.2
								l0.1,0.1l0,0l2.9,2.6c0.3,0.2,0.7,0.3,1,0.1h0.1l0,0c0.4-0.1,0.5-0.4,0.4-0.7l0,0C20.4,23.6,20.4,23.5,20.3,23.5L20.3,23.5z"
								/>
							<path class="st0" d="M9.9,20.9c-0.3-0.2-0.7-0.2-1,0L8.8,21L6,23.6c-0.2,0-0.3,0.2-0.2,0.4c0.1,0.4,0.4,0.6,0.8,0.5h0.1
								c0.2,0,0.4-0.1,0.6-0.2l2.9-2.6c0.2-0.2,0.2-0.5,0.1-0.7c-0.1,0-0.2,0-0.2,0L9.9,20.9z"/>
						</g>
					</g>
				</g>
			</g>
		</g>
	</g>
</g>
</svg>
