<svg id="Capa_1" data-name="Capa 1" xmlns="http://www.w3.org/2000/svg" viewBox="0 0 31.59 31.58"><defs><style>.cls-1,.cls-2{fill:#5baf07;}.cls-2{stroke:#5baf07;stroke-miterlimit:10;stroke-width:0.75px;}</style></defs><g id="elements"><path class="cls-1" d="M33.78,29.93H30v3.78a1.38,1.38,0,1,1-2.75.23.88.88,0,0,1,0-.23V29.93H23.41a1.32,1.32,0,1,1,0-2.64h3.81V23.48A1.38,1.38,0,0,1,30,23.25a.88.88,0,0,1,0,.23v3.81h3.81a1.32,1.32,0,0,1,0,2.64Z" transform="translate(-16.09 -16.1)"/><path class="cls-2" d="M46.54,42l-7.45-7.44a12.1,12.1,0,1,0-4.54,4.54L42,46.54A3.22,3.22,0,0,0,46.54,42ZM17.76,28.6A10.84,10.84,0,1,1,28.61,39.43h0A10.85,10.85,0,0,1,17.76,28.6Zm27.9,17.06a2,2,0,0,1-2.79,0l-7.25-7.25a12.31,12.31,0,0,0,2.79-2.79l7.25,7.25A2,2,0,0,1,45.66,45.66Z" transform="translate(-16.09 -16.1)"/></g></svg>