<?xml version="1.0" encoding="utf-8"?>
<!-- Generator: Adobe Illustrator 26.0.2, SVG Export Plug-In . SVG Version: 6.00 Build 0)  -->
<svg version="1.1" id="Capa_1" xmlns="http://www.w3.org/2000/svg" xmlns:xlink="http://www.w3.org/1999/xlink" x="0px" y="0px"
	 viewBox="0 0 59.9 59.9" style="enable-background:new 0 0 59.9 59.9;" xml:space="preserve">
<style type="text/css">
	.st0{fill:none;}
	.st1{fill:#0066AB;}
	.st2{fill:none;stroke:#0066AB;stroke-width:1.02;stroke-linecap:round;stroke-linejoin:round;}
</style>
<rect class="st0" width="59.9" height="59.9"/>
<path class="st1" d="M48.9,31.7c-3.5,3.2-8.1,6.8-10.6,8.7c-0.1-0.6-0.3-1.1-0.5-1.6c3.1-2,6-4.3,8.6-6.8
	C47.1,31.3,48.1,31.2,48.9,31.7 M58.4,28.9L58.4,28.9c-1.9-1.7-4.7-1.6-6.5,0.1c-0.4,0.3-0.7,0.7-1.2,1.1c-1.8-1.5-4.4-1.4-6,0.2
	c-2.7,2.5-5.6,4.8-8.7,6.8c-0.7-0.4-1.5-0.6-2.3-0.6h-8.2c-1.1,0-2.2-0.1-3.3-0.4c-5-1-10.1,0.6-13.6,4.3c-0.5,0.5-1,0.9-1.7,1.2
	l-5.5,2.8c-0.6,0.3-0.8,1-0.5,1.6c0.2,0.4,0.6,0.6,1.1,0.6c0.2,0,0.4,0,0.5-0.1l5.5-2.8c0.8-0.4,1.6-1,2.3-1.7
	c2.9-3.1,7.2-4.4,11.4-3.6c1.2,0.3,2.5,0.4,3.7,0.4h8.2c1.3,0,2.3,1,2.3,2.3s-1,2.3-2.3,2.3h-9.3c-0.7,0-1.2,0.5-1.2,1.2l0,0l0,0
	c0,0.7,0.5,1.2,1.2,1.2h9.4c1.1,0,2.2-0.4,3.1-1.2l0,0c0.5-0.3,11.4-8.6,16.7-13.8c0.9-0.9,2.4-0.9,3.3,0c1,0.9,1.2,2.4,0.3,3.5
	c0,0,0,0-0.1,0.1l0,0l-1.3,1.4c-4,4.4-9.9,11.1-17,15.9c-1.2,0.8-2.6,1.2-4,1.2h-0.1c-2.8,0-8.5-0.2-13.6-0.8c-3-0.3-6,0.3-8.5,1.9
	l-5.8,3.5C6.1,57.7,6,58.4,6.3,59c0.3,0.6,1.1,0.7,1.6,0.4l5.8-3.5c2.1-1.3,4.6-1.8,7-1.5c5.1,0.6,10.8,0.8,13.8,0.8h0.2
	c1.9,0,3.7-0.6,5.3-1.6c7.2-5,13.3-11.8,17.4-16.3l1.3-1.4c1.8-2,1.6-5.1-0.4-6.9"/>
<path class="st2" d="M39.3,9.6l2.5,4.3 M41.6,10.5L39,9v3.1 M46.3,18.9H17.9V2.3h28.4V18.9z M36,23.5v1.1c0,0.2-0.1,0.3-0.3,0.3
	c0,0,0,0,0,0h-7.4c-0.2,0-0.3-0.2-0.3-0.3v-1.1H15.9v2.4c0.1,0.7,0.6,1.1,1.3,1.1h29.6c0.7,0.1,1.3-0.4,1.3-1.1v-2.4L36,23.5z
	 M46.8,21.2H17.3c-0.7,0-1.3-0.6-1.3-1.3l0,0l0,0V1.3C16,0.6,16.6,0,17.3,0l0,0h29.5c0.7,0,1.3,0.6,1.3,1.3v18.6
	C48.1,20.6,47.5,21.2,46.8,21.2z"/>
</svg>
