<?xml version="1.0" encoding="utf-8"?>
<!-- Generator: Adobe Illustrator 26.0.2, SVG Export Plug-In . SVG Version: 6.00 Build 0)  -->
<svg version="1.1" id="back" xmlns="http://www.w3.org/2000/svg" xmlns:xlink="http://www.w3.org/1999/xlink" x="0px" y="0px"
	 viewBox="0 0 45.2 45.3" style="enable-background:new 0 0 45.2 45.3;" xml:space="preserve">
<style type="text/css">
	.st0{fill:#FD8417;}
</style>
<path class="st0" d="M22.4,6.3c0.6,0,1.1-0.5,1.1-1.1V1c-0.1-0.6-0.6-1-1.2-1c-0.5,0-0.9,0.5-1,1v4.2C21.3,5.8,21.8,6.3,22.4,6.3z"
	/>
<path class="st0" d="M13.9,7.8c0.2,0.3,0.5,0.5,0.9,0.5c0.2,0,0.4-0.1,0.5-0.1c0.5-0.3,0.7-0.9,0.4-1.5l0,0L13.6,3
	c-0.3-0.5-1-0.7-1.5-0.4c-0.5,0.4-0.6,1-0.4,1.5L13.9,7.8z"/>
<path class="st0" d="M9.8,11.9L6.1,9.7C5.6,9.4,4.9,9.5,4.6,10c-0.3,0.5-0.2,1.2,0.3,1.5c0.1,0,0.1,0.1,0.2,0.1l3.7,2.1
	c0.2,0.1,0.4,0.1,0.5,0.1c0.6,0,1.1-0.5,1.1-1.1C10.3,12.4,10.1,12.1,9.8,11.9L9.8,11.9z"/>
<path class="st0" d="M8.4,20.3c0-0.6-0.5-1.1-1.1-1.1H3c-0.6,0.1-1,0.6-1,1.2c0,0.5,0.5,0.9,1,1h4.2C7.8,21.5,8.3,21,8.4,20.3
	L8.4,20.3z"/>
<path class="st0" d="M8.7,27L5,29.1c-0.5,0.3-0.7,0.9-0.4,1.5l0,0c0.2,0.3,0.5,0.5,0.9,0.5c0.2,0,0.4,0,0.5-0.1l3.7-2.1
	c0.5-0.3,0.7-1,0.4-1.5C9.8,26.9,9.2,26.7,8.7,27L8.7,27z"/>
<path class="st0" d="M39.7,29.1L36,27c-0.5-0.3-1.2-0.1-1.5,0.4l0,0c-0.3,0.5-0.1,1.1,0.4,1.4l3.7,2.1c0.2,0.1,0.3,0.1,0.5,0.1
	c0.6,0,1.1-0.5,1.1-1.1C40.2,29.7,40,29.3,39.7,29.1z"/>
<path class="st0" d="M41.7,19.3h-4.2c-0.6-0.1-1.1,0.4-1.2,1s0.4,1.1,1,1.2h4.4c0.6-0.1,1-0.6,1-1.2C42.6,19.7,42.2,19.3,41.7,19.3z
	"/>
<path class="st0" d="M35.4,13.9c0.2,0,0.4,0,0.5-0.1l3.7-2.1c0.5-0.3,0.7-0.9,0.4-1.5l0,0c-0.3-0.5-0.9-0.7-1.4-0.4l0,0l0,0
	l-3.7,2.1c-0.5,0.3-0.7,0.9-0.4,1.5C34.7,13.7,35.1,13.9,35.4,13.9L35.4,13.9z"/>
<path class="st0" d="M29.4,8.2c0.2,0.1,0.3,0.2,0.5,0.1c0.4,0,0.7-0.2,0.9-0.5l2.1-3.7c0.3-0.5,0.1-1.2-0.4-1.5l0,0
	C32,2.4,31.4,2.5,31.1,3L29,6.7C28.7,7.2,28.8,7.9,29.4,8.2C29.3,8.2,29.3,8.2,29.4,8.2L29.4,8.2z"/>
<path class="st0" d="M22.4,8.7c-6.4,0-11.7,5.2-11.7,11.7c0,3.5,1.5,5.7,2.9,7.5c1.1,1.6,2.1,3,2.3,5L16,34c0.1,1,1,1.8,2,1.8h8.9
	c1,0,1.9-0.8,2-1.8l0.1-1c0.2-2.1,1.1-3.5,2.3-5.1c1.4-1.9,2.9-4,2.9-7.5C34.1,13.9,28.9,8.7,22.4,8.7L22.4,8.7L22.4,8.7z
	 M29.4,26.7c-1.5,1.7-2.4,3.9-2.7,6.2l-0.1,0.9h-8.5L18,32.9c-0.2-2.3-1.2-4.5-2.6-6.2c-1.3-1.8-2.5-3.4-2.5-6.3
	c0-5.3,4.3-9.5,9.5-9.5s9.5,4.3,9.5,9.5C31.9,23.2,30.7,24.9,29.4,26.7L29.4,26.7z"/>
<path class="st0" d="M26.7,33.8H18c-0.6-0.1-1.1,0.4-1.2,1c-0.1,0.6,0.4,1.1,1,1.2h8.9c0.6,0.1,1.1-0.4,1.2-1s-0.4-1.1-1-1.2H26.7z"
	/>
<path class="st0" d="M26.7,36.5H18c-0.6-0.1-1.1,0.4-1.2,1c-0.1,0.6,0.4,1.1,1,1.2l0,0c0.1,0,0.1,0,0.2,0h8.7c0.6,0.1,1.1-0.4,1.2-1
	s-0.4-1.1-1-1.2H26.7z"/>
<path class="st0" d="M26.7,39.1H18c-0.6-0.1-1.1,0.4-1.2,1c-0.1,0.6,0.4,1.1,1,1.2l0,0c0.1,0,0.1,0,0.2,0h8.7c0.6,0.1,1.1-0.4,1.2-1
	s-0.4-1.1-1-1.2H26.7z"/>
<path class="st0" d="M22.4,12.1c-4.6,0-8.3,3.7-8.3,8.3c-0.1,0.6,0.4,1.1,1,1.2s1.1-0.4,1.2-1c0-0.1,0-0.1,0-0.2
	c0-3.4,2.7-6.1,6.1-6.1c0.6-0.1,1-0.6,1-1.2C23.3,12.5,22.9,12.1,22.4,12.1z"/>
<path class="st0" d="M19.1,44.5c0.3,0.5,0.8,0.9,1.4,0.9h3.8c0.6,0,1.1-0.3,1.4-0.9l1.4-2.8h-9.3L19.1,44.5z"/>
</svg>
