<svg id="Capa_1" data-name="Capa 1" xmlns="http://www.w3.org/2000/svg" viewBox="0 0 34.9 35.01"><defs><style>.cls-1{fill:#5baf07;}</style></defs><g id="elements"><path class="cls-1" d="M48.3,21.58a1.15,1.15,0,0,0,0-1.61,1.13,1.13,0,0,0-1-.34l-2.78.31.31-2.79A1.18,1.18,0,0,0,44.25,16a1.14,1.14,0,0,0-1.32.22l-2.61,2.62a17.36,17.36,0,1,0,5.39,5.34ZM31.07,35.35a1.82,1.82,0,1,1,0-3.64h.1l-1,1a1.15,1.15,0,0,0,0,1.63h0a1.18,1.18,0,0,0,1.62,0l1.06-1a1,1,0,0,1,0,.25A1.81,1.81,0,0,1,31.07,35.35Zm0,6.62a8.44,8.44,0,1,1,5-15.19L33,29.88a4.11,4.11,0,0,0-1.94-.49,4.16,4.16,0,1,0,4.14,4.18,4.27,4.27,0,0,0-.55-2.09l3.09-3.09A8.44,8.44,0,0,1,31.07,42Zm7.32-20.86L38,24.92l-.2.21a10.76,10.76,0,1,0,1.63,1.61l.19-.19,3.82-.43a1.11,1.11,0,0,0,.6-.25,14.86,14.86,0,0,1,2.12,7.66,15.12,15.12,0,1,1-7.5-13A1.15,1.15,0,0,0,38.39,21.11Z" transform="translate(-13.75 -15.88)"/></g></svg>