<?xml version="1.0" encoding="utf-8"?>
<!-- Generator: Adobe Illustrator 26.0.2, SVG Export Plug-In . SVG Version: 6.00 Build 0)  -->
<svg version="1.1" id="back" xmlns="http://www.w3.org/2000/svg" xmlns:xlink="http://www.w3.org/1999/xlink" x="0px" y="0px"
	 viewBox="0 0 34.4 34.6" style="enable-background:new 0 0 34.4 34.6;" xml:space="preserve">
<style type="text/css">
	.st0{fill:#5BAF07;}
</style>
<path class="st0" d="M33,17.7c-0.8,0-1.4,0.7-1.5,1.5v8.7c0,2.1-1.7,3.8-3.8,3.8c0,0,0,0,0,0h-21c-2.1,0-3.8-1.7-3.8-3.8v-8.9
	c0.1-0.8-0.5-1.5-1.3-1.6C0.8,17.4,0.1,18,0,18.8c0,0,0,0,0,0c0,0.1,0,0.2,0,0.2v8.9c0,3.7,3,6.7,6.7,6.7h21c3.7,0,6.7-3,6.7-6.7
	v-8.7C34.4,18.4,33.8,17.7,33,17.7z"/>
<path class="st0" d="M16.2,24.9c0.3,0.3,0.6,0.4,1,0.4c0.4,0,0.7-0.2,1-0.4l6.1-6.1c0.6-0.5,0.6-1.4,0-2c0,0,0,0,0,0
	c-0.6-0.6-1.5-0.6-2.1,0l-3.5,3.5V2.1c0-0.8-0.7-1.5-1.5-1.5c-0.8,0-1.5,0.7-1.5,1.5c0,0,0,0,0,0l0,0v18.2l-3.6-3.6
	c-0.6-0.6-1.5-0.6-2.1,0c-0.3,0.3-0.4,0.6-0.4,1c0,0.4,0.2,0.7,0.4,1L16.2,24.9z"/>
</svg>
