<?xml version="1.0" encoding="utf-8"?>
<!-- Generator: Adobe Illustrator 26.0.2, SVG Export Plug-In . SVG Version: 6.00 Build 0)  -->
<svg version="1.1" id="Capa_1" xmlns="http://www.w3.org/2000/svg" xmlns:xlink="http://www.w3.org/1999/xlink" x="0px" y="0px"
	 viewBox="0 0 48.8 48.9" style="enable-background:new 0 0 48.8 48.9;" xml:space="preserve">
<style type="text/css">
	.st0{fill:#FD8417;}
</style>
<g id="elements">
	<path class="st0" d="M36.9,18c-1.4-1.4-3.3-2.3-5.2-2.6L30.4,5.3h0.3c0.7,0,1.4-0.3,1.9-0.8c1-1.1,1-2.7-0.1-3.8
		C32,0.3,31.4,0,30.7,0H16.8c-1.4,0-2.6,1.2-2.6,2.7s1.2,2.7,2.6,2.7h0.3l-1.3,10C11.4,16,8,19.7,8,24.2c0,0.3,0.1,0.6,0.3,0.8
		c0.2,0.2,0.5,0.3,0.8,0.3h11.2v14.3c0,1.4,0.3,2.8,0.8,4.2l1.7,4.3c0.2,0.4,0.6,0.7,1,0.7l0,0c0.4,0,0.8-0.3,1-0.7l1.6-4.3
		c0.5-1.3,0.8-2.8,0.8-4.2V25.3h11.3c0.6,0,1.1-0.5,1.1-1.1C39.5,21.9,38.6,19.6,36.9,18z M16.5,3c-0.1-0.1-0.1-0.2-0.1-0.3
		c0-0.2,0.2-0.4,0.4-0.4l0,0h13.9c0.2,0,0.4,0.2,0.4,0.4c0,0.1,0,0.2-0.1,0.3s-0.2,0.1-0.3,0.1H16.8C16.7,3.1,16.6,3.1,16.5,3
		L16.5,3z M18.1,15.4l1.3-10.1h8.8l1.3,10.1H18.1z M37.2,23.1H10.3c0.5-3.2,3.3-5.5,6.5-5.5h13.9C33.9,17.7,36.7,20,37.2,23.1z
		 M25,25.3v14.3c0,1.2-0.2,2.3-0.6,3.4l-0.6,1.6L23.2,43c-0.4-1.1-0.6-2.2-0.6-3.4V25.3H25z"/>
</g>
</svg>
