<?xml version="1.0" encoding="utf-8"?>
<!-- Generator: Adobe Illustrator 26.0.2, SVG Export Plug-In . SVG Version: 6.00 Build 0)  -->
<svg version="1.1" id="Capa_1" xmlns="http://www.w3.org/2000/svg" xmlns:xlink="http://www.w3.org/1999/xlink" x="0px" y="0px"
	 viewBox="0 0 46.3 46" style="enable-background:new 0 0 46.3 46;" xml:space="preserve">
<style type="text/css">
	.st0{fill:#A25AC4;}
</style>
<g id="Capa_2_00000164514650433537100920000014737866131720932283_">
	<g id="Capa_1-2">
		<g id="elements">
			<path class="st0" d="M39.4,23.4l-2.7-5v-3.3C36.7,6.8,29.9,0,21.6,0C13.2,0,6.4,6.8,6.4,15.1v2.5c0,3.2,1,6.3,2.8,8.9v11
				c-0.1,0.4,0.1,0.8,0.5,1l0.7,0.4l0.1,0.1l15.9,6.9c0.2,0.1,0.3,0.1,0.5,0.1c0.7,0,1.2-0.5,1.2-1.2l0,0l0,0v-8.2
				c0,0,0-0.1,0.1-0.1c0,0,0,0,0,0h2.6c3.3,0,5.9-2.7,5.9-5.9v-2.7h0.1c1.7,0,3-1.3,3-3C39.8,24.3,39.7,23.9,39.4,23.4z M21.6,2.4
				c7,0,12.7,5.7,12.7,12.7v3.7c0,0.2,0.1,0.4,0.2,0.6l2.9,5.2c0.1,0.3,0,0.6-0.2,0.7c-0.1,0-0.2,0.1-0.3,0.1h-1.3
				c-0.7,0-1.2,0.5-1.2,1.2v4c0,1.9-1.6,3.5-3.5,3.5h-2.6c-1.4,0-2.5,1.1-2.5,2.5v6.3l-13.8-6l-0.3-0.1V26.2c0-0.3-0.1-0.5-0.2-0.7
				c-1.7-2.3-2.6-5-2.6-7.8v-2.6C8.9,8.1,14.6,2.4,21.6,2.4L21.6,2.4z"/>
			<path class="st0" d="M12.8,18.6h0.3L13,18.9c-0.8,0.9-0.8,2.3,0.1,3.2l1.6,1.5c0.9,0.8,2.3,0.9,3.2,0.1l0.3-0.2v0.4
				c0.1,1.2,1.1,2.2,2.4,2.2h2.2c1.2,0,2.2-1,2.4-2.2v-0.3l0.3,0.2c0.9,0.8,2.3,0.8,3.2-0.1l1.6-1.6c0.8-0.9,0.8-2.3,0-3.2l-0.2-0.3
				h0.3c1.2-0.1,2.2-1.1,2.2-2.3v-2.2c0-1.2-1-2.2-2.2-2.3h-0.3l0.2-0.3c0.9-0.9,0.9-2.4,0-3.3l-1.6-1.5c-0.9-0.8-2.3-0.9-3.2-0.1
				L25,6.9V6.5c-0.1-1.2-1.1-2.2-2.3-2.2h-2.2c-1.2,0.1-2.2,1-2.3,2.2v0.3l-0.3-0.2c-0.9-0.8-2.3-0.8-3.2,0.1L13,8.2
				c-0.8,0.9-0.9,2.3-0.1,3.2l0.2,0.3h-0.3c-1.2,0.1-2.2,1.1-2.2,2.3v2.2C10.6,17.5,11.6,18.5,12.8,18.6z M14.3,14
				c0.5-0.1,0.9-0.4,1-0.8c0.1-0.3,0.3-0.7,0.4-1c0.2-0.4,0.2-0.9-0.1-1.3L14.9,10l-0.1-0.1l1.4-1.4h0.1l0.9,0.7
				c0.4,0.3,0.9,0.3,1.3,0.1c0.3-0.2,0.7-0.3,1-0.4c0.4-0.1,0.8-0.5,0.8-1l0.1-1.1c0,0,0-0.1,0-0.1h2v0.1L22.7,8
				c0.1,0.5,0.4,0.9,0.8,1c0.3,0.1,0.7,0.3,1,0.4c0.4,0.2,0.9,0.2,1.3-0.1l0.9-0.7h0.1l1.4,1.4c0,0,0,0.1-0.1,0.1L27.5,11
				c-0.3,0.4-0.3,0.9-0.1,1.3c0.2,0.3,0.3,0.7,0.4,1c0.1,0.4,0.5,0.8,1,0.8l1.1,0.1h0.1v2H30l-1.1,0.1c-0.5,0.1-0.9,0.4-1,0.8
				c-0.1,0.3-0.3,0.7-0.4,1c-0.2,0.4-0.2,0.9,0.1,1.3l0.7,0.9l0.1,0.1L26.9,22l-0.1,0l-0.9-0.7c-0.4-0.3-0.9-0.4-1.3-0.1
				c-0.3,0.2-0.7,0.3-1,0.4c-0.5,0.1-0.8,0.5-0.8,1l-0.1,1.1v0.1h-2c0,0,0-0.1,0-0.1l-0.2-1.2c-0.1-0.5-0.4-0.9-0.8-1
				c-0.3-0.1-0.7-0.3-1-0.4c-0.4-0.2-0.9-0.2-1.3,0.1l-0.9,0.7L16.3,22l-1.4-1.5c0,0,0-0.1,0.1-0.1l0.7-0.9c0.3-0.4,0.3-0.9,0.1-1.3
				c-0.2-0.3-0.3-0.7-0.4-1c-0.1-0.5-0.5-0.8-1-0.8l-1.2-0.1c0,0-0.1,0-0.1,0v-2h0.1L14.3,14z"/>
			<path class="st0" d="M21.5,20c2.6,0,4.8-2.1,4.8-4.8s-2.1-4.8-4.8-4.8s-4.8,2.1-4.8,4.8S18.9,20,21.5,20L21.5,20z M19.1,15.2
				c0-1.3,1.1-2.4,2.4-2.4c1.3,0,2.4,1.1,2.4,2.4c0,0.6-0.3,1.3-0.7,1.7l0,0c-0.9,0.9-2.4,0.9-3.4,0C19.4,16.5,19.1,15.8,19.1,15.2z
				"/>
		</g>
	</g>
</g>
</svg>
