<svg id="back" xmlns="http://www.w3.org/2000/svg" viewBox="0 0 39.47 40.04"><defs><style>.cls-1{fill:#a25ac4;}</style></defs><path class="cls-1" d="M46.92,12H17.08a4.85,4.85,0,0,0-4.82,4.88h0v21.7a4.86,4.86,0,0,0,4.82,4.87h8.59l4.72,7.73a1.79,1.79,0,0,0,1.53.86h0a1.77,1.77,0,0,0,1.53-.86l4.66-7.7h8.8a4.86,4.86,0,0,0,4.82-4.87V16.87A4.85,4.85,0,0,0,46.92,12Zm0,28.94h-8.8A2.45,2.45,0,0,0,36,42.11l-4.1,6.71-4.1-6.71a2.51,2.51,0,0,0-2.09-1.18H17.08a2.32,2.32,0,0,1-2.3-2.34h0V16.87a2.33,2.33,0,0,1,2.3-2.36H46.92a2.33,2.33,0,0,1,2.3,2.36h0V38.58a2.32,2.32,0,0,1-2.29,2.35h0Z" transform="translate(-12.26 -12)"/><path class="cls-1" d="M33.34,16.75H30.66a2.34,2.34,0,0,0-1.73.78,2.75,2.75,0,0,0-.72,2.12l1,12.33a2.52,2.52,0,0,0,2.45,2.45h.76A2.53,2.53,0,0,0,34.83,32l1-12.33a2.82,2.82,0,0,0-.72-2.13A2.38,2.38,0,0,0,33.34,16.75Zm-.06,2.71-1,12.33h0v.12H31.7v-.12l-1-12.33a.61.61,0,0,1,0-.19h2.5A.46.46,0,0,1,33.28,19.46Z" transform="translate(-12.26 -12)"/><path class="cls-1" d="M31.79,35.07A2.93,2.93,0,1,0,34.72,38a2.93,2.93,0,0,0-2.93-2.93ZM32.2,38a.41.41,0,1,1-.41-.41h0A.41.41,0,0,1,32.2,38Z" transform="translate(-12.26 -12)"/></svg>