<?xml version="1.0" encoding="utf-8"?>
<!-- Generator: Adobe Illustrator 26.0.2, SVG Export Plug-In . SVG Version: 6.00 Build 0)  -->
<svg version="1.1" id="back" xmlns="http://www.w3.org/2000/svg" xmlns:xlink="http://www.w3.org/1999/xlink" x="0px" y="0px"
	 viewBox="0 0 45.4 45.3" style="enable-background:new 0 0 45.4 45.3;" xml:space="preserve">
<style type="text/css">
	.st0{fill:#A25AC4;}
</style>
<path class="st0" d="M23,6.3c0.6,0,1.1-0.5,1.1-1.1V1c-0.1-0.6-0.6-1-1.2-1c-0.5,0-0.9,0.5-1,1v4.2C22,5.8,22.4,6.3,23,6.3z"/>
<path class="st0" d="M14.5,7.8c0.2,0.3,0.5,0.5,0.9,0.5c0.2,0,0.4-0.1,0.5-0.1c0.5-0.3,0.7-0.9,0.4-1.5l0,0l-2.1-3.7
	c-0.3-0.5-1-0.7-1.5-0.4c-0.5,0.3-0.7,0.9-0.4,1.4L14.5,7.8z"/>
<path class="st0" d="M10.5,11.9L6.8,9.7C6.3,9.4,5.6,9.5,5.3,10c-0.3,0.5-0.2,1.2,0.3,1.5c0.1,0,0.1,0.1,0.2,0.1l3.7,2.1
	c0.2,0.1,0.4,0.1,0.5,0.1c0.6,0,1.1-0.5,1.1-1.1C11,12.4,10.8,12.1,10.5,11.9L10.5,11.9z"/>
<path class="st0" d="M9,20.3c0-0.6-0.5-1.1-1.1-1.1H3.7c-0.6,0.1-1,0.6-1,1.2c0,0.5,0.5,0.9,1,1h4.2C8.5,21.5,9,21,9,20.3L9,20.3z"
	/>
<path class="st0" d="M9.4,27l-3.7,2.1C5.2,29.4,5,30,5.3,30.6l0,0c0.2,0.3,0.5,0.5,0.9,0.5c0.2,0,0.4,0,0.5-0.1l3.7-2.1
	c0.5-0.3,0.7-1,0.4-1.5C10.5,26.9,9.9,26.7,9.4,27L9.4,27z"/>
<path class="st0" d="M40.3,29.1L36.7,27c-0.5-0.3-1.2-0.1-1.5,0.4c0,0,0,0,0,0c-0.3,0.5-0.1,1.1,0.4,1.4l3.7,2.1
	c0.2,0.1,0.3,0.1,0.5,0.1c0.6,0,1.1-0.5,1.1-1.1C40.9,29.7,40.7,29.3,40.3,29.1z"/>
<path class="st0" d="M42.4,19.3h-4.2c-0.6-0.1-1.1,0.4-1.2,1c-0.1,0.6,0.4,1.1,1,1.2h4.5c0.6-0.1,1-0.6,1-1.2
	C43.3,19.7,42.9,19.3,42.4,19.3z"/>
<path class="st0" d="M36.1,13.9c0.2,0,0.4,0,0.5-0.1l3.7-2.1c0.5-0.3,0.7-0.9,0.4-1.5l0,0c-0.3-0.5-0.9-0.7-1.4-0.4c0,0,0,0,0,0l0,0
	l-3.7,2.1c-0.5,0.3-0.7,0.9-0.4,1.5C35.4,13.7,35.8,13.9,36.1,13.9L36.1,13.9z"/>
<path class="st0" d="M30,8.2c0.2,0.1,0.3,0.2,0.5,0.1c0.4,0,0.7-0.2,0.9-0.5l2.1-3.7c0.3-0.5,0.1-1.2-0.4-1.5c0,0,0,0,0,0
	c-0.5-0.3-1.1-0.1-1.4,0.4l-2.1,3.7C29.3,7.2,29.5,7.9,30,8.2C30,8.2,30,8.2,30,8.2L30,8.2z"/>
<path class="st0" d="M23,8.7c-6.4,0-11.7,5.2-11.7,11.7c0,3.5,1.5,5.7,2.9,7.5c1.1,1.6,2.1,3,2.3,5l0.1,1.1c0.1,1,1,1.8,2,1.8h8.9
	c1,0,1.9-0.8,2-1.8l0.1-1c0.2-2.1,1.1-3.5,2.3-5.1c1.4-1.9,2.9-4,2.9-7.5C34.8,13.9,29.5,8.7,23,8.7C23.1,8.7,23.1,8.7,23,8.7
	L23,8.7z M30,26.7c-1.5,1.7-2.4,3.9-2.7,6.2l-0.1,0.9h-8.5l-0.1-0.9c-0.2-2.3-1.2-4.5-2.6-6.2c-1.3-1.8-2.5-3.4-2.5-6.3
	c0-5.3,4.3-9.5,9.5-9.5s9.5,4.3,9.5,9.5C32.6,23.2,31.4,24.9,30,26.7L30,26.7z"/>
<path class="st0" d="M27.4,33.8h-8.7c-0.6-0.1-1.1,0.4-1.2,1s0.4,1.1,1,1.2h8.9c0.6,0.1,1.1-0.4,1.2-1s-0.4-1.1-1-1.2H27.4z"/>
<path class="st0" d="M27.4,36.5h-8.7c-0.6-0.1-1.1,0.4-1.2,1s0.4,1.1,1,1.2l0,0c0.1,0,0.1,0,0.2,0h8.7c0.6,0.1,1.1-0.4,1.2-1
	s-0.4-1.1-1-1.2L27.4,36.5z"/>
<path class="st0" d="M27.4,39.1h-8.7c-0.6-0.1-1.1,0.4-1.2,1s0.4,1.1,1,1.2l0,0c0.1,0,0.1,0,0.2,0h8.7c0.6,0.1,1.1-0.4,1.2-1
	s-0.4-1.1-1-1.2H27.4z"/>
<path class="st0" d="M23,12.1c-4.6,0-8.3,3.7-8.3,8.3c-0.1,0.6,0.4,1.1,1,1.2c0.6,0.1,1.1-0.4,1.2-1c0-0.1,0-0.1,0-0.2
	c0-3.4,2.7-6.1,6.1-6.1c0.6-0.1,1-0.6,1-1.2C24,12.5,23.5,12.1,23,12.1z"/>
<path class="st0" d="M19.7,44.5c0.3,0.5,0.8,0.9,1.4,0.9h3.8c0.6,0,1.1-0.3,1.4-0.9l1.4-2.8h-9.3L19.7,44.5z"/>
</svg>
